<?xml version="1.0" encoding="utf-8" standalone="no"?>
<!DOCTYPE svg PUBLIC "-//W3C//DTD SVG 1.1//EN"
  "http://www.w3.org/Graphics/SVG/1.1/DTD/svg11.dtd">
<svg height="345.6pt" version="1.1" viewBox="0 0 460.8 345.6" width="460.8pt" xmlns="http://www.w3.org/2000/svg" xmlns:xlink="http://www.w3.org/1999/xlink">
 <metadata>
  <rdf:RDF xmlns:cc="http://creativecommons.org/ns#" xmlns:dc="http://purl.org/dc/elements/1.1/" xmlns:rdf="http://www.w3.org/1999/02/22-rdf-syntax-ns#">
   <cc:Work>
    <dc:type rdf:resource="http://purl.org/dc/dcmitype/StillImage"/>
    <dc:date>2023-05-14T14:22:46.703269</dc:date>
    <dc:format>image/svg+xml</dc:format>
    <dc:creator>
     <cc:Agent>
      <dc:title>Matplotlib v3.4.2, https://matplotlib.org/</dc:title>
     </cc:Agent>
    </dc:creator>
   </cc:Work>
  </rdf:RDF>
 </metadata>
 <defs>
  <style type="text/css">*{stroke-linecap:butt;stroke-linejoin:round;}</style>
 </defs>
 <g id="figure_1">
  <g id="patch_1">
   <path d="M 0 345.6 
L 460.8 345.6 
L 460.8 0 
L 0 0 
z
" style="fill:#ffffff;"/>
  </g>
  <g id="axes_1">
   <g id="patch_2">
    <path d="M 57.6 307.584 
L 414.72 307.584 
L 414.72 41.472 
L 57.6 41.472 
z
" style="fill:#ffffff;"/>
   </g>
   <g id="matplotlib.axis_1">
    <g id="xtick_1">
     <g id="line2d_1">
      <defs>
       <path d="M 0 0 
L 0 3.5 
" id="mc1b879dad5" style="stroke:#000000;stroke-width:0.8;"/>
      </defs>
      <g>
       <use style="stroke:#000000;stroke-width:0.8;" x="73.832727" xlink:href="#mc1b879dad5" y="307.584"/>
      </g>
     </g>
     <g id="text_1">
      <!-- 0 -->
      <g transform="translate(70.651477 322.182437)scale(0.1 -0.1)">
       <defs>
        <path d="M 2034 4250 
Q 1547 4250 1301 3770 
Q 1056 3291 1056 2328 
Q 1056 1369 1301 889 
Q 1547 409 2034 409 
Q 2525 409 2770 889 
Q 3016 1369 3016 2328 
Q 3016 3291 2770 3770 
Q 2525 4250 2034 4250 
z
M 2034 4750 
Q 2819 4750 3233 4129 
Q 3647 3509 3647 2328 
Q 3647 1150 3233 529 
Q 2819 -91 2034 -91 
Q 1250 -91 836 529 
Q 422 1150 422 2328 
Q 422 3509 836 4129 
Q 1250 4750 2034 4750 
z
" id="DejaVuSans-30" transform="scale(0.015625)"/>
       </defs>
       <use xlink:href="#DejaVuSans-30"/>
      </g>
     </g>
    </g>
    <g id="xtick_2">
     <g id="line2d_2">
      <g>
       <use style="stroke:#000000;stroke-width:0.8;" x="138.828632" xlink:href="#mc1b879dad5" y="307.584"/>
      </g>
     </g>
     <g id="text_2">
      <!-- 200 -->
      <g transform="translate(129.284882 322.182437)scale(0.1 -0.1)">
       <defs>
        <path d="M 1228 531 
L 3431 531 
L 3431 0 
L 469 0 
L 469 531 
Q 828 903 1448 1529 
Q 2069 2156 2228 2338 
Q 2531 2678 2651 2914 
Q 2772 3150 2772 3378 
Q 2772 3750 2511 3984 
Q 2250 4219 1831 4219 
Q 1534 4219 1204 4116 
Q 875 4013 500 3803 
L 500 4441 
Q 881 4594 1212 4672 
Q 1544 4750 1819 4750 
Q 2544 4750 2975 4387 
Q 3406 4025 3406 3419 
Q 3406 3131 3298 2873 
Q 3191 2616 2906 2266 
Q 2828 2175 2409 1742 
Q 1991 1309 1228 531 
z
" id="DejaVuSans-32" transform="scale(0.015625)"/>
       </defs>
       <use xlink:href="#DejaVuSans-32"/>
       <use x="63.623047" xlink:href="#DejaVuSans-30"/>
       <use x="127.246094" xlink:href="#DejaVuSans-30"/>
      </g>
     </g>
    </g>
    <g id="xtick_3">
     <g id="line2d_3">
      <g>
       <use style="stroke:#000000;stroke-width:0.8;" x="203.824537" xlink:href="#mc1b879dad5" y="307.584"/>
      </g>
     </g>
     <g id="text_3">
      <!-- 400 -->
      <g transform="translate(194.280787 322.182437)scale(0.1 -0.1)">
       <defs>
        <path d="M 2419 4116 
L 825 1625 
L 2419 1625 
L 2419 4116 
z
M 2253 4666 
L 3047 4666 
L 3047 1625 
L 3713 1625 
L 3713 1100 
L 3047 1100 
L 3047 0 
L 2419 0 
L 2419 1100 
L 313 1100 
L 313 1709 
L 2253 4666 
z
" id="DejaVuSans-34" transform="scale(0.015625)"/>
       </defs>
       <use xlink:href="#DejaVuSans-34"/>
       <use x="63.623047" xlink:href="#DejaVuSans-30"/>
       <use x="127.246094" xlink:href="#DejaVuSans-30"/>
      </g>
     </g>
    </g>
    <g id="xtick_4">
     <g id="line2d_4">
      <g>
       <use style="stroke:#000000;stroke-width:0.8;" x="268.820442" xlink:href="#mc1b879dad5" y="307.584"/>
      </g>
     </g>
     <g id="text_4">
      <!-- 600 -->
      <g transform="translate(259.276692 322.182437)scale(0.1 -0.1)">
       <defs>
        <path d="M 2113 2584 
Q 1688 2584 1439 2293 
Q 1191 2003 1191 1497 
Q 1191 994 1439 701 
Q 1688 409 2113 409 
Q 2538 409 2786 701 
Q 3034 994 3034 1497 
Q 3034 2003 2786 2293 
Q 2538 2584 2113 2584 
z
M 3366 4563 
L 3366 3988 
Q 3128 4100 2886 4159 
Q 2644 4219 2406 4219 
Q 1781 4219 1451 3797 
Q 1122 3375 1075 2522 
Q 1259 2794 1537 2939 
Q 1816 3084 2150 3084 
Q 2853 3084 3261 2657 
Q 3669 2231 3669 1497 
Q 3669 778 3244 343 
Q 2819 -91 2113 -91 
Q 1303 -91 875 529 
Q 447 1150 447 2328 
Q 447 3434 972 4092 
Q 1497 4750 2381 4750 
Q 2619 4750 2861 4703 
Q 3103 4656 3366 4563 
z
" id="DejaVuSans-36" transform="scale(0.015625)"/>
       </defs>
       <use xlink:href="#DejaVuSans-36"/>
       <use x="63.623047" xlink:href="#DejaVuSans-30"/>
       <use x="127.246094" xlink:href="#DejaVuSans-30"/>
      </g>
     </g>
    </g>
    <g id="xtick_5">
     <g id="line2d_5">
      <g>
       <use style="stroke:#000000;stroke-width:0.8;" x="333.816347" xlink:href="#mc1b879dad5" y="307.584"/>
      </g>
     </g>
     <g id="text_5">
      <!-- 800 -->
      <g transform="translate(324.272597 322.182437)scale(0.1 -0.1)">
       <defs>
        <path d="M 2034 2216 
Q 1584 2216 1326 1975 
Q 1069 1734 1069 1313 
Q 1069 891 1326 650 
Q 1584 409 2034 409 
Q 2484 409 2743 651 
Q 3003 894 3003 1313 
Q 3003 1734 2745 1975 
Q 2488 2216 2034 2216 
z
M 1403 2484 
Q 997 2584 770 2862 
Q 544 3141 544 3541 
Q 544 4100 942 4425 
Q 1341 4750 2034 4750 
Q 2731 4750 3128 4425 
Q 3525 4100 3525 3541 
Q 3525 3141 3298 2862 
Q 3072 2584 2669 2484 
Q 3125 2378 3379 2068 
Q 3634 1759 3634 1313 
Q 3634 634 3220 271 
Q 2806 -91 2034 -91 
Q 1263 -91 848 271 
Q 434 634 434 1313 
Q 434 1759 690 2068 
Q 947 2378 1403 2484 
z
M 1172 3481 
Q 1172 3119 1398 2916 
Q 1625 2713 2034 2713 
Q 2441 2713 2670 2916 
Q 2900 3119 2900 3481 
Q 2900 3844 2670 4047 
Q 2441 4250 2034 4250 
Q 1625 4250 1398 4047 
Q 1172 3844 1172 3481 
z
" id="DejaVuSans-38" transform="scale(0.015625)"/>
       </defs>
       <use xlink:href="#DejaVuSans-38"/>
       <use x="63.623047" xlink:href="#DejaVuSans-30"/>
       <use x="127.246094" xlink:href="#DejaVuSans-30"/>
      </g>
     </g>
    </g>
    <g id="xtick_6">
     <g id="line2d_6">
      <g>
       <use style="stroke:#000000;stroke-width:0.8;" x="398.812252" xlink:href="#mc1b879dad5" y="307.584"/>
      </g>
     </g>
     <g id="text_6">
      <!-- 1000 -->
      <g transform="translate(386.087252 322.182437)scale(0.1 -0.1)">
       <defs>
        <path d="M 794 531 
L 1825 531 
L 1825 4091 
L 703 3866 
L 703 4441 
L 1819 4666 
L 2450 4666 
L 2450 531 
L 3481 531 
L 3481 0 
L 794 0 
L 794 531 
z
" id="DejaVuSans-31" transform="scale(0.015625)"/>
       </defs>
       <use xlink:href="#DejaVuSans-31"/>
       <use x="63.623047" xlink:href="#DejaVuSans-30"/>
       <use x="127.246094" xlink:href="#DejaVuSans-30"/>
       <use x="190.869141" xlink:href="#DejaVuSans-30"/>
      </g>
     </g>
    </g>
   </g>
   <g id="matplotlib.axis_2">
    <g id="ytick_1">
     <g id="line2d_7">
      <defs>
       <path d="M 0 0 
L -3.5 0 
" id="m3b840635db" style="stroke:#000000;stroke-width:0.8;"/>
      </defs>
      <g>
       <use style="stroke:#000000;stroke-width:0.8;" x="57.6" xlink:href="#m3b840635db" y="282.224719"/>
      </g>
     </g>
     <g id="text_7">
      <!-- 4 -->
      <g transform="translate(44.2375 286.023938)scale(0.1 -0.1)">
       <use xlink:href="#DejaVuSans-34"/>
      </g>
     </g>
    </g>
    <g id="ytick_2">
     <g id="line2d_8">
      <g>
       <use style="stroke:#000000;stroke-width:0.8;" x="57.6" xlink:href="#m3b840635db" y="248.690803"/>
      </g>
     </g>
     <g id="text_8">
      <!-- 6 -->
      <g transform="translate(44.2375 252.490022)scale(0.1 -0.1)">
       <use xlink:href="#DejaVuSans-36"/>
      </g>
     </g>
    </g>
    <g id="ytick_3">
     <g id="line2d_9">
      <g>
       <use style="stroke:#000000;stroke-width:0.8;" x="57.6" xlink:href="#m3b840635db" y="215.156887"/>
      </g>
     </g>
     <g id="text_9">
      <!-- 8 -->
      <g transform="translate(44.2375 218.956106)scale(0.1 -0.1)">
       <use xlink:href="#DejaVuSans-38"/>
      </g>
     </g>
    </g>
    <g id="ytick_4">
     <g id="line2d_10">
      <g>
       <use style="stroke:#000000;stroke-width:0.8;" x="57.6" xlink:href="#m3b840635db" y="181.622971"/>
      </g>
     </g>
     <g id="text_10">
      <!-- 10 -->
      <g transform="translate(37.875 185.42219)scale(0.1 -0.1)">
       <use xlink:href="#DejaVuSans-31"/>
       <use x="63.623047" xlink:href="#DejaVuSans-30"/>
      </g>
     </g>
    </g>
    <g id="ytick_5">
     <g id="line2d_11">
      <g>
       <use style="stroke:#000000;stroke-width:0.8;" x="57.6" xlink:href="#m3b840635db" y="148.089055"/>
      </g>
     </g>
     <g id="text_11">
      <!-- 12 -->
      <g transform="translate(37.875 151.888273)scale(0.1 -0.1)">
       <use xlink:href="#DejaVuSans-31"/>
       <use x="63.623047" xlink:href="#DejaVuSans-32"/>
      </g>
     </g>
    </g>
    <g id="ytick_6">
     <g id="line2d_12">
      <g>
       <use style="stroke:#000000;stroke-width:0.8;" x="57.6" xlink:href="#m3b840635db" y="114.555139"/>
      </g>
     </g>
     <g id="text_12">
      <!-- 14 -->
      <g transform="translate(37.875 118.354357)scale(0.1 -0.1)">
       <use xlink:href="#DejaVuSans-31"/>
       <use x="63.623047" xlink:href="#DejaVuSans-34"/>
      </g>
     </g>
    </g>
    <g id="ytick_7">
     <g id="line2d_13">
      <g>
       <use style="stroke:#000000;stroke-width:0.8;" x="57.6" xlink:href="#m3b840635db" y="81.021222"/>
      </g>
     </g>
     <g id="text_13">
      <!-- 16 -->
      <g transform="translate(37.875 84.820441)scale(0.1 -0.1)">
       <use xlink:href="#DejaVuSans-31"/>
       <use x="63.623047" xlink:href="#DejaVuSans-36"/>
      </g>
     </g>
    </g>
    <g id="ytick_8">
     <g id="line2d_14">
      <g>
       <use style="stroke:#000000;stroke-width:0.8;" x="57.6" xlink:href="#m3b840635db" y="47.487306"/>
      </g>
     </g>
     <g id="text_14">
      <!-- 18 -->
      <g transform="translate(37.875 51.286525)scale(0.1 -0.1)">
       <use xlink:href="#DejaVuSans-31"/>
       <use x="63.623047" xlink:href="#DejaVuSans-38"/>
      </g>
     </g>
    </g>
   </g>
   <g id="line2d_15">
    <path clip-path="url(#p2918bfd543)" d="M 73.832727 295.488 
L 74.157707 270.903998 
L 74.482686 185.658076 
L 74.807666 229.209882 
L 75.132645 187.187092 
L 75.457625 214.780962 
L 75.782604 230.207415 
L 76.107584 229.164534 
L 76.432563 241.624397 
L 76.757543 240.111954 
L 77.082523 209.772611 
L 77.407502 217.395368 
L 77.732482 195.351258 
L 78.057461 204.109881 
L 78.382441 198.330164 
L 78.70742 173.762321 
L 79.0324 181.760033 
L 79.357379 168.108718 
L 79.682359 166.350287 
L 80.007338 131.50236 
L 80.657297 115.255851 
L 80.982277 120.791355 
L 81.632236 136.993662 
L 81.957215 136.062897 
L 82.282195 137.677494 
L 82.607174 145.054978 
L 82.932154 146.27512 
L 83.257133 148.9815 
L 83.582113 144.024788 
L 83.907093 144.184588 
L 84.232072 142.536689 
L 84.557052 138.740323 
L 84.882031 133.47903 
L 85.207011 131.242916 
L 85.85697 137.614188 
L 86.181949 139.020624 
L 86.506929 141.515106 
L 86.831908 129.391212 
L 87.156888 133.084012 
L 87.806847 132.360217 
L 88.131826 135.020624 
L 88.456806 135.955925 
L 88.781785 136.081513 
L 89.106765 138.232912 
L 89.431744 132.266901 
L 89.756724 131.253502 
L 90.731663 118.792934 
L 91.056642 119.246069 
L 91.381622 120.161122 
L 91.706601 117.482169 
L 92.031581 116.562608 
L 92.35656 118.486424 
L 92.68154 117.616752 
L 93.006519 120.600454 
L 93.331499 120.128315 
L 93.656478 122.049278 
L 93.981458 122.678274 
L 94.306437 121.128964 
L 94.631417 120.801508 
L 94.956396 114.910025 
L 95.281376 116.007431 
L 95.606355 118.420048 
L 95.931335 116.906876 
L 96.581294 115.773062 
L 96.906274 116.215427 
L 97.231253 116.128882 
L 97.556233 116.610916 
L 97.881212 117.605398 
L 98.206192 114.886522 
L 98.531171 115.95967 
L 98.856151 112.793525 
L 99.18113 112.960533 
L 99.50611 114.837647 
L 99.831089 113.822162 
L 100.156069 114.062246 
L 100.481048 113.858011 
L 100.806028 114.78812 
L 101.131007 116.482596 
L 101.455987 117.286322 
L 101.780966 114.314963 
L 102.105946 114.852245 
L 102.430925 116.62487 
L 102.755905 114.237509 
L 103.080885 113.215966 
L 103.405864 114.194039 
L 103.730844 111.655473 
L 104.055823 110.631662 
L 104.380803 110.52 
L 104.705782 108.529307 
L 105.030762 109.586119 
L 105.355741 110.192973 
L 105.680721 106.154649 
L 106.0057 105.664684 
L 106.33068 105.81056 
L 106.655659 104.166367 
L 107.630598 97.584901 
L 107.955577 98.1345 
L 108.280557 99.120047 
L 108.605536 99.196429 
L 108.930516 96.96403 
L 109.255495 92.551142 
L 109.580475 91.331592 
L 109.905455 91.646019 
L 110.230434 92.424846 
L 110.880393 93.001063 
L 111.205373 92.29828 
L 111.530352 92.911783 
L 111.855332 92.953108 
L 112.505291 94.116004 
L 112.83027 91.679809 
L 113.15525 91.05416 
L 113.805209 93.088265 
L 114.455168 89.834044 
L 114.780147 89.358104 
L 115.105127 89.55694 
L 115.430106 89.061532 
L 115.755086 85.189662 
L 116.080066 86.764345 
L 116.405045 87.01571 
L 116.730025 82.962262 
L 117.055004 81.827531 
L 117.704963 82.920395 
L 118.029943 83.872769 
L 118.354922 82.948484 
L 118.679902 80.125192 
L 119.65484 80.61077 
L 119.97982 78.531031 
L 120.304799 78.134325 
L 120.629779 77.219983 
L 121.279738 76.299524 
L 121.604717 76.402377 
L 121.929697 76.909464 
L 122.254676 76.266198 
L 122.579656 77.14085 
L 123.229615 77.688071 
L 123.554595 76.309876 
L 123.879574 77.225541 
L 124.204554 77.468405 
L 124.854513 78.417847 
L 125.179492 78.068529 
L 125.829451 79.307108 
L 126.154431 79.552743 
L 126.47941 80.080492 
L 126.80439 79.617114 
L 127.129369 78.644336 
L 127.454349 79.310432 
L 127.779328 77.697528 
L 128.104308 77.622261 
L 128.429287 76.744262 
L 128.754267 73.756615 
L 129.079247 73.664471 
L 129.729206 74.41019 
L 130.054185 74.836621 
L 130.379165 72.943393 
L 130.704144 72.041914 
L 132.004062 73.514522 
L 132.329042 71.780489 
L 132.654021 71.691976 
L 132.979001 71.391735 
L 133.30398 72.290562 
L 133.62896 72.186701 
L 133.953939 72.414488 
L 135.253857 74.281426 
L 135.578837 73.517526 
L 135.903817 74.279773 
L 136.228796 74.05694 
L 136.878755 74.657763 
L 137.203735 74.243491 
L 137.528714 74.331776 
L 137.853694 73.857924 
L 138.178673 74.210284 
L 138.828632 74.342026 
L 139.478591 72.698185 
L 139.803571 72.478713 
L 140.45353 73.472253 
L 140.778509 72.658224 
L 141.103489 72.976519 
L 141.428468 70.661059 
L 142.078428 71.161035 
L 142.403407 71.977846 
L 142.728387 71.762283 
L 143.053366 72.535411 
L 143.378346 72.987709 
L 143.703325 72.521516 
L 144.353284 70.11192 
L 144.678264 70.490556 
L 145.003243 70.566137 
L 145.653202 71.539227 
L 146.303161 71.331428 
L 146.628141 69.944424 
L 146.95312 70.448631 
L 147.2781 70.375709 
L 147.603079 70.754441 
L 147.928059 70.736051 
L 148.253038 70.065025 
L 148.578018 69.096275 
L 149.227977 69.825813 
L 149.552957 70.015642 
L 149.877936 69.745275 
L 150.202916 66.514154 
L 150.527895 67.040731 
L 151.177854 67.32256 
L 151.827813 68.217552 
L 152.152793 68.185778 
L 152.477772 66.668031 
L 152.802752 65.886198 
L 153.127731 66.134688 
L 153.452711 65.75596 
L 153.77769 65.109348 
L 154.10267 65.204582 
L 154.427649 64.415165 
L 154.752629 64.353043 
L 155.077609 64.527073 
L 155.727568 65.593448 
L 156.052547 64.431167 
L 156.702506 64.729274 
L 157.027486 64.991497 
L 157.352465 64.931983 
L 157.677445 65.052522 
L 158.002424 64.428254 
L 158.327404 63.319635 
L 158.977363 64.397667 
L 159.302342 64.722273 
L 159.627322 65.327019 
L 159.952301 65.521092 
L 160.277281 66.044101 
L 160.60226 66.042541 
L 160.92724 66.238715 
L 161.252219 65.824266 
L 161.902179 64.396226 
L 162.227158 64.717417 
L 162.552138 64.094257 
L 162.877117 63.779823 
L 163.202097 64.158007 
L 163.527076 63.419017 
L 163.852056 63.687685 
L 164.177035 62.535553 
L 165.151974 63.740032 
L 165.476953 63.086283 
L 165.801933 63.659503 
L 166.126912 63.845627 
L 166.451892 64.405628 
L 166.776871 63.158777 
L 167.101851 63.410383 
L 167.42683 62.186152 
L 167.75181 61.791317 
L 168.07679 61.684544 
L 168.726749 61.762675 
L 169.051728 62.138975 
L 169.376708 61.360759 
L 169.701687 61.093603 
L 170.026667 60.426189 
L 170.351646 60.587184 
L 170.676626 60.34461 
L 171.326585 61.362239 
L 171.651564 61.440842 
L 171.976544 61.017164 
L 172.301523 60.931511 
L 172.626503 61.125175 
L 173.601441 61.14451 
L 173.926421 60.90913 
L 174.2514 61.295017 
L 174.57638 60.723602 
L 174.90136 61.197817 
L 175.226339 60.792638 
L 175.551319 60.650635 
L 175.876298 60.648096 
L 176.526257 61.138614 
L 176.851237 60.600645 
L 177.176216 60.451649 
L 177.501196 59.885406 
L 177.826175 59.871656 
L 178.151155 60.336867 
L 178.476134 60.601336 
L 178.801114 61.013019 
L 179.126093 61.091779 
L 179.451073 61.317477 
L 180.101032 61.561159 
L 180.750991 61.746346 
L 181.075971 62.193741 
L 181.72593 61.71715 
L 182.050909 62.114068 
L 182.375889 62.215853 
L 182.700868 62.633952 
L 183.350827 62.849052 
L 183.675807 62.34374 
L 184.325766 62.350071 
L 184.650745 61.326089 
L 184.975725 61.593361 
L 185.300704 61.46186 
L 185.950663 61.798725 
L 186.275643 60.992419 
L 186.600622 61.025882 
L 187.575561 61.444778 
L 187.900541 61.334571 
L 188.22552 60.699786 
L 189.525438 62.055559 
L 190.175397 62.309671 
L 190.825356 63.159258 
L 191.150336 63.460486 
L 191.475315 63.524116 
L 191.800295 62.989689 
L 192.125274 63.071817 
L 193.425192 60.745993 
L 193.750172 60.639667 
L 194.075152 60.901299 
L 194.400131 60.820168 
L 194.725111 60.966513 
L 195.05009 60.707738 
L 195.37507 60.963111 
L 196.025029 60.806256 
L 196.350008 60.42423 
L 196.674988 60.430122 
L 196.999967 60.613178 
L 197.324947 60.927296 
L 197.649926 60.244229 
L 197.974906 60.248066 
L 198.299885 60.499312 
L 198.624865 59.837142 
L 198.949844 60.023026 
L 199.274824 59.505801 
L 199.599803 59.600404 
L 200.249762 60.29707 
L 200.899722 60.790446 
L 201.224701 60.663142 
L 201.549681 60.813602 
L 202.19964 61.559983 
L 202.524619 61.235936 
L 202.849599 61.084369 
L 203.499558 60.207414 
L 203.824537 60.388428 
L 204.149517 60.433225 
L 204.474496 59.902467 
L 204.799476 60.269573 
L 205.124455 60.055906 
L 205.449435 59.482176 
L 205.774414 59.814318 
L 206.424373 59.770278 
L 206.749353 58.598667 
L 207.074333 58.856764 
L 207.399312 58.694747 
L 207.724292 58.683398 
L 208.049271 57.850857 
L 208.374251 57.943885 
L 209.02421 58.500137 
L 209.349189 58.270045 
L 209.674169 58.532892 
L 209.999148 58.284808 
L 210.649107 58.866619 
L 210.974087 58.444171 
L 211.299066 58.497076 
L 211.624046 58.809299 
L 211.949025 58.822518 
L 212.274005 58.973268 
L 212.598984 58.803411 
L 212.923964 58.442004 
L 213.248943 57.814304 
L 213.573923 57.640291 
L 213.898903 57.794833 
L 214.223882 57.040827 
L 214.548862 56.63273 
L 214.873841 56.763744 
L 215.198821 56.575823 
L 215.5238 56.884354 
L 215.84878 56.667242 
L 216.173759 56.904868 
L 216.498739 56.870432 
L 217.148698 57.453217 
L 217.473677 57.429449 
L 217.798657 57.653091 
L 218.123636 57.2196 
L 218.448616 57.008932 
L 218.773595 56.506821 
L 219.748534 57.402012 
L 220.073514 57.702231 
L 220.398493 57.288906 
L 221.048452 57.611544 
L 221.373432 56.940023 
L 221.698411 57.261824 
L 222.34837 56.363204 
L 222.67335 56.407477 
L 222.998329 56.692939 
L 223.323309 56.559081 
L 224.298247 57.262321 
L 224.948206 57.844769 
L 225.273186 57.124466 
L 225.598165 57.269049 
L 225.923145 56.89466 
L 226.248124 57.123534 
L 226.573104 57.209447 
L 227.548043 57.76865 
L 227.873022 57.947567 
L 228.198002 57.596522 
L 228.522981 57.687321 
L 228.847961 57.280132 
L 229.49792 57.870452 
L 229.822899 57.905555 
L 230.472858 58.354492 
L 230.797838 58.262976 
L 231.122817 58.344472 
L 232.747715 59.470906 
L 233.072695 59.752634 
L 233.397674 59.303244 
L 233.722654 59.289201 
L 234.697592 59.990214 
L 235.347551 59.979623 
L 235.99751 60.366199 
L 236.32249 60.284058 
L 236.972449 59.595192 
L 238.597346 60.529877 
L 238.922326 59.969878 
L 239.247305 59.775123 
L 239.897265 60.181037 
L 240.222244 60.047346 
L 240.547224 60.232355 
L 240.872203 60.027767 
L 241.197183 60.017109 
L 241.847142 60.549367 
L 242.497101 60.792141 
L 242.82208 60.243259 
L 243.472039 60.632764 
L 243.797019 60.657999 
L 244.121998 60.308703 
L 244.446978 60.274247 
L 244.771957 59.729567 
L 245.746896 60.07674 
L 246.071876 60.328047 
L 246.396855 60.394186 
L 247.371794 61.125317 
L 248.021753 61.680948 
L 248.346732 61.197968 
L 248.671712 61.280667 
L 248.996691 61.515206 
L 249.97163 61.63545 
L 250.296609 61.029436 
L 250.621589 60.728168 
L 251.271548 61.202689 
L 251.596527 61.228656 
L 252.896446 61.907649 
L 253.221425 61.349288 
L 253.546405 60.462165 
L 254.196364 60.229724 
L 254.521343 60.500184 
L 254.846323 60.166819 
L 255.171302 60.181013 
L 255.496282 59.680164 
L 255.821261 59.766575 
L 256.47122 60.219227 
L 256.7962 59.994287 
L 257.121179 59.220005 
L 257.446159 59.459305 
L 257.771138 59.121568 
L 258.096118 59.29624 
L 258.421097 59.170713 
L 258.746077 59.298186 
L 259.071057 59.563877 
L 259.396036 59.09863 
L 259.721016 58.848023 
L 260.045995 58.951565 
L 260.370975 58.760834 
L 260.695954 58.736851 
L 261.020934 58.966266 
L 261.345913 58.690164 
L 261.670893 58.809172 
L 262.320852 59.228553 
L 262.645831 59.388129 
L 262.970811 59.136685 
L 263.29579 59.446837 
L 263.62077 59.220304 
L 263.945749 59.388647 
L 264.270729 59.057777 
L 264.595708 58.404744 
L 265.245667 58.701037 
L 265.570647 57.689096 
L 265.895627 57.72152 
L 266.220606 57.966589 
L 266.545586 58.001886 
L 266.870565 58.277142 
L 267.845504 58.154784 
L 268.495463 58.306682 
L 268.820442 58.109333 
L 269.145422 57.714614 
L 269.470401 57.666792 
L 270.12036 58.045179 
L 270.44534 57.889415 
L 270.770319 57.98631 
L 271.095299 57.638533 
L 271.420278 57.673194 
L 271.745258 57.334759 
L 272.720197 57.534671 
L 273.370156 57.85294 
L 274.345094 58.214364 
L 274.670074 57.356701 
L 275.320033 57.367665 
L 275.645012 57.557818 
L 275.969992 57.293134 
L 276.94493 57.999793 
L 277.594889 57.820851 
L 278.569828 58.309911 
L 279.219787 58.139821 
L 279.869746 58.351646 
L 280.194726 58.254847 
L 280.519705 58.319207 
L 280.844685 58.509553 
L 281.169664 58.557902 
L 281.494644 58.823809 
L 282.144603 59.039504 
L 282.469582 58.843351 
L 283.119541 59.098611 
L 283.444521 58.73457 
L 285.394398 59.502128 
L 285.719378 58.804006 
L 286.694316 59.22216 
L 287.019296 58.832834 
L 287.669255 59.173477 
L 287.994234 59.041835 
L 288.319214 59.243603 
L 288.644193 58.960537 
L 289.619132 59.524437 
L 290.269091 58.918419 
L 291.244029 59.311019 
L 291.569009 59.422305 
L 292.218968 59.401253 
L 293.193907 59.846819 
L 293.843866 60.044533 
L 294.168845 59.586044 
L 294.493825 59.825209 
L 295.143784 59.184451 
L 295.793743 59.522226 
L 296.118722 59.430642 
L 297.093661 59.508011 
L 297.41864 59.323694 
L 297.74362 59.380937 
L 298.0686 58.680267 
L 298.393579 58.362567 
L 298.718559 58.545329 
L 299.043538 58.313664 
L 299.693497 58.363917 
L 300.018477 58.138856 
L 300.343456 58.321868 
L 300.993415 58.372656 
L 302.293333 58.749095 
L 303.268272 58.670063 
L 303.593251 58.414158 
L 303.918231 58.54797 
L 304.24321 58.318713 
L 304.56819 58.354574 
L 304.89317 58.5249 
L 305.218149 58.475639 
L 305.868108 58.684366 
L 306.518067 58.897926 
L 307.168026 58.81965 
L 307.493006 58.612188 
L 308.142965 58.769709 
L 308.467944 58.698025 
L 308.792924 58.952999 
L 309.117903 59.060651 
L 309.442883 59.04121 
L 310.092842 58.63624 
L 310.417821 58.75035 
L 311.067781 58.625977 
L 311.71774 58.958557 
L 312.042719 58.691653 
L 312.692678 59.003014 
L 313.342637 57.898386 
L 313.667617 58.100572 
L 314.317576 57.590367 
L 314.642555 57.702481 
L 314.967535 57.259968 
L 315.942473 57.108921 
L 316.592432 57.375278 
L 316.917412 57.153304 
L 317.242391 57.078698 
L 318.54231 57.802707 
L 318.867289 57.485872 
L 319.192269 57.40928 
L 319.842228 57.789385 
L 320.492187 58.002621 
L 320.817166 57.702815 
L 321.142146 57.786665 
L 321.467125 57.515903 
L 321.792105 57.579706 
L 322.117084 56.971433 
L 323.092023 57.36858 
L 323.417002 57.18898 
L 324.066962 57.323475 
L 324.391941 57.029131 
L 326.016839 57.47559 
L 326.666798 57.04485 
L 327.316757 57.1795 
L 327.641736 56.666813 
L 328.291695 56.79201 
L 328.616675 56.137686 
L 328.941654 56.105164 
L 329.266634 56.246079 
L 329.916593 56.358661 
L 330.241572 56.444118 
L 330.566552 56.23679 
L 330.891532 56.318489 
L 331.216511 56.025436 
L 331.541491 56.172569 
L 331.86647 56.091342 
L 332.19145 56.314204 
L 332.516429 56.287434 
L 333.166388 56.543092 
L 333.491368 56.178394 
L 334.791286 56.607058 
L 335.441245 55.854379 
L 335.766224 56.002146 
L 336.091204 55.666326 
L 336.416183 55.757212 
L 336.741163 55.374494 
L 337.066143 55.39176 
L 337.391122 54.831387 
L 337.716102 55.017855 
L 338.041081 54.860983 
L 338.366061 55.010013 
L 338.69104 54.902556 
L 339.01602 55.055894 
L 339.665979 55.069081 
L 339.990958 55.145033 
L 340.315938 54.98155 
L 340.640917 55.056164 
L 340.965897 54.858486 
L 342.265815 55.151218 
L 342.915774 54.889059 
L 343.240753 54.971046 
L 343.565733 54.881639 
L 344.540672 54.125381 
L 345.84059 54.665898 
L 346.165569 54.607683 
L 346.490549 54.755748 
L 346.815528 54.391089 
L 348.115446 54.922983 
L 348.440426 54.863845 
L 349.090385 54.257985 
L 349.415364 54.078851 
L 349.740344 53.739045 
L 350.065324 53.568 
L 350.390303 53.726875 
L 350.715283 53.698344 
L 351.365242 53.919087 
L 352.66516 54.492997 
L 352.990139 54.107919 
L 353.965078 54.642796 
L 354.290057 54.643756 
L 355.589975 55.026399 
L 355.914955 55.025366 
L 356.564914 55.275907 
L 356.889894 55.39238 
L 357.864832 54.753806 
L 359.16475 55.354618 
L 359.48973 55.440718 
L 360.139689 55.415979 
L 360.464668 55.424806 
L 361.439607 55.784716 
L 362.089566 56.018384 
L 362.414545 55.857142 
L 363.389484 55.875347 
L 364.689402 56.348078 
L 365.014382 56.100753 
L 365.664341 56.375158 
L 365.98932 56.337177 
L 367.289238 56.918886 
L 367.614218 56.694141 
L 368.589156 56.939661 
L 368.914136 56.885198 
L 369.239115 57.083238 
L 369.889075 57.117808 
L 370.214054 56.774969 
L 370.864013 56.988019 
L 371.188993 56.946268 
L 371.513972 57.114467 
L 371.838952 57.120804 
L 372.163931 57.258597 
L 372.488911 56.876442 
L 373.788829 56.963787 
L 374.438788 57.075025 
L 374.763767 56.87376 
L 375.088747 57.063898 
L 375.413726 56.749058 
L 376.063686 56.923154 
L 376.388665 56.757313 
L 377.038624 56.150435 
L 377.363604 56.021619 
L 378.338542 56.248249 
L 378.988501 56.436049 
L 379.63846 56.780625 
L 379.96344 56.762466 
L 380.288419 56.615539 
L 380.938378 56.848853 
L 381.588337 56.413097 
L 382.238296 56.655588 
L 382.563276 56.807119 
L 382.888256 56.832554 
L 383.213235 56.618044 
L 383.863194 56.034995 
L 384.838133 56.484322 
L 385.163112 56.51865 
L 385.488092 56.372257 
L 385.813071 56.351644 
L 386.46303 56.615955 
L 386.78801 56.328196 
L 387.112989 56.468536 
L 387.437969 56.481172 
L 387.762948 56.04581 
L 389.387846 56.355872 
L 389.712826 56.059479 
L 390.362785 56.191058 
L 390.687764 55.775565 
L 391.012744 55.805097 
L 391.337723 55.487998 
L 391.662703 55.490835 
L 391.987682 55.181833 
L 392.637641 55.420754 
L 392.962621 55.287788 
L 394.587518 55.435657 
L 395.237477 55.742877 
L 395.887437 55.736733 
L 396.537396 56.048567 
L 396.862375 55.961324 
L 397.837314 56.231637 
L 398.487273 56.324659 
L 398.487273 56.324659 
" style="fill:none;stroke:#ff0000;stroke-linecap:square;stroke-width:2;"/>
   </g>
   <g id="patch_3">
    <path d="M 57.6 307.584 
L 57.6 41.472 
" style="fill:none;stroke:#000000;stroke-linecap:square;stroke-linejoin:miter;stroke-width:0.8;"/>
   </g>
   <g id="patch_4">
    <path d="M 414.72 307.584 
L 414.72 41.472 
" style="fill:none;stroke:#000000;stroke-linecap:square;stroke-linejoin:miter;stroke-width:0.8;"/>
   </g>
   <g id="patch_5">
    <path d="M 57.6 307.584 
L 414.72 307.584 
" style="fill:none;stroke:#000000;stroke-linecap:square;stroke-linejoin:miter;stroke-width:0.8;"/>
   </g>
   <g id="patch_6">
    <path d="M 57.6 41.472 
L 414.72 41.472 
" style="fill:none;stroke:#000000;stroke-linecap:square;stroke-linejoin:miter;stroke-width:0.8;"/>
   </g>
  </g>
 </g>
 <defs>
  <clipPath id="p2918bfd543">
   <rect height="266.112" width="357.12" x="57.6" y="41.472"/>
  </clipPath>
 </defs>
</svg>
