<?xml version="1.0" encoding="utf-8" standalone="no"?>
<!DOCTYPE svg PUBLIC "-//W3C//DTD SVG 1.1//EN"
  "http://www.w3.org/Graphics/SVG/1.1/DTD/svg11.dtd">
<svg height="345.6pt" version="1.1" viewBox="0 0 460.8 345.6" width="460.8pt" xmlns="http://www.w3.org/2000/svg" xmlns:xlink="http://www.w3.org/1999/xlink">
 <metadata>
  <rdf:RDF xmlns:cc="http://creativecommons.org/ns#" xmlns:dc="http://purl.org/dc/elements/1.1/" xmlns:rdf="http://www.w3.org/1999/02/22-rdf-syntax-ns#">
   <cc:Work>
    <dc:type rdf:resource="http://purl.org/dc/dcmitype/StillImage"/>
    <dc:date>2023-05-14T14:22:55.506884</dc:date>
    <dc:format>image/svg+xml</dc:format>
    <dc:creator>
     <cc:Agent>
      <dc:title>Matplotlib v3.4.2, https://matplotlib.org/</dc:title>
     </cc:Agent>
    </dc:creator>
   </cc:Work>
  </rdf:RDF>
 </metadata>
 <defs>
  <style type="text/css">*{stroke-linecap:butt;stroke-linejoin:round;}</style>
 </defs>
 <g id="figure_1">
  <g id="patch_1">
   <path d="M 0 345.6 
L 460.8 345.6 
L 460.8 0 
L 0 0 
z
" style="fill:#ffffff;"/>
  </g>
  <g id="axes_1">
   <g id="patch_2">
    <path d="M 0 345.6 
L 460.8 345.6 
L 460.8 0 
L 0 0 
z
" style="fill:#ffffff;"/>
   </g>
   <g id="patch_3">
    <path clip-path="url(#pe8a3f28f8c)" d="M 0 28.8 
L 38.4 28.8 
L 38.4 0 
L 0 0 
z
"/>
   </g>
   <g id="patch_4">
    <path clip-path="url(#pe8a3f28f8c)" d="M 38.4 28.8 
L 76.8 28.8 
L 76.8 0 
L 38.4 0 
z
"/>
   </g>
   <g id="patch_5">
    <path clip-path="url(#pe8a3f28f8c)" d="M 76.8 28.8 
L 115.2 28.8 
L 115.2 0 
L 76.8 0 
z
"/>
   </g>
   <g id="patch_6">
    <path clip-path="url(#pe8a3f28f8c)" d="M 115.2 28.8 
L 153.6 28.8 
L 153.6 0 
L 115.2 0 
z
"/>
   </g>
   <g id="patch_7">
    <path clip-path="url(#pe8a3f28f8c)" d="M 153.6 28.8 
L 192 28.8 
L 192 0 
L 153.6 0 
z
"/>
   </g>
   <g id="patch_8">
    <path clip-path="url(#pe8a3f28f8c)" d="M 192 28.8 
L 230.4 28.8 
L 230.4 0 
L 192 0 
z
"/>
   </g>
   <g id="patch_9">
    <path clip-path="url(#pe8a3f28f8c)" d="M 230.4 28.8 
L 268.8 28.8 
L 268.8 0 
L 230.4 0 
z
"/>
   </g>
   <g id="patch_10">
    <path clip-path="url(#pe8a3f28f8c)" d="M 268.8 28.8 
L 307.2 28.8 
L 307.2 0 
L 268.8 0 
z
"/>
   </g>
   <g id="patch_11">
    <path clip-path="url(#pe8a3f28f8c)" d="M 307.2 28.8 
L 345.6 28.8 
L 345.6 0 
L 307.2 0 
z
"/>
   </g>
   <g id="patch_12">
    <path clip-path="url(#pe8a3f28f8c)" d="M 345.6 28.8 
L 384 28.8 
L 384 0 
L 345.6 0 
z
"/>
   </g>
   <g id="patch_13">
    <path clip-path="url(#pe8a3f28f8c)" d="M 384 28.8 
L 422.4 28.8 
L 422.4 0 
L 384 0 
z
"/>
   </g>
   <g id="patch_14">
    <path clip-path="url(#pe8a3f28f8c)" d="M 422.4 28.8 
L 460.8 28.8 
L 460.8 0 
L 422.4 0 
z
"/>
   </g>
   <g id="patch_15">
    <path clip-path="url(#pe8a3f28f8c)" d="M 0 57.6 
L 38.4 57.6 
L 38.4 28.8 
L 0 28.8 
z
"/>
   </g>
   <g id="patch_16">
    <path clip-path="url(#pe8a3f28f8c)" d="M 38.4 57.6 
L 76.8 57.6 
L 76.8 28.8 
L 38.4 28.8 
z
" style="fill:#008000;"/>
   </g>
   <g id="patch_17">
    <path clip-path="url(#pe8a3f28f8c)" d="M 76.8 57.6 
L 115.2 57.6 
L 115.2 28.8 
L 76.8 28.8 
z
"/>
   </g>
   <g id="patch_18">
    <path clip-path="url(#pe8a3f28f8c)" d="M 422.4 57.6 
L 460.8 57.6 
L 460.8 28.8 
L 422.4 28.8 
z
"/>
   </g>
   <g id="patch_19">
    <path clip-path="url(#pe8a3f28f8c)" d="M 0 86.4 
L 38.4 86.4 
L 38.4 57.6 
L 0 57.6 
z
"/>
   </g>
   <g id="patch_20">
    <path clip-path="url(#pe8a3f28f8c)" d="M 76.8 86.4 
L 115.2 86.4 
L 115.2 57.6 
L 76.8 57.6 
z
"/>
   </g>
   <g id="patch_21">
    <path clip-path="url(#pe8a3f28f8c)" d="M 153.6 86.4 
L 192 86.4 
L 192 57.6 
L 153.6 57.6 
z
"/>
   </g>
   <g id="patch_22">
    <path clip-path="url(#pe8a3f28f8c)" d="M 192 86.4 
L 230.4 86.4 
L 230.4 57.6 
L 192 57.6 
z
"/>
   </g>
   <g id="patch_23">
    <path clip-path="url(#pe8a3f28f8c)" d="M 230.4 86.4 
L 268.8 86.4 
L 268.8 57.6 
L 230.4 57.6 
z
"/>
   </g>
   <g id="patch_24">
    <path clip-path="url(#pe8a3f28f8c)" d="M 268.8 86.4 
L 307.2 86.4 
L 307.2 57.6 
L 268.8 57.6 
z
"/>
   </g>
   <g id="patch_25">
    <path clip-path="url(#pe8a3f28f8c)" d="M 307.2 86.4 
L 345.6 86.4 
L 345.6 57.6 
L 307.2 57.6 
z
"/>
   </g>
   <g id="patch_26">
    <path clip-path="url(#pe8a3f28f8c)" d="M 422.4 86.4 
L 460.8 86.4 
L 460.8 57.6 
L 422.4 57.6 
z
"/>
   </g>
   <g id="patch_27">
    <path clip-path="url(#pe8a3f28f8c)" d="M 0 115.2 
L 38.4 115.2 
L 38.4 86.4 
L 0 86.4 
z
"/>
   </g>
   <g id="patch_28">
    <path clip-path="url(#pe8a3f28f8c)" d="M 76.8 115.2 
L 115.2 115.2 
L 115.2 86.4 
L 76.8 86.4 
z
"/>
   </g>
   <g id="patch_29">
    <path clip-path="url(#pe8a3f28f8c)" d="M 307.2 115.2 
L 345.6 115.2 
L 345.6 86.4 
L 307.2 86.4 
z
"/>
   </g>
   <g id="patch_30">
    <path clip-path="url(#pe8a3f28f8c)" d="M 422.4 115.2 
L 460.8 115.2 
L 460.8 86.4 
L 422.4 86.4 
z
"/>
   </g>
   <g id="patch_31">
    <path clip-path="url(#pe8a3f28f8c)" d="M 0 144 
L 38.4 144 
L 38.4 115.2 
L 0 115.2 
z
"/>
   </g>
   <g id="patch_32">
    <path clip-path="url(#pe8a3f28f8c)" d="M 230.4 144 
L 268.8 144 
L 268.8 115.2 
L 230.4 115.2 
z
"/>
   </g>
   <g id="patch_33">
    <path clip-path="url(#pe8a3f28f8c)" d="M 307.2 144 
L 345.6 144 
L 345.6 115.2 
L 307.2 115.2 
z
"/>
   </g>
   <g id="patch_34">
    <path clip-path="url(#pe8a3f28f8c)" d="M 422.4 144 
L 460.8 144 
L 460.8 115.2 
L 422.4 115.2 
z
"/>
   </g>
   <g id="patch_35">
    <path clip-path="url(#pe8a3f28f8c)" d="M 0 172.8 
L 38.4 172.8 
L 38.4 144 
L 0 144 
z
"/>
   </g>
   <g id="patch_36">
    <path clip-path="url(#pe8a3f28f8c)" d="M 153.6 172.8 
L 192 172.8 
L 192 144 
L 153.6 144 
z
"/>
   </g>
   <g id="patch_37">
    <path clip-path="url(#pe8a3f28f8c)" d="M 192 172.8 
L 230.4 172.8 
L 230.4 144 
L 192 144 
z
"/>
   </g>
   <g id="patch_38">
    <path clip-path="url(#pe8a3f28f8c)" d="M 422.4 172.8 
L 460.8 172.8 
L 460.8 144 
L 422.4 144 
z
"/>
   </g>
   <g id="patch_39">
    <path clip-path="url(#pe8a3f28f8c)" d="M 0 201.6 
L 38.4 201.6 
L 38.4 172.8 
L 0 172.8 
z
"/>
   </g>
   <g id="patch_40">
    <path clip-path="url(#pe8a3f28f8c)" d="M 422.4 201.6 
L 460.8 201.6 
L 460.8 172.8 
L 422.4 172.8 
z
"/>
   </g>
   <g id="patch_41">
    <path clip-path="url(#pe8a3f28f8c)" d="M 0 230.4 
L 38.4 230.4 
L 38.4 201.6 
L 0 201.6 
z
"/>
   </g>
   <g id="patch_42">
    <path clip-path="url(#pe8a3f28f8c)" d="M 38.4 230.4 
L 76.8 230.4 
L 76.8 201.6 
L 38.4 201.6 
z
"/>
   </g>
   <g id="patch_43">
    <path clip-path="url(#pe8a3f28f8c)" d="M 76.8 230.4 
L 115.2 230.4 
L 115.2 201.6 
L 76.8 201.6 
z
"/>
   </g>
   <g id="patch_44">
    <path clip-path="url(#pe8a3f28f8c)" d="M 192 230.4 
L 230.4 230.4 
L 230.4 201.6 
L 192 201.6 
z
"/>
   </g>
   <g id="patch_45">
    <path clip-path="url(#pe8a3f28f8c)" d="M 307.2 230.4 
L 345.6 230.4 
L 345.6 201.6 
L 307.2 201.6 
z
"/>
   </g>
   <g id="patch_46">
    <path clip-path="url(#pe8a3f28f8c)" d="M 422.4 230.4 
L 460.8 230.4 
L 460.8 201.6 
L 422.4 201.6 
z
"/>
   </g>
   <g id="patch_47">
    <path clip-path="url(#pe8a3f28f8c)" d="M 0 259.2 
L 38.4 259.2 
L 38.4 230.4 
L 0 230.4 
z
"/>
   </g>
   <g id="patch_48">
    <path clip-path="url(#pe8a3f28f8c)" d="M 192 259.2 
L 230.4 259.2 
L 230.4 230.4 
L 192 230.4 
z
"/>
   </g>
   <g id="patch_49">
    <path clip-path="url(#pe8a3f28f8c)" d="M 230.4 259.2 
L 268.8 259.2 
L 268.8 230.4 
L 230.4 230.4 
z
"/>
   </g>
   <g id="patch_50">
    <path clip-path="url(#pe8a3f28f8c)" d="M 268.8 259.2 
L 307.2 259.2 
L 307.2 230.4 
L 268.8 230.4 
z
"/>
   </g>
   <g id="patch_51">
    <path clip-path="url(#pe8a3f28f8c)" d="M 307.2 259.2 
L 345.6 259.2 
L 345.6 230.4 
L 307.2 230.4 
z
"/>
   </g>
   <g id="patch_52">
    <path clip-path="url(#pe8a3f28f8c)" d="M 345.6 259.2 
L 384 259.2 
L 384 230.4 
L 345.6 230.4 
z
" style="fill:#ff0000;"/>
   </g>
   <g id="patch_53">
    <path clip-path="url(#pe8a3f28f8c)" d="M 422.4 259.2 
L 460.8 259.2 
L 460.8 230.4 
L 422.4 230.4 
z
"/>
   </g>
   <g id="patch_54">
    <path clip-path="url(#pe8a3f28f8c)" d="M 0 288 
L 38.4 288 
L 38.4 259.2 
L 0 259.2 
z
"/>
   </g>
   <g id="patch_55">
    <path clip-path="url(#pe8a3f28f8c)" d="M 115.2 288 
L 153.6 288 
L 153.6 259.2 
L 115.2 259.2 
z
"/>
   </g>
   <g id="patch_56">
    <path clip-path="url(#pe8a3f28f8c)" d="M 153.6 288 
L 192 288 
L 192 259.2 
L 153.6 259.2 
z
"/>
   </g>
   <g id="patch_57">
    <path clip-path="url(#pe8a3f28f8c)" d="M 384 288 
L 422.4 288 
L 422.4 259.2 
L 384 259.2 
z
"/>
   </g>
   <g id="patch_58">
    <path clip-path="url(#pe8a3f28f8c)" d="M 422.4 288 
L 460.8 288 
L 460.8 259.2 
L 422.4 259.2 
z
"/>
   </g>
   <g id="patch_59">
    <path clip-path="url(#pe8a3f28f8c)" d="M 0 316.8 
L 38.4 316.8 
L 38.4 288 
L 0 288 
z
"/>
   </g>
   <g id="patch_60">
    <path clip-path="url(#pe8a3f28f8c)" d="M 422.4 316.8 
L 460.8 316.8 
L 460.8 288 
L 422.4 288 
z
"/>
   </g>
   <g id="patch_61">
    <path clip-path="url(#pe8a3f28f8c)" d="M 0 345.6 
L 38.4 345.6 
L 38.4 316.8 
L 0 316.8 
z
"/>
   </g>
   <g id="patch_62">
    <path clip-path="url(#pe8a3f28f8c)" d="M 38.4 345.6 
L 76.8 345.6 
L 76.8 316.8 
L 38.4 316.8 
z
"/>
   </g>
   <g id="patch_63">
    <path clip-path="url(#pe8a3f28f8c)" d="M 76.8 345.6 
L 115.2 345.6 
L 115.2 316.8 
L 76.8 316.8 
z
"/>
   </g>
   <g id="patch_64">
    <path clip-path="url(#pe8a3f28f8c)" d="M 115.2 345.6 
L 153.6 345.6 
L 153.6 316.8 
L 115.2 316.8 
z
"/>
   </g>
   <g id="patch_65">
    <path clip-path="url(#pe8a3f28f8c)" d="M 153.6 345.6 
L 192 345.6 
L 192 316.8 
L 153.6 316.8 
z
"/>
   </g>
   <g id="patch_66">
    <path clip-path="url(#pe8a3f28f8c)" d="M 192 345.6 
L 230.4 345.6 
L 230.4 316.8 
L 192 316.8 
z
"/>
   </g>
   <g id="patch_67">
    <path clip-path="url(#pe8a3f28f8c)" d="M 230.4 345.6 
L 268.8 345.6 
L 268.8 316.8 
L 230.4 316.8 
z
"/>
   </g>
   <g id="patch_68">
    <path clip-path="url(#pe8a3f28f8c)" d="M 268.8 345.6 
L 307.2 345.6 
L 307.2 316.8 
L 268.8 316.8 
z
"/>
   </g>
   <g id="patch_69">
    <path clip-path="url(#pe8a3f28f8c)" d="M 307.2 345.6 
L 345.6 345.6 
L 345.6 316.8 
L 307.2 316.8 
z
"/>
   </g>
   <g id="patch_70">
    <path clip-path="url(#pe8a3f28f8c)" d="M 345.6 345.6 
L 384 345.6 
L 384 316.8 
L 345.6 316.8 
z
"/>
   </g>
   <g id="patch_71">
    <path clip-path="url(#pe8a3f28f8c)" d="M 384 345.6 
L 422.4 345.6 
L 422.4 316.8 
L 384 316.8 
z
"/>
   </g>
   <g id="patch_72">
    <path clip-path="url(#pe8a3f28f8c)" d="M 422.4 345.6 
L 460.8 345.6 
L 460.8 316.8 
L 422.4 316.8 
z
"/>
   </g>
   <g id="patch_73">
    <path clip-path="url(#pe8a3f28f8c)" d="M 57.6 50.4 
L 55.296 45.216 
L 56.832 45.216 
L 56.832 36 
L 58.368 36 
L 58.368 45.216 
L 59.904 45.216 
z
" style="stroke:#000000;stroke-linejoin:miter;"/>
   </g>
   <g id="patch_74">
    <path clip-path="url(#pe8a3f28f8c)" d="M 134.4 50.4 
L 132.096 45.216 
L 133.632 45.216 
L 133.632 36 
L 135.168 36 
L 135.168 45.216 
L 136.704 45.216 
z
" style="stroke:#000000;stroke-linejoin:miter;"/>
   </g>
   <g id="patch_75">
    <path clip-path="url(#pe8a3f28f8c)" d="M 182.4 43.2 
L 175.488 44.928 
L 175.488 43.776 
L 163.2 43.776 
L 163.2 42.624 
L 175.488 42.624 
L 175.488 41.472 
z
" style="stroke:#000000;stroke-linejoin:miter;"/>
   </g>
   <g id="patch_76">
    <path clip-path="url(#pe8a3f28f8c)" d="M 220.8 43.2 
L 213.888 44.928 
L 213.888 43.776 
L 201.6 43.776 
L 201.6 42.624 
L 213.888 42.624 
L 213.888 41.472 
z
" style="stroke:#000000;stroke-linejoin:miter;"/>
   </g>
   <g id="patch_77">
    <path clip-path="url(#pe8a3f28f8c)" d="M 259.2 43.2 
L 252.288 44.928 
L 252.288 43.776 
L 240 43.776 
L 240 42.624 
L 252.288 42.624 
L 252.288 41.472 
z
" style="stroke:#000000;stroke-linejoin:miter;"/>
   </g>
   <g id="patch_78">
    <path clip-path="url(#pe8a3f28f8c)" d="M 297.6 43.2 
L 290.688 44.928 
L 290.688 43.776 
L 278.4 43.776 
L 278.4 42.624 
L 290.688 42.624 
L 290.688 41.472 
z
" style="stroke:#000000;stroke-linejoin:miter;"/>
   </g>
   <g id="patch_79">
    <path clip-path="url(#pe8a3f28f8c)" d="M 336 43.2 
L 329.088 44.928 
L 329.088 43.776 
L 316.8 43.776 
L 316.8 42.624 
L 329.088 42.624 
L 329.088 41.472 
z
" style="stroke:#000000;stroke-linejoin:miter;"/>
   </g>
   <g id="patch_80">
    <path clip-path="url(#pe8a3f28f8c)" d="M 364.8 50.4 
L 362.496 45.216 
L 364.032 45.216 
L 364.032 36 
L 365.568 36 
L 365.568 45.216 
L 367.104 45.216 
z
" style="stroke:#000000;stroke-linejoin:miter;"/>
   </g>
   <g id="patch_81">
    <path clip-path="url(#pe8a3f28f8c)" d="M 393.6 43.2 
L 400.512 41.472 
L 400.512 42.624 
L 412.8 42.624 
L 412.8 43.776 
L 400.512 43.776 
L 400.512 44.928 
z
" style="stroke:#000000;stroke-linejoin:miter;"/>
   </g>
   <g id="patch_82">
    <path clip-path="url(#pe8a3f28f8c)" d="M 57.6 79.2 
L 55.296 74.016 
L 56.832 74.016 
L 56.832 64.8 
L 58.368 64.8 
L 58.368 74.016 
L 59.904 74.016 
z
" style="stroke:#000000;stroke-linejoin:miter;"/>
   </g>
   <g id="patch_83">
    <path clip-path="url(#pe8a3f28f8c)" d="M 134.4 79.2 
L 132.096 74.016 
L 133.632 74.016 
L 133.632 64.8 
L 135.168 64.8 
L 135.168 74.016 
L 136.704 74.016 
z
" style="stroke:#000000;stroke-linejoin:miter;"/>
   </g>
   <g id="patch_84">
    <path clip-path="url(#pe8a3f28f8c)" d="M 364.8 79.2 
L 362.496 74.016 
L 364.032 74.016 
L 364.032 64.8 
L 365.568 64.8 
L 365.568 74.016 
L 367.104 74.016 
z
" style="stroke:#000000;stroke-linejoin:miter;"/>
   </g>
   <g id="patch_85">
    <path clip-path="url(#pe8a3f28f8c)" d="M 403.2 79.2 
L 400.896 74.016 
L 402.432 74.016 
L 402.432 64.8 
L 403.968 64.8 
L 403.968 74.016 
L 405.504 74.016 
z
" style="stroke:#000000;stroke-linejoin:miter;"/>
   </g>
   <g id="patch_86">
    <path clip-path="url(#pe8a3f28f8c)" d="M 57.6 108 
L 55.296 102.816 
L 56.832 102.816 
L 56.832 93.6 
L 58.368 93.6 
L 58.368 102.816 
L 59.904 102.816 
z
" style="stroke:#000000;stroke-linejoin:miter;"/>
   </g>
   <g id="patch_87">
    <path clip-path="url(#pe8a3f28f8c)" d="M 134.4 108 
L 132.096 102.816 
L 133.632 102.816 
L 133.632 93.6 
L 135.168 93.6 
L 135.168 102.816 
L 136.704 102.816 
z
" style="stroke:#000000;stroke-linejoin:miter;"/>
   </g>
   <g id="patch_88">
    <path clip-path="url(#pe8a3f28f8c)" d="M 182.4 100.8 
L 175.488 102.528 
L 175.488 101.376 
L 163.2 101.376 
L 163.2 100.224 
L 175.488 100.224 
L 175.488 99.072 
z
" style="stroke:#000000;stroke-linejoin:miter;"/>
   </g>
   <g id="patch_89">
    <path clip-path="url(#pe8a3f28f8c)" d="M 220.8 100.8 
L 213.888 102.528 
L 213.888 101.376 
L 201.6 101.376 
L 201.6 100.224 
L 213.888 100.224 
L 213.888 99.072 
z
" style="stroke:#000000;stroke-linejoin:miter;"/>
   </g>
   <g id="patch_90">
    <path clip-path="url(#pe8a3f28f8c)" d="M 259.2 100.8 
L 252.288 102.528 
L 252.288 101.376 
L 240 101.376 
L 240 100.224 
L 252.288 100.224 
L 252.288 99.072 
z
" style="stroke:#000000;stroke-linejoin:miter;"/>
   </g>
   <g id="patch_91">
    <path clip-path="url(#pe8a3f28f8c)" d="M 288 108 
L 285.696 102.816 
L 287.232 102.816 
L 287.232 93.6 
L 288.768 93.6 
L 288.768 102.816 
L 290.304 102.816 
z
" style="stroke:#000000;stroke-linejoin:miter;"/>
   </g>
   <g id="patch_92">
    <path clip-path="url(#pe8a3f28f8c)" d="M 364.8 108 
L 362.496 102.816 
L 364.032 102.816 
L 364.032 93.6 
L 365.568 93.6 
L 365.568 102.816 
L 367.104 102.816 
z
" style="stroke:#000000;stroke-linejoin:miter;"/>
   </g>
   <g id="patch_93">
    <path clip-path="url(#pe8a3f28f8c)" d="M 403.2 108 
L 400.896 102.816 
L 402.432 102.816 
L 402.432 93.6 
L 403.968 93.6 
L 403.968 102.816 
L 405.504 102.816 
z
" style="stroke:#000000;stroke-linejoin:miter;"/>
   </g>
   <g id="patch_94">
    <path clip-path="url(#pe8a3f28f8c)" d="M 57.6 136.8 
L 55.296 131.616 
L 56.832 131.616 
L 56.832 122.4 
L 58.368 122.4 
L 58.368 131.616 
L 59.904 131.616 
z
" style="stroke:#000000;stroke-linejoin:miter;"/>
   </g>
   <g id="patch_95">
    <path clip-path="url(#pe8a3f28f8c)" d="M 105.6 129.6 
L 98.688 131.328 
L 98.688 130.176 
L 86.4 130.176 
L 86.4 129.024 
L 98.688 129.024 
L 98.688 127.872 
z
" style="stroke:#000000;stroke-linejoin:miter;"/>
   </g>
   <g id="patch_96">
    <path clip-path="url(#pe8a3f28f8c)" d="M 134.4 136.8 
L 132.096 131.616 
L 133.632 131.616 
L 133.632 122.4 
L 135.168 122.4 
L 135.168 131.616 
L 136.704 131.616 
z
" style="stroke:#000000;stroke-linejoin:miter;"/>
   </g>
   <g id="patch_97">
    <path clip-path="url(#pe8a3f28f8c)" d="M 182.4 129.6 
L 175.488 131.328 
L 175.488 130.176 
L 163.2 130.176 
L 163.2 129.024 
L 175.488 129.024 
L 175.488 127.872 
z
" style="stroke:#000000;stroke-linejoin:miter;"/>
   </g>
   <g id="patch_98">
    <path clip-path="url(#pe8a3f28f8c)" d="M 211.2 122.4 
L 213.504 127.584 
L 211.968 127.584 
L 211.968 136.8 
L 210.432 136.8 
L 210.432 127.584 
L 208.896 127.584 
z
" style="stroke:#000000;stroke-linejoin:miter;"/>
   </g>
   <g id="patch_99">
    <path clip-path="url(#pe8a3f28f8c)" d="M 288 136.8 
L 285.696 131.616 
L 287.232 131.616 
L 287.232 122.4 
L 288.768 122.4 
L 288.768 131.616 
L 290.304 131.616 
z
" style="stroke:#000000;stroke-linejoin:miter;"/>
   </g>
   <g id="patch_100">
    <path clip-path="url(#pe8a3f28f8c)" d="M 364.8 136.8 
L 362.496 131.616 
L 364.032 131.616 
L 364.032 122.4 
L 365.568 122.4 
L 365.568 131.616 
L 367.104 131.616 
z
" style="stroke:#000000;stroke-linejoin:miter;"/>
   </g>
   <g id="patch_101">
    <path clip-path="url(#pe8a3f28f8c)" d="M 393.6 129.6 
L 400.512 127.872 
L 400.512 129.024 
L 412.8 129.024 
L 412.8 130.176 
L 400.512 130.176 
L 400.512 131.328 
z
" style="stroke:#000000;stroke-linejoin:miter;"/>
   </g>
   <g id="patch_102">
    <path clip-path="url(#pe8a3f28f8c)" d="M 57.6 165.6 
L 55.296 160.416 
L 56.832 160.416 
L 56.832 151.2 
L 58.368 151.2 
L 58.368 160.416 
L 59.904 160.416 
z
" style="stroke:#000000;stroke-linejoin:miter;"/>
   </g>
   <g id="patch_103">
    <path clip-path="url(#pe8a3f28f8c)" d="M 105.6 158.4 
L 98.688 160.128 
L 98.688 158.976 
L 86.4 158.976 
L 86.4 157.824 
L 98.688 157.824 
L 98.688 156.672 
z
" style="stroke:#000000;stroke-linejoin:miter;"/>
   </g>
   <g id="patch_104">
    <path clip-path="url(#pe8a3f28f8c)" d="M 134.4 165.6 
L 132.096 160.416 
L 133.632 160.416 
L 133.632 151.2 
L 135.168 151.2 
L 135.168 160.416 
L 136.704 160.416 
z
" style="stroke:#000000;stroke-linejoin:miter;"/>
   </g>
   <g id="patch_105">
    <path clip-path="url(#pe8a3f28f8c)" d="M 249.6 165.6 
L 247.296 160.416 
L 248.832 160.416 
L 248.832 151.2 
L 250.368 151.2 
L 250.368 160.416 
L 251.904 160.416 
z
" style="stroke:#000000;stroke-linejoin:miter;"/>
   </g>
   <g id="patch_106">
    <path clip-path="url(#pe8a3f28f8c)" d="M 297.6 158.4 
L 290.688 160.128 
L 290.688 158.976 
L 278.4 158.976 
L 278.4 157.824 
L 290.688 157.824 
L 290.688 156.672 
z
" style="stroke:#000000;stroke-linejoin:miter;"/>
   </g>
   <g id="patch_107">
    <path clip-path="url(#pe8a3f28f8c)" d="M 326.4 165.6 
L 324.096 160.416 
L 325.632 160.416 
L 325.632 151.2 
L 327.168 151.2 
L 327.168 160.416 
L 328.704 160.416 
z
" style="stroke:#000000;stroke-linejoin:miter;"/>
   </g>
   <g id="patch_108">
    <path clip-path="url(#pe8a3f28f8c)" d="M 364.8 165.6 
L 362.496 160.416 
L 364.032 160.416 
L 364.032 151.2 
L 365.568 151.2 
L 365.568 160.416 
L 367.104 160.416 
z
" style="stroke:#000000;stroke-linejoin:miter;"/>
   </g>
   <g id="patch_109">
    <path clip-path="url(#pe8a3f28f8c)" d="M 393.6 158.4 
L 400.512 156.672 
L 400.512 157.824 
L 412.8 157.824 
L 412.8 158.976 
L 400.512 158.976 
L 400.512 160.128 
z
" style="stroke:#000000;stroke-linejoin:miter;"/>
   </g>
   <g id="patch_110">
    <path clip-path="url(#pe8a3f28f8c)" d="M 67.2 187.2 
L 60.288 188.928 
L 60.288 187.776 
L 48 187.776 
L 48 186.624 
L 60.288 186.624 
L 60.288 185.472 
z
" style="stroke:#000000;stroke-linejoin:miter;"/>
   </g>
   <g id="patch_111">
    <path clip-path="url(#pe8a3f28f8c)" d="M 105.6 187.2 
L 98.688 188.928 
L 98.688 187.776 
L 86.4 187.776 
L 86.4 186.624 
L 98.688 186.624 
L 98.688 185.472 
z
" style="stroke:#000000;stroke-linejoin:miter;"/>
   </g>
   <g id="patch_112">
    <path clip-path="url(#pe8a3f28f8c)" d="M 144 187.2 
L 137.088 188.928 
L 137.088 187.776 
L 124.8 187.776 
L 124.8 186.624 
L 137.088 186.624 
L 137.088 185.472 
z
" style="stroke:#000000;stroke-linejoin:miter;"/>
   </g>
   <g id="patch_113">
    <path clip-path="url(#pe8a3f28f8c)" d="M 182.4 187.2 
L 175.488 188.928 
L 175.488 187.776 
L 163.2 187.776 
L 163.2 186.624 
L 175.488 186.624 
L 175.488 185.472 
z
" style="stroke:#000000;stroke-linejoin:miter;"/>
   </g>
   <g id="patch_114">
    <path clip-path="url(#pe8a3f28f8c)" d="M 220.8 187.2 
L 213.888 188.928 
L 213.888 187.776 
L 201.6 187.776 
L 201.6 186.624 
L 213.888 186.624 
L 213.888 185.472 
z
" style="stroke:#000000;stroke-linejoin:miter;"/>
   </g>
   <g id="patch_115">
    <path clip-path="url(#pe8a3f28f8c)" d="M 259.2 187.2 
L 252.288 188.928 
L 252.288 187.776 
L 240 187.776 
L 240 186.624 
L 252.288 186.624 
L 252.288 185.472 
z
" style="stroke:#000000;stroke-linejoin:miter;"/>
   </g>
   <g id="patch_116">
    <path clip-path="url(#pe8a3f28f8c)" d="M 297.6 187.2 
L 290.688 188.928 
L 290.688 187.776 
L 278.4 187.776 
L 278.4 186.624 
L 290.688 186.624 
L 290.688 185.472 
z
" style="stroke:#000000;stroke-linejoin:miter;"/>
   </g>
   <g id="patch_117">
    <path clip-path="url(#pe8a3f28f8c)" d="M 336 187.2 
L 329.088 188.928 
L 329.088 187.776 
L 316.8 187.776 
L 316.8 186.624 
L 329.088 186.624 
L 329.088 185.472 
z
" style="stroke:#000000;stroke-linejoin:miter;"/>
   </g>
   <g id="patch_118">
    <path clip-path="url(#pe8a3f28f8c)" d="M 364.8 194.4 
L 362.496 189.216 
L 364.032 189.216 
L 364.032 180 
L 365.568 180 
L 365.568 189.216 
L 367.104 189.216 
z
" style="stroke:#000000;stroke-linejoin:miter;"/>
   </g>
   <g id="patch_119">
    <path clip-path="url(#pe8a3f28f8c)" d="M 403.2 180 
L 405.504 185.184 
L 403.968 185.184 
L 403.968 194.4 
L 402.432 194.4 
L 402.432 185.184 
L 400.896 185.184 
z
" style="stroke:#000000;stroke-linejoin:miter;"/>
   </g>
   <g id="patch_120">
    <path clip-path="url(#pe8a3f28f8c)" d="M 134.4 208.8 
L 136.704 213.984 
L 135.168 213.984 
L 135.168 223.2 
L 133.632 223.2 
L 133.632 213.984 
L 132.096 213.984 
z
" style="stroke:#000000;stroke-linejoin:miter;"/>
   </g>
   <g id="patch_121">
    <path clip-path="url(#pe8a3f28f8c)" d="M 172.8 208.8 
L 175.104 213.984 
L 173.568 213.984 
L 173.568 223.2 
L 172.032 223.2 
L 172.032 213.984 
L 170.496 213.984 
z
" style="stroke:#000000;stroke-linejoin:miter;"/>
   </g>
   <g id="patch_122">
    <path clip-path="url(#pe8a3f28f8c)" d="M 249.6 208.8 
L 251.904 213.984 
L 250.368 213.984 
L 250.368 223.2 
L 248.832 223.2 
L 248.832 213.984 
L 247.296 213.984 
z
" style="stroke:#000000;stroke-linejoin:miter;"/>
   </g>
   <g id="patch_123">
    <path clip-path="url(#pe8a3f28f8c)" d="M 288 208.8 
L 290.304 213.984 
L 288.768 213.984 
L 288.768 223.2 
L 287.232 223.2 
L 287.232 213.984 
L 285.696 213.984 
z
" style="stroke:#000000;stroke-linejoin:miter;"/>
   </g>
   <g id="patch_124">
    <path clip-path="url(#pe8a3f28f8c)" d="M 364.8 223.2 
L 362.496 218.016 
L 364.032 218.016 
L 364.032 208.8 
L 365.568 208.8 
L 365.568 218.016 
L 367.104 218.016 
z
" style="stroke:#000000;stroke-linejoin:miter;"/>
   </g>
   <g id="patch_125">
    <path clip-path="url(#pe8a3f28f8c)" d="M 393.6 216 
L 400.512 214.272 
L 400.512 215.424 
L 412.8 215.424 
L 412.8 216.576 
L 400.512 216.576 
L 400.512 217.728 
z
" style="stroke:#000000;stroke-linejoin:miter;"/>
   </g>
   <g id="patch_126">
    <path clip-path="url(#pe8a3f28f8c)" d="M 67.2 244.8 
L 60.288 246.528 
L 60.288 245.376 
L 48 245.376 
L 48 244.224 
L 60.288 244.224 
L 60.288 243.072 
z
" style="stroke:#000000;stroke-linejoin:miter;"/>
   </g>
   <g id="patch_127">
    <path clip-path="url(#pe8a3f28f8c)" d="M 105.6 244.8 
L 98.688 246.528 
L 98.688 245.376 
L 86.4 245.376 
L 86.4 244.224 
L 98.688 244.224 
L 98.688 243.072 
z
" style="stroke:#000000;stroke-linejoin:miter;"/>
   </g>
   <g id="patch_128">
    <path clip-path="url(#pe8a3f28f8c)" d="M 144 244.8 
L 137.088 246.528 
L 137.088 245.376 
L 124.8 245.376 
L 124.8 244.224 
L 137.088 244.224 
L 137.088 243.072 
z
" style="stroke:#000000;stroke-linejoin:miter;"/>
   </g>
   <g id="patch_129">
    <path clip-path="url(#pe8a3f28f8c)" d="M 172.8 237.6 
L 175.104 242.784 
L 173.568 242.784 
L 173.568 252 
L 172.032 252 
L 172.032 242.784 
L 170.496 242.784 
z
" style="stroke:#000000;stroke-linejoin:miter;"/>
   </g>
   <g id="patch_130">
    <path clip-path="url(#pe8a3f28f8c)" d="M 393.6 244.8 
L 400.512 243.072 
L 400.512 244.224 
L 412.8 244.224 
L 412.8 245.376 
L 400.512 245.376 
L 400.512 246.528 
z
" style="stroke:#000000;stroke-linejoin:miter;"/>
   </g>
   <g id="patch_131">
    <path clip-path="url(#pe8a3f28f8c)" d="M 67.2 273.6 
L 60.288 275.328 
L 60.288 274.176 
L 48 274.176 
L 48 273.024 
L 60.288 273.024 
L 60.288 271.872 
z
" style="stroke:#000000;stroke-linejoin:miter;"/>
   </g>
   <g id="patch_132">
    <path clip-path="url(#pe8a3f28f8c)" d="M 96 266.4 
L 98.304 271.584 
L 96.768 271.584 
L 96.768 280.8 
L 95.232 280.8 
L 95.232 271.584 
L 93.696 271.584 
z
" style="stroke:#000000;stroke-linejoin:miter;"/>
   </g>
   <g id="patch_133">
    <path clip-path="url(#pe8a3f28f8c)" d="M 220.8 273.6 
L 213.888 275.328 
L 213.888 274.176 
L 201.6 274.176 
L 201.6 273.024 
L 213.888 273.024 
L 213.888 271.872 
z
" style="stroke:#000000;stroke-linejoin:miter;"/>
   </g>
   <g id="patch_134">
    <path clip-path="url(#pe8a3f28f8c)" d="M 259.2 273.6 
L 252.288 275.328 
L 252.288 274.176 
L 240 274.176 
L 240 273.024 
L 252.288 273.024 
L 252.288 271.872 
z
" style="stroke:#000000;stroke-linejoin:miter;"/>
   </g>
   <g id="patch_135">
    <path clip-path="url(#pe8a3f28f8c)" d="M 297.6 273.6 
L 290.688 275.328 
L 290.688 274.176 
L 278.4 274.176 
L 278.4 273.024 
L 290.688 273.024 
L 290.688 271.872 
z
" style="stroke:#000000;stroke-linejoin:miter;"/>
   </g>
   <g id="patch_136">
    <path clip-path="url(#pe8a3f28f8c)" d="M 336 273.6 
L 329.088 275.328 
L 329.088 274.176 
L 316.8 274.176 
L 316.8 273.024 
L 329.088 273.024 
L 329.088 271.872 
z
" style="stroke:#000000;stroke-linejoin:miter;"/>
   </g>
   <g id="patch_137">
    <path clip-path="url(#pe8a3f28f8c)" d="M 364.8 266.4 
L 367.104 271.584 
L 365.568 271.584 
L 365.568 280.8 
L 364.032 280.8 
L 364.032 271.584 
L 362.496 271.584 
z
" style="stroke:#000000;stroke-linejoin:miter;"/>
   </g>
   <g id="patch_138">
    <path clip-path="url(#pe8a3f28f8c)" d="M 67.2 302.4 
L 60.288 304.128 
L 60.288 302.976 
L 48 302.976 
L 48 301.824 
L 60.288 301.824 
L 60.288 300.672 
z
" style="stroke:#000000;stroke-linejoin:miter;"/>
   </g>
   <g id="patch_139">
    <path clip-path="url(#pe8a3f28f8c)" d="M 105.6 302.4 
L 98.688 304.128 
L 98.688 302.976 
L 86.4 302.976 
L 86.4 301.824 
L 98.688 301.824 
L 98.688 300.672 
z
" style="stroke:#000000;stroke-linejoin:miter;"/>
   </g>
   <g id="patch_140">
    <path clip-path="url(#pe8a3f28f8c)" d="M 144 302.4 
L 137.088 304.128 
L 137.088 302.976 
L 124.8 302.976 
L 124.8 301.824 
L 137.088 301.824 
L 137.088 300.672 
z
" style="stroke:#000000;stroke-linejoin:miter;"/>
   </g>
   <g id="patch_141">
    <path clip-path="url(#pe8a3f28f8c)" d="M 182.4 302.4 
L 175.488 304.128 
L 175.488 302.976 
L 163.2 302.976 
L 163.2 301.824 
L 175.488 301.824 
L 175.488 300.672 
z
" style="stroke:#000000;stroke-linejoin:miter;"/>
   </g>
   <g id="patch_142">
    <path clip-path="url(#pe8a3f28f8c)" d="M 220.8 302.4 
L 213.888 304.128 
L 213.888 302.976 
L 201.6 302.976 
L 201.6 301.824 
L 213.888 301.824 
L 213.888 300.672 
z
" style="stroke:#000000;stroke-linejoin:miter;"/>
   </g>
   <g id="patch_143">
    <path clip-path="url(#pe8a3f28f8c)" d="M 259.2 302.4 
L 252.288 304.128 
L 252.288 302.976 
L 240 302.976 
L 240 301.824 
L 252.288 301.824 
L 252.288 300.672 
z
" style="stroke:#000000;stroke-linejoin:miter;"/>
   </g>
   <g id="patch_144">
    <path clip-path="url(#pe8a3f28f8c)" d="M 288 295.2 
L 290.304 300.384 
L 288.768 300.384 
L 288.768 309.6 
L 287.232 309.6 
L 287.232 300.384 
L 285.696 300.384 
z
" style="stroke:#000000;stroke-linejoin:miter;"/>
   </g>
   <g id="patch_145">
    <path clip-path="url(#pe8a3f28f8c)" d="M 326.4 295.2 
L 328.704 300.384 
L 327.168 300.384 
L 327.168 309.6 
L 325.632 309.6 
L 325.632 300.384 
L 324.096 300.384 
z
" style="stroke:#000000;stroke-linejoin:miter;"/>
   </g>
   <g id="patch_146">
    <path clip-path="url(#pe8a3f28f8c)" d="M 364.8 295.2 
L 367.104 300.384 
L 365.568 300.384 
L 365.568 309.6 
L 364.032 309.6 
L 364.032 300.384 
L 362.496 300.384 
z
" style="stroke:#000000;stroke-linejoin:miter;"/>
   </g>
   <g id="patch_147">
    <path clip-path="url(#pe8a3f28f8c)" d="M 393.6 302.4 
L 400.512 300.672 
L 400.512 301.824 
L 412.8 301.824 
L 412.8 302.976 
L 400.512 302.976 
L 400.512 304.128 
z
" style="stroke:#000000;stroke-linejoin:miter;"/>
   </g>
   <g id="matplotlib.axis_1"/>
   <g id="matplotlib.axis_2"/>
   <g id="line2d_1">
    <path clip-path="url(#pe8a3f28f8c)" d="M 0 345.6 
L 460.8 345.6 
" style="fill:none;stroke:#000000;stroke-linecap:square;"/>
   </g>
   <g id="line2d_2">
    <path clip-path="url(#pe8a3f28f8c)" d="M 0 316.8 
L 460.8 316.8 
" style="fill:none;stroke:#000000;stroke-linecap:square;"/>
   </g>
   <g id="line2d_3">
    <path clip-path="url(#pe8a3f28f8c)" d="M 0 288 
L 460.8 288 
" style="fill:none;stroke:#000000;stroke-linecap:square;"/>
   </g>
   <g id="line2d_4">
    <path clip-path="url(#pe8a3f28f8c)" d="M 0 259.2 
L 460.8 259.2 
" style="fill:none;stroke:#000000;stroke-linecap:square;"/>
   </g>
   <g id="line2d_5">
    <path clip-path="url(#pe8a3f28f8c)" d="M 0 230.4 
L 460.8 230.4 
" style="fill:none;stroke:#000000;stroke-linecap:square;"/>
   </g>
   <g id="line2d_6">
    <path clip-path="url(#pe8a3f28f8c)" d="M 0 201.6 
L 460.8 201.6 
" style="fill:none;stroke:#000000;stroke-linecap:square;"/>
   </g>
   <g id="line2d_7">
    <path clip-path="url(#pe8a3f28f8c)" d="M 0 172.8 
L 460.8 172.8 
" style="fill:none;stroke:#000000;stroke-linecap:square;"/>
   </g>
   <g id="line2d_8">
    <path clip-path="url(#pe8a3f28f8c)" d="M 0 144 
L 460.8 144 
" style="fill:none;stroke:#000000;stroke-linecap:square;"/>
   </g>
   <g id="line2d_9">
    <path clip-path="url(#pe8a3f28f8c)" d="M 0 115.2 
L 460.8 115.2 
" style="fill:none;stroke:#000000;stroke-linecap:square;"/>
   </g>
   <g id="line2d_10">
    <path clip-path="url(#pe8a3f28f8c)" d="M 0 86.4 
L 460.8 86.4 
" style="fill:none;stroke:#000000;stroke-linecap:square;"/>
   </g>
   <g id="line2d_11">
    <path clip-path="url(#pe8a3f28f8c)" d="M 0 57.6 
L 460.8 57.6 
" style="fill:none;stroke:#000000;stroke-linecap:square;"/>
   </g>
   <g id="line2d_12">
    <path clip-path="url(#pe8a3f28f8c)" d="M 0 28.8 
L 460.8 28.8 
" style="fill:none;stroke:#000000;stroke-linecap:square;"/>
   </g>
   <g id="line2d_13">
    <path clip-path="url(#pe8a3f28f8c)" d="M 0 345.6 
L 0 0 
" style="fill:none;stroke:#000000;stroke-linecap:square;"/>
   </g>
   <g id="line2d_14">
    <path clip-path="url(#pe8a3f28f8c)" d="M 38.4 345.6 
L 38.4 0 
" style="fill:none;stroke:#000000;stroke-linecap:square;"/>
   </g>
   <g id="line2d_15">
    <path clip-path="url(#pe8a3f28f8c)" d="M 76.8 345.6 
L 76.8 0 
" style="fill:none;stroke:#000000;stroke-linecap:square;"/>
   </g>
   <g id="line2d_16">
    <path clip-path="url(#pe8a3f28f8c)" d="M 115.2 345.6 
L 115.2 0 
" style="fill:none;stroke:#000000;stroke-linecap:square;"/>
   </g>
   <g id="line2d_17">
    <path clip-path="url(#pe8a3f28f8c)" d="M 153.6 345.6 
L 153.6 0 
" style="fill:none;stroke:#000000;stroke-linecap:square;"/>
   </g>
   <g id="line2d_18">
    <path clip-path="url(#pe8a3f28f8c)" d="M 192 345.6 
L 192 0 
" style="fill:none;stroke:#000000;stroke-linecap:square;"/>
   </g>
   <g id="line2d_19">
    <path clip-path="url(#pe8a3f28f8c)" d="M 230.4 345.6 
L 230.4 0 
" style="fill:none;stroke:#000000;stroke-linecap:square;"/>
   </g>
   <g id="line2d_20">
    <path clip-path="url(#pe8a3f28f8c)" d="M 268.8 345.6 
L 268.8 0 
" style="fill:none;stroke:#000000;stroke-linecap:square;"/>
   </g>
   <g id="line2d_21">
    <path clip-path="url(#pe8a3f28f8c)" d="M 307.2 345.6 
L 307.2 0 
" style="fill:none;stroke:#000000;stroke-linecap:square;"/>
   </g>
   <g id="line2d_22">
    <path clip-path="url(#pe8a3f28f8c)" d="M 345.6 345.6 
L 345.6 0 
" style="fill:none;stroke:#000000;stroke-linecap:square;"/>
   </g>
   <g id="line2d_23">
    <path clip-path="url(#pe8a3f28f8c)" d="M 384 345.6 
L 384 0 
" style="fill:none;stroke:#000000;stroke-linecap:square;"/>
   </g>
   <g id="line2d_24">
    <path clip-path="url(#pe8a3f28f8c)" d="M 422.4 345.6 
L 422.4 0 
" style="fill:none;stroke:#000000;stroke-linecap:square;"/>
   </g>
   <g id="patch_148">
    <path d="M 0 345.6 
L 0 0 
" style="fill:none;stroke:#000000;stroke-linecap:square;stroke-linejoin:miter;stroke-width:0.8;"/>
   </g>
   <g id="patch_149">
    <path d="M 460.8 345.6 
L 460.8 0 
" style="fill:none;stroke:#000000;stroke-linecap:square;stroke-linejoin:miter;stroke-width:0.8;"/>
   </g>
   <g id="patch_150">
    <path d="M 0 345.6 
L 460.8 345.6 
" style="fill:none;stroke:#000000;stroke-linecap:square;stroke-linejoin:miter;stroke-width:0.8;"/>
   </g>
   <g id="patch_151">
    <path d="M 0 0 
L 460.8 0 
" style="fill:none;stroke:#000000;stroke-linecap:square;stroke-linejoin:miter;stroke-width:0.8;"/>
   </g>
   <g id="text_1">
    <!-- SARSA policy -->
    <g transform="translate(176.8365 -6)scale(0.144 -0.144)">
     <defs>
      <path d="M 3834 4519 
L 3834 3531 
Q 3450 3703 3084 3790 
Q 2719 3878 2394 3878 
Q 1963 3878 1756 3759 
Q 1550 3641 1550 3391 
Q 1550 3203 1689 3098 
Q 1828 2994 2194 2919 
L 2706 2816 
Q 3484 2659 3812 2340 
Q 4141 2022 4141 1434 
Q 4141 663 3683 286 
Q 3225 -91 2284 -91 
Q 1841 -91 1394 -6 
Q 947 78 500 244 
L 500 1259 
Q 947 1022 1364 901 
Q 1781 781 2169 781 
Q 2563 781 2772 912 
Q 2981 1044 2981 1288 
Q 2981 1506 2839 1625 
Q 2697 1744 2272 1838 
L 1806 1941 
Q 1106 2091 782 2419 
Q 459 2747 459 3303 
Q 459 4000 909 4375 
Q 1359 4750 2203 4750 
Q 2588 4750 2994 4692 
Q 3400 4634 3834 4519 
z
" id="DejaVuSans-Bold-53" transform="scale(0.015625)"/>
      <path d="M 3419 850 
L 1538 850 
L 1241 0 
L 31 0 
L 1759 4666 
L 3194 4666 
L 4922 0 
L 3713 0 
L 3419 850 
z
M 1838 1716 
L 3116 1716 
L 2478 3572 
L 1838 1716 
z
" id="DejaVuSans-Bold-41" transform="scale(0.015625)"/>
      <path d="M 2297 2597 
Q 2675 2597 2839 2737 
Q 3003 2878 3003 3200 
Q 3003 3519 2839 3656 
Q 2675 3794 2297 3794 
L 1791 3794 
L 1791 2597 
L 2297 2597 
z
M 1791 1766 
L 1791 0 
L 588 0 
L 588 4666 
L 2425 4666 
Q 3347 4666 3776 4356 
Q 4206 4047 4206 3378 
Q 4206 2916 3982 2619 
Q 3759 2322 3309 2181 
Q 3556 2125 3751 1926 
Q 3947 1728 4147 1325 
L 4800 0 
L 3519 0 
L 2950 1159 
Q 2778 1509 2601 1637 
Q 2425 1766 2131 1766 
L 1791 1766 
z
" id="DejaVuSans-Bold-52" transform="scale(0.015625)"/>
      <path id="DejaVuSans-Bold-20" transform="scale(0.015625)"/>
      <path d="M 1656 506 
L 1656 -1331 
L 538 -1331 
L 538 3500 
L 1656 3500 
L 1656 2988 
Q 1888 3294 2169 3439 
Q 2450 3584 2816 3584 
Q 3463 3584 3878 3070 
Q 4294 2556 4294 1747 
Q 4294 938 3878 423 
Q 3463 -91 2816 -91 
Q 2450 -91 2169 54 
Q 1888 200 1656 506 
z
M 2400 2772 
Q 2041 2772 1848 2508 
Q 1656 2244 1656 1747 
Q 1656 1250 1848 986 
Q 2041 722 2400 722 
Q 2759 722 2948 984 
Q 3138 1247 3138 1747 
Q 3138 2247 2948 2509 
Q 2759 2772 2400 2772 
z
" id="DejaVuSans-Bold-70" transform="scale(0.015625)"/>
      <path d="M 2203 2784 
Q 1831 2784 1636 2517 
Q 1441 2250 1441 1747 
Q 1441 1244 1636 976 
Q 1831 709 2203 709 
Q 2569 709 2762 976 
Q 2956 1244 2956 1747 
Q 2956 2250 2762 2517 
Q 2569 2784 2203 2784 
z
M 2203 3584 
Q 3106 3584 3614 3096 
Q 4122 2609 4122 1747 
Q 4122 884 3614 396 
Q 3106 -91 2203 -91 
Q 1297 -91 786 396 
Q 275 884 275 1747 
Q 275 2609 786 3096 
Q 1297 3584 2203 3584 
z
" id="DejaVuSans-Bold-6f" transform="scale(0.015625)"/>
      <path d="M 538 4863 
L 1656 4863 
L 1656 0 
L 538 0 
L 538 4863 
z
" id="DejaVuSans-Bold-6c" transform="scale(0.015625)"/>
      <path d="M 538 3500 
L 1656 3500 
L 1656 0 
L 538 0 
L 538 3500 
z
M 538 4863 
L 1656 4863 
L 1656 3950 
L 538 3950 
L 538 4863 
z
" id="DejaVuSans-Bold-69" transform="scale(0.015625)"/>
      <path d="M 3366 3391 
L 3366 2478 
Q 3138 2634 2908 2709 
Q 2678 2784 2431 2784 
Q 1963 2784 1702 2511 
Q 1441 2238 1441 1747 
Q 1441 1256 1702 982 
Q 1963 709 2431 709 
Q 2694 709 2930 787 
Q 3166 866 3366 1019 
L 3366 103 
Q 3103 6 2833 -42 
Q 2563 -91 2291 -91 
Q 1344 -91 809 395 
Q 275 881 275 1747 
Q 275 2613 809 3098 
Q 1344 3584 2291 3584 
Q 2566 3584 2833 3536 
Q 3100 3488 3366 3391 
z
" id="DejaVuSans-Bold-63" transform="scale(0.015625)"/>
      <path d="M 78 3500 
L 1197 3500 
L 2138 1125 
L 2938 3500 
L 4056 3500 
L 2584 -331 
Q 2363 -916 2067 -1148 
Q 1772 -1381 1288 -1381 
L 641 -1381 
L 641 -647 
L 991 -647 
Q 1275 -647 1404 -556 
Q 1534 -466 1606 -231 
L 1638 -134 
L 78 3500 
z
" id="DejaVuSans-Bold-79" transform="scale(0.015625)"/>
     </defs>
     <use xlink:href="#DejaVuSans-Bold-53"/>
     <use x="72.021484" xlink:href="#DejaVuSans-Bold-41"/>
     <use x="149.414062" xlink:href="#DejaVuSans-Bold-52"/>
     <use x="226.416016" xlink:href="#DejaVuSans-Bold-53"/>
     <use x="298.4375" xlink:href="#DejaVuSans-Bold-41"/>
     <use x="375.830078" xlink:href="#DejaVuSans-Bold-20"/>
     <use x="410.644531" xlink:href="#DejaVuSans-Bold-70"/>
     <use x="482.226562" xlink:href="#DejaVuSans-Bold-6f"/>
     <use x="550.927734" xlink:href="#DejaVuSans-Bold-6c"/>
     <use x="585.205078" xlink:href="#DejaVuSans-Bold-69"/>
     <use x="619.482422" xlink:href="#DejaVuSans-Bold-63"/>
     <use x="678.759766" xlink:href="#DejaVuSans-Bold-79"/>
    </g>
   </g>
  </g>
 </g>
 <defs>
  <clipPath id="pe8a3f28f8c">
   <rect height="345.6" width="460.8" x="0" y="0"/>
  </clipPath>
 </defs>
</svg>
