<?xml version="1.0" encoding="utf-8" standalone="no"?>
<!DOCTYPE svg PUBLIC "-//W3C//DTD SVG 1.1//EN"
  "http://www.w3.org/Graphics/SVG/1.1/DTD/svg11.dtd">
<svg height="345.6pt" version="1.1" viewBox="0 0 460.8 345.6" width="460.8pt" xmlns="http://www.w3.org/2000/svg" xmlns:xlink="http://www.w3.org/1999/xlink">
 <metadata>
  <rdf:RDF xmlns:cc="http://creativecommons.org/ns#" xmlns:dc="http://purl.org/dc/elements/1.1/" xmlns:rdf="http://www.w3.org/1999/02/22-rdf-syntax-ns#">
   <cc:Work>
    <dc:type rdf:resource="http://purl.org/dc/dcmitype/StillImage"/>
    <dc:date>2023-05-14T14:17:27.042984</dc:date>
    <dc:format>image/svg+xml</dc:format>
    <dc:creator>
     <cc:Agent>
      <dc:title>Matplotlib v3.4.2, https://matplotlib.org/</dc:title>
     </cc:Agent>
    </dc:creator>
   </cc:Work>
  </rdf:RDF>
 </metadata>
 <defs>
  <style type="text/css">*{stroke-linecap:butt;stroke-linejoin:round;}</style>
 </defs>
 <g id="figure_1">
  <g id="patch_1">
   <path d="M 0 345.6 
L 460.8 345.6 
L 460.8 0 
L 0 0 
z
" style="fill:#ffffff;"/>
  </g>
  <g id="axes_1">
   <g id="patch_2">
    <path d="M 57.6 307.584 
L 414.72 307.584 
L 414.72 41.472 
L 57.6 41.472 
z
" style="fill:#ffffff;"/>
   </g>
   <g id="matplotlib.axis_1">
    <g id="xtick_1">
     <g id="line2d_1">
      <defs>
       <path d="M 0 0 
L 0 3.5 
" id="mdff7fbdcad" style="stroke:#000000;stroke-width:0.8;"/>
      </defs>
      <g>
       <use style="stroke:#000000;stroke-width:0.8;" x="73.832727" xlink:href="#mdff7fbdcad" y="307.584"/>
      </g>
     </g>
     <g id="text_1">
      <!-- 0 -->
      <g transform="translate(70.651477 322.182437)scale(0.1 -0.1)">
       <defs>
        <path d="M 2034 4250 
Q 1547 4250 1301 3770 
Q 1056 3291 1056 2328 
Q 1056 1369 1301 889 
Q 1547 409 2034 409 
Q 2525 409 2770 889 
Q 3016 1369 3016 2328 
Q 3016 3291 2770 3770 
Q 2525 4250 2034 4250 
z
M 2034 4750 
Q 2819 4750 3233 4129 
Q 3647 3509 3647 2328 
Q 3647 1150 3233 529 
Q 2819 -91 2034 -91 
Q 1250 -91 836 529 
Q 422 1150 422 2328 
Q 422 3509 836 4129 
Q 1250 4750 2034 4750 
z
" id="DejaVuSans-30" transform="scale(0.015625)"/>
       </defs>
       <use xlink:href="#DejaVuSans-30"/>
      </g>
     </g>
    </g>
    <g id="xtick_2">
     <g id="line2d_2">
      <g>
       <use style="stroke:#000000;stroke-width:0.8;" x="138.828632" xlink:href="#mdff7fbdcad" y="307.584"/>
      </g>
     </g>
     <g id="text_2">
      <!-- 200 -->
      <g transform="translate(129.284882 322.182437)scale(0.1 -0.1)">
       <defs>
        <path d="M 1228 531 
L 3431 531 
L 3431 0 
L 469 0 
L 469 531 
Q 828 903 1448 1529 
Q 2069 2156 2228 2338 
Q 2531 2678 2651 2914 
Q 2772 3150 2772 3378 
Q 2772 3750 2511 3984 
Q 2250 4219 1831 4219 
Q 1534 4219 1204 4116 
Q 875 4013 500 3803 
L 500 4441 
Q 881 4594 1212 4672 
Q 1544 4750 1819 4750 
Q 2544 4750 2975 4387 
Q 3406 4025 3406 3419 
Q 3406 3131 3298 2873 
Q 3191 2616 2906 2266 
Q 2828 2175 2409 1742 
Q 1991 1309 1228 531 
z
" id="DejaVuSans-32" transform="scale(0.015625)"/>
       </defs>
       <use xlink:href="#DejaVuSans-32"/>
       <use x="63.623047" xlink:href="#DejaVuSans-30"/>
       <use x="127.246094" xlink:href="#DejaVuSans-30"/>
      </g>
     </g>
    </g>
    <g id="xtick_3">
     <g id="line2d_3">
      <g>
       <use style="stroke:#000000;stroke-width:0.8;" x="203.824537" xlink:href="#mdff7fbdcad" y="307.584"/>
      </g>
     </g>
     <g id="text_3">
      <!-- 400 -->
      <g transform="translate(194.280787 322.182437)scale(0.1 -0.1)">
       <defs>
        <path d="M 2419 4116 
L 825 1625 
L 2419 1625 
L 2419 4116 
z
M 2253 4666 
L 3047 4666 
L 3047 1625 
L 3713 1625 
L 3713 1100 
L 3047 1100 
L 3047 0 
L 2419 0 
L 2419 1100 
L 313 1100 
L 313 1709 
L 2253 4666 
z
" id="DejaVuSans-34" transform="scale(0.015625)"/>
       </defs>
       <use xlink:href="#DejaVuSans-34"/>
       <use x="63.623047" xlink:href="#DejaVuSans-30"/>
       <use x="127.246094" xlink:href="#DejaVuSans-30"/>
      </g>
     </g>
    </g>
    <g id="xtick_4">
     <g id="line2d_4">
      <g>
       <use style="stroke:#000000;stroke-width:0.8;" x="268.820442" xlink:href="#mdff7fbdcad" y="307.584"/>
      </g>
     </g>
     <g id="text_4">
      <!-- 600 -->
      <g transform="translate(259.276692 322.182437)scale(0.1 -0.1)">
       <defs>
        <path d="M 2113 2584 
Q 1688 2584 1439 2293 
Q 1191 2003 1191 1497 
Q 1191 994 1439 701 
Q 1688 409 2113 409 
Q 2538 409 2786 701 
Q 3034 994 3034 1497 
Q 3034 2003 2786 2293 
Q 2538 2584 2113 2584 
z
M 3366 4563 
L 3366 3988 
Q 3128 4100 2886 4159 
Q 2644 4219 2406 4219 
Q 1781 4219 1451 3797 
Q 1122 3375 1075 2522 
Q 1259 2794 1537 2939 
Q 1816 3084 2150 3084 
Q 2853 3084 3261 2657 
Q 3669 2231 3669 1497 
Q 3669 778 3244 343 
Q 2819 -91 2113 -91 
Q 1303 -91 875 529 
Q 447 1150 447 2328 
Q 447 3434 972 4092 
Q 1497 4750 2381 4750 
Q 2619 4750 2861 4703 
Q 3103 4656 3366 4563 
z
" id="DejaVuSans-36" transform="scale(0.015625)"/>
       </defs>
       <use xlink:href="#DejaVuSans-36"/>
       <use x="63.623047" xlink:href="#DejaVuSans-30"/>
       <use x="127.246094" xlink:href="#DejaVuSans-30"/>
      </g>
     </g>
    </g>
    <g id="xtick_5">
     <g id="line2d_5">
      <g>
       <use style="stroke:#000000;stroke-width:0.8;" x="333.816347" xlink:href="#mdff7fbdcad" y="307.584"/>
      </g>
     </g>
     <g id="text_5">
      <!-- 800 -->
      <g transform="translate(324.272597 322.182437)scale(0.1 -0.1)">
       <defs>
        <path d="M 2034 2216 
Q 1584 2216 1326 1975 
Q 1069 1734 1069 1313 
Q 1069 891 1326 650 
Q 1584 409 2034 409 
Q 2484 409 2743 651 
Q 3003 894 3003 1313 
Q 3003 1734 2745 1975 
Q 2488 2216 2034 2216 
z
M 1403 2484 
Q 997 2584 770 2862 
Q 544 3141 544 3541 
Q 544 4100 942 4425 
Q 1341 4750 2034 4750 
Q 2731 4750 3128 4425 
Q 3525 4100 3525 3541 
Q 3525 3141 3298 2862 
Q 3072 2584 2669 2484 
Q 3125 2378 3379 2068 
Q 3634 1759 3634 1313 
Q 3634 634 3220 271 
Q 2806 -91 2034 -91 
Q 1263 -91 848 271 
Q 434 634 434 1313 
Q 434 1759 690 2068 
Q 947 2378 1403 2484 
z
M 1172 3481 
Q 1172 3119 1398 2916 
Q 1625 2713 2034 2713 
Q 2441 2713 2670 2916 
Q 2900 3119 2900 3481 
Q 2900 3844 2670 4047 
Q 2441 4250 2034 4250 
Q 1625 4250 1398 4047 
Q 1172 3844 1172 3481 
z
" id="DejaVuSans-38" transform="scale(0.015625)"/>
       </defs>
       <use xlink:href="#DejaVuSans-38"/>
       <use x="63.623047" xlink:href="#DejaVuSans-30"/>
       <use x="127.246094" xlink:href="#DejaVuSans-30"/>
      </g>
     </g>
    </g>
    <g id="xtick_6">
     <g id="line2d_6">
      <g>
       <use style="stroke:#000000;stroke-width:0.8;" x="398.812252" xlink:href="#mdff7fbdcad" y="307.584"/>
      </g>
     </g>
     <g id="text_6">
      <!-- 1000 -->
      <g transform="translate(386.087252 322.182437)scale(0.1 -0.1)">
       <defs>
        <path d="M 794 531 
L 1825 531 
L 1825 4091 
L 703 3866 
L 703 4441 
L 1819 4666 
L 2450 4666 
L 2450 531 
L 3481 531 
L 3481 0 
L 794 0 
L 794 531 
z
" id="DejaVuSans-31" transform="scale(0.015625)"/>
       </defs>
       <use xlink:href="#DejaVuSans-31"/>
       <use x="63.623047" xlink:href="#DejaVuSans-30"/>
       <use x="127.246094" xlink:href="#DejaVuSans-30"/>
       <use x="190.869141" xlink:href="#DejaVuSans-30"/>
      </g>
     </g>
    </g>
   </g>
   <g id="matplotlib.axis_2">
    <g id="ytick_1">
     <g id="line2d_7">
      <defs>
       <path d="M 0 0 
L -3.5 0 
" id="m1fe4bde74c" style="stroke:#000000;stroke-width:0.8;"/>
      </defs>
      <g>
       <use style="stroke:#000000;stroke-width:0.8;" x="57.6" xlink:href="#m1fe4bde74c" y="292.523824"/>
      </g>
     </g>
     <g id="text_7">
      <!-- 0.0 -->
      <g transform="translate(34.696875 296.323042)scale(0.1 -0.1)">
       <defs>
        <path d="M 684 794 
L 1344 794 
L 1344 0 
L 684 0 
L 684 794 
z
" id="DejaVuSans-2e" transform="scale(0.015625)"/>
       </defs>
       <use xlink:href="#DejaVuSans-30"/>
       <use x="63.623047" xlink:href="#DejaVuSans-2e"/>
       <use x="95.410156" xlink:href="#DejaVuSans-30"/>
      </g>
     </g>
    </g>
    <g id="ytick_2">
     <g id="line2d_8">
      <g>
       <use style="stroke:#000000;stroke-width:0.8;" x="57.6" xlink:href="#m1fe4bde74c" y="257.816536"/>
      </g>
     </g>
     <g id="text_8">
      <!-- 2.5 -->
      <g transform="translate(34.696875 261.615754)scale(0.1 -0.1)">
       <defs>
        <path d="M 691 4666 
L 3169 4666 
L 3169 4134 
L 1269 4134 
L 1269 2991 
Q 1406 3038 1543 3061 
Q 1681 3084 1819 3084 
Q 2600 3084 3056 2656 
Q 3513 2228 3513 1497 
Q 3513 744 3044 326 
Q 2575 -91 1722 -91 
Q 1428 -91 1123 -41 
Q 819 9 494 109 
L 494 744 
Q 775 591 1075 516 
Q 1375 441 1709 441 
Q 2250 441 2565 725 
Q 2881 1009 2881 1497 
Q 2881 1984 2565 2268 
Q 2250 2553 1709 2553 
Q 1456 2553 1204 2497 
Q 953 2441 691 2322 
L 691 4666 
z
" id="DejaVuSans-35" transform="scale(0.015625)"/>
       </defs>
       <use xlink:href="#DejaVuSans-32"/>
       <use x="63.623047" xlink:href="#DejaVuSans-2e"/>
       <use x="95.410156" xlink:href="#DejaVuSans-35"/>
      </g>
     </g>
    </g>
    <g id="ytick_3">
     <g id="line2d_9">
      <g>
       <use style="stroke:#000000;stroke-width:0.8;" x="57.6" xlink:href="#m1fe4bde74c" y="223.109248"/>
      </g>
     </g>
     <g id="text_9">
      <!-- 5.0 -->
      <g transform="translate(34.696875 226.908466)scale(0.1 -0.1)">
       <use xlink:href="#DejaVuSans-35"/>
       <use x="63.623047" xlink:href="#DejaVuSans-2e"/>
       <use x="95.410156" xlink:href="#DejaVuSans-30"/>
      </g>
     </g>
    </g>
    <g id="ytick_4">
     <g id="line2d_10">
      <g>
       <use style="stroke:#000000;stroke-width:0.8;" x="57.6" xlink:href="#m1fe4bde74c" y="188.40196"/>
      </g>
     </g>
     <g id="text_10">
      <!-- 7.5 -->
      <g transform="translate(34.696875 192.201178)scale(0.1 -0.1)">
       <defs>
        <path d="M 525 4666 
L 3525 4666 
L 3525 4397 
L 1831 0 
L 1172 0 
L 2766 4134 
L 525 4134 
L 525 4666 
z
" id="DejaVuSans-37" transform="scale(0.015625)"/>
       </defs>
       <use xlink:href="#DejaVuSans-37"/>
       <use x="63.623047" xlink:href="#DejaVuSans-2e"/>
       <use x="95.410156" xlink:href="#DejaVuSans-35"/>
      </g>
     </g>
    </g>
    <g id="ytick_5">
     <g id="line2d_11">
      <g>
       <use style="stroke:#000000;stroke-width:0.8;" x="57.6" xlink:href="#m1fe4bde74c" y="153.694672"/>
      </g>
     </g>
     <g id="text_11">
      <!-- 10.0 -->
      <g transform="translate(28.334375 157.49389)scale(0.1 -0.1)">
       <use xlink:href="#DejaVuSans-31"/>
       <use x="63.623047" xlink:href="#DejaVuSans-30"/>
       <use x="127.246094" xlink:href="#DejaVuSans-2e"/>
       <use x="159.033203" xlink:href="#DejaVuSans-30"/>
      </g>
     </g>
    </g>
    <g id="ytick_6">
     <g id="line2d_12">
      <g>
       <use style="stroke:#000000;stroke-width:0.8;" x="57.6" xlink:href="#m1fe4bde74c" y="118.987384"/>
      </g>
     </g>
     <g id="text_12">
      <!-- 12.5 -->
      <g transform="translate(28.334375 122.786603)scale(0.1 -0.1)">
       <use xlink:href="#DejaVuSans-31"/>
       <use x="63.623047" xlink:href="#DejaVuSans-32"/>
       <use x="127.246094" xlink:href="#DejaVuSans-2e"/>
       <use x="159.033203" xlink:href="#DejaVuSans-35"/>
      </g>
     </g>
    </g>
    <g id="ytick_7">
     <g id="line2d_13">
      <g>
       <use style="stroke:#000000;stroke-width:0.8;" x="57.6" xlink:href="#m1fe4bde74c" y="84.280096"/>
      </g>
     </g>
     <g id="text_13">
      <!-- 15.0 -->
      <g transform="translate(28.334375 88.079315)scale(0.1 -0.1)">
       <use xlink:href="#DejaVuSans-31"/>
       <use x="63.623047" xlink:href="#DejaVuSans-35"/>
       <use x="127.246094" xlink:href="#DejaVuSans-2e"/>
       <use x="159.033203" xlink:href="#DejaVuSans-30"/>
      </g>
     </g>
    </g>
    <g id="ytick_8">
     <g id="line2d_14">
      <g>
       <use style="stroke:#000000;stroke-width:0.8;" x="57.6" xlink:href="#m1fe4bde74c" y="49.572808"/>
      </g>
     </g>
     <g id="text_14">
      <!-- 17.5 -->
      <g transform="translate(28.334375 53.372027)scale(0.1 -0.1)">
       <use xlink:href="#DejaVuSans-31"/>
       <use x="63.623047" xlink:href="#DejaVuSans-37"/>
       <use x="127.246094" xlink:href="#DejaVuSans-2e"/>
       <use x="159.033203" xlink:href="#DejaVuSans-35"/>
      </g>
     </g>
    </g>
   </g>
   <g id="line2d_15">
    <path clip-path="url(#p4fa0a5a14b)" d="M 73.832727 295.488 
L 74.157707 291.612827 
L 74.482686 269.195329 
L 74.807666 274.326841 
L 75.132645 276.989873 
L 75.457625 269.677329 
L 76.107584 201.053258 
L 76.432563 190.849982 
L 76.757543 199.012174 
L 78.057461 214.859657 
L 78.382441 207.674195 
L 78.70742 208.084249 
L 79.357379 207.413617 
L 79.682359 210.767748 
L 80.007338 212.49349 
L 80.332318 208.245441 
L 80.657297 208.626562 
L 80.982277 204.079095 
L 81.307256 203.761363 
L 81.957215 205.660987 
L 82.282195 197.566124 
L 82.607174 194.823852 
L 82.932154 193.982417 
L 83.257133 193.93679 
L 83.582113 187.918801 
L 83.907093 186.513942 
L 84.232072 182.546862 
L 84.557052 183.655757 
L 84.882031 173.897032 
L 85.207011 168.549065 
L 85.53199 167.789217 
L 85.85697 168.210134 
L 86.181949 168.124878 
L 86.506929 169.324468 
L 86.831908 168.393835 
L 87.156888 168.472061 
L 87.481867 166.944587 
L 87.806847 168.039988 
L 88.131826 170.070429 
L 88.781785 172.117034 
L 89.106765 169.130188 
L 89.431744 167.583652 
L 90.081704 163.675199 
L 90.406683 163.481607 
L 90.731663 158.664018 
L 91.056642 158.995523 
L 91.381622 157.8482 
L 91.706601 159.097284 
L 92.35656 154.903995 
L 93.006519 149.443973 
L 93.331499 149.20043 
L 94.306437 147.842328 
L 94.631417 148.436201 
L 94.956396 148.67713 
L 95.281376 147.760382 
L 95.606355 148.40124 
L 96.256314 147.889772 
L 96.581294 143.564495 
L 97.231253 141.868905 
L 97.556233 142.158204 
L 97.881212 140.910363 
L 98.206192 136.467546 
L 98.531171 135.736712 
L 98.856151 136.698149 
L 99.18113 133.964884 
L 99.50611 133.552419 
L 99.831089 129.997774 
L 100.481048 131.092326 
L 100.806028 129.031055 
L 101.455987 129.721853 
L 101.780966 128.029327 
L 102.105946 125.562561 
L 102.430925 121.943532 
L 102.755905 120.033442 
L 103.080885 120.313646 
L 103.405864 117.378568 
L 103.730844 117.958408 
L 104.055823 118.105324 
L 104.380803 115.581585 
L 104.705782 114.52047 
L 105.030762 111.509944 
L 105.355741 112.611542 
L 106.0057 112.679731 
L 106.33068 113.287889 
L 106.980639 115.178063 
L 107.305618 115.478815 
L 107.630598 114.907454 
L 107.955577 115.164228 
L 108.605536 112.329899 
L 108.930516 112.770043 
L 109.255495 112.522062 
L 109.905455 108.736387 
L 110.230434 109.415952 
L 110.555414 106.983126 
L 110.880393 106.648847 
L 111.530352 102.503769 
L 111.855332 102.564104 
L 112.180311 101.75955 
L 112.505291 99.505742 
L 112.83027 98.404664 
L 113.15525 98.564945 
L 113.480229 95.254282 
L 113.805209 95.710648 
L 114.130188 96.804972 
L 114.455168 96.631159 
L 114.780147 95.895168 
L 115.105127 96.423901 
L 115.430106 96.50016 
L 115.755086 94.842131 
L 116.080066 94.461659 
L 116.405045 94.662485 
L 116.730025 95.180895 
L 117.379984 95.253051 
L 117.704963 94.486971 
L 118.029943 94.136611 
L 118.354922 93.344215 
L 119.004881 93.85481 
L 119.329861 93.985508 
L 119.65484 93.439188 
L 119.97982 91.239305 
L 120.304799 89.962143 
L 120.629779 90.238422 
L 120.954758 87.960768 
L 122.254676 90.012998 
L 122.579656 89.985247 
L 122.904636 89.818684 
L 123.229615 90.308549 
L 124.204554 90.831813 
L 124.854513 90.799197 
L 125.504472 91.572827 
L 125.829451 88.981714 
L 126.154431 88.323227 
L 126.47941 88.388663 
L 126.80439 89.010636 
L 127.129369 88.632662 
L 127.454349 87.523872 
L 127.779328 88.167803 
L 128.104308 88.205 
L 128.429287 88.885837 
L 129.079247 86.204649 
L 129.404226 85.654629 
L 129.729206 85.869595 
L 130.054185 86.396211 
L 130.379165 84.954274 
L 130.704144 82.260628 
L 131.029124 80.55208 
L 131.354103 77.942896 
L 132.004062 78.352063 
L 132.329042 78.780589 
L 132.654021 78.414878 
L 132.979001 78.57156 
L 133.30398 77.396518 
L 133.62896 77.358034 
L 134.278919 78.423609 
L 134.603898 78.369727 
L 134.928878 78.181748 
L 135.253857 77.411257 
L 135.903817 77.502736 
L 136.228796 76.816023 
L 136.878755 76.388597 
L 138.178673 78.228617 
L 138.503653 78.483645 
L 139.153612 79.360585 
L 139.803571 79.590866 
L 140.12855 78.868759 
L 140.778509 78.559552 
L 141.103489 76.436919 
L 141.428468 76.756045 
L 141.753448 76.66373 
L 142.078428 76.904524 
L 142.403407 76.994878 
L 142.728387 77.299453 
L 143.053366 77.341372 
L 143.703325 76.957176 
L 144.353284 77.403558 
L 144.678264 77.199958 
L 145.003243 76.671215 
L 145.328223 77.16191 
L 145.978182 77.263544 
L 146.303161 77.192583 
L 146.628141 77.61012 
L 146.95312 76.386392 
L 147.2781 76.82913 
L 147.603079 76.601514 
L 147.928059 76.764954 
L 148.253038 76.776986 
L 148.578018 75.916564 
L 148.902998 76.196637 
L 149.552957 75.423499 
L 149.877936 75.450637 
L 150.202916 75.883148 
L 150.527895 76.100968 
L 150.852875 76.080741 
L 151.502834 76.604558 
L 151.827813 76.117958 
L 152.152793 76.469235 
L 152.477772 76.261971 
L 152.802752 76.32328 
L 153.452711 76.90446 
L 154.10267 76.823617 
L 154.427649 76.831284 
L 154.752629 77.182771 
L 155.077609 77.281023 
L 155.402588 77.163557 
L 155.727568 77.374415 
L 156.377527 76.653914 
L 156.702506 75.513452 
L 157.027486 75.607117 
L 157.352465 75.844014 
L 157.677445 75.318367 
L 158.002424 75.52592 
L 158.327404 75.20232 
L 158.652383 75.10194 
L 158.977363 75.269604 
L 159.952301 75.320266 
L 160.277281 74.152718 
L 160.60226 74.033662 
L 160.92724 74.099259 
L 161.577199 74.636862 
L 161.902179 74.164291 
L 162.227158 74.053794 
L 162.552138 73.713383 
L 163.202097 73.812635 
L 163.527076 73.156622 
L 163.852056 73.462484 
L 164.177035 72.686148 
L 164.826994 73.080512 
L 165.151974 72.826338 
L 165.476953 73.243262 
L 165.801933 73.469183 
L 166.451892 73.602151 
L 166.776871 73.381628 
L 167.101851 73.530824 
L 167.42683 73.495962 
L 167.75181 72.448047 
L 168.07679 72.819542 
L 168.401769 72.788195 
L 169.051728 73.25106 
L 169.701687 73.413733 
L 170.026667 73.324557 
L 170.351646 73.534727 
L 170.676626 73.053715 
L 171.001605 73.427637 
L 171.326585 72.615914 
L 171.651564 72.731336 
L 171.976544 73.041507 
L 172.301523 72.92062 
L 172.626503 72.538089 
L 172.951482 70.876384 
L 173.276462 70.782554 
L 173.601441 71.1632 
L 174.2514 71.100067 
L 174.57638 70.567092 
L 175.226339 70.764567 
L 176.201278 70.945377 
L 176.526257 71.231495 
L 176.851237 71.083348 
L 177.176216 70.28091 
L 177.826175 70.656085 
L 178.151155 70.778092 
L 178.476134 70.58111 
L 178.801114 70.797104 
L 179.126093 70.307479 
L 179.776052 69.951443 
L 180.101032 69.352176 
L 180.426011 69.402959 
L 180.750991 69.63101 
L 181.075971 69.443586 
L 181.40095 69.626094 
L 181.72593 68.934943 
L 182.050909 69.039957 
L 182.375889 69.025374 
L 183.025848 69.435152 
L 183.350827 69.105497 
L 183.675807 69.109594 
L 184.000786 69.322619 
L 184.325766 68.649492 
L 184.975725 68.539265 
L 185.300704 68.599756 
L 185.625684 67.953456 
L 185.950663 68.078045 
L 186.275643 68.465313 
L 186.600622 68.446094 
L 186.925602 67.020947 
L 187.250581 66.733703 
L 187.575561 66.177222 
L 187.900541 66.516 
L 188.5505 66.445119 
L 189.200459 67.049102 
L 189.850418 66.088453 
L 190.175397 66.143422 
L 190.500377 65.805405 
L 190.825356 65.032507 
L 191.475315 65.450557 
L 192.125274 65.377186 
L 192.775233 65.96445 
L 193.100213 65.640314 
L 193.425192 65.868194 
L 193.750172 65.848799 
L 194.075152 66.140819 
L 194.400131 66.13002 
L 194.725111 66.383729 
L 195.05009 66.438798 
L 195.700049 67.023848 
L 196.025029 67.107659 
L 196.999967 65.515846 
L 197.324947 65.64785 
L 197.649926 65.581209 
L 197.974906 65.124682 
L 198.299885 65.369124 
L 198.949844 64.96674 
L 199.274824 64.115831 
L 199.599803 64.172912 
L 200.574742 64.87523 
L 200.899722 64.839285 
L 201.224701 65.10137 
L 201.549681 64.903396 
L 201.87466 64.017551 
L 202.19964 64.017219 
L 202.524619 64.279054 
L 202.849599 64.118676 
L 203.174578 64.110362 
L 203.499558 64.351239 
L 203.824537 63.826232 
L 204.474496 64.020466 
L 204.799476 63.587291 
L 205.449435 63.657203 
L 206.099394 63.844784 
L 206.424373 63.456824 
L 206.749353 63.781028 
L 207.074333 63.812674 
L 207.399312 64.008078 
L 207.724292 63.877593 
L 208.049271 63.498754 
L 208.374251 63.791183 
L 208.69923 63.901353 
L 209.02421 63.797741 
L 209.349189 63.839155 
L 209.674169 63.722273 
L 210.974087 63.937457 
L 211.624046 64.381976 
L 211.949025 64.026928 
L 212.923964 64.595924 
L 213.248943 64.086692 
L 213.898903 64.494372 
L 214.223882 64.01104 
L 214.548862 64.22741 
L 214.873841 63.762596 
L 215.198821 63.751485 
L 215.5238 63.004244 
L 216.173759 62.848838 
L 216.498739 62.836522 
L 217.148698 62.453116 
L 218.123636 62.98479 
L 218.448616 62.367435 
L 218.773595 62.632819 
L 219.098575 62.332617 
L 221.048452 63.340552 
L 221.373432 63.295521 
L 222.34837 63.871301 
L 222.67335 63.916244 
L 222.998329 63.84123 
L 223.323309 64.035916 
L 224.298247 64.285468 
L 224.623227 63.940343 
L 224.948206 64.116849 
L 225.273186 63.989916 
L 226.573104 64.6307 
L 227.223063 64.547929 
L 227.548043 64.713879 
L 227.873022 64.372869 
L 228.198002 63.291808 
L 228.522981 63.467221 
L 228.847961 63.407016 
L 229.49792 63.646176 
L 229.822899 63.731258 
L 230.147879 63.290337 
L 230.797838 63.433414 
L 231.447797 63.607126 
L 231.772776 63.043894 
L 232.097756 63.215964 
L 232.422735 62.852111 
L 232.747715 62.034849 
L 234.372613 61.068319 
L 234.697592 60.543839 
L 235.022572 60.680498 
L 235.347551 60.39116 
L 235.99751 60.495598 
L 236.32249 60.343821 
L 236.647469 60.363848 
L 236.972449 60.554832 
L 237.297428 59.936224 
L 238.272367 60.200983 
L 238.597346 60.168349 
L 238.922326 60.351819 
L 239.247305 59.960635 
L 239.572285 60.098788 
L 239.897265 60.02034 
L 240.222244 59.822324 
L 241.847142 60.250497 
L 242.172121 60.143943 
L 242.82208 59.683811 
L 243.14706 59.900952 
L 243.797019 59.708489 
L 244.446978 59.97993 
L 244.771957 59.9518 
L 246.071876 60.482661 
L 246.396855 60.006722 
L 247.371794 60.330465 
L 247.696773 60.271544 
L 248.346732 59.446572 
L 248.671712 59.15502 
L 249.321671 59.382692 
L 249.97163 58.663567 
L 251.271548 59.086072 
L 251.596527 59.056108 
L 251.921507 59.144334 
L 252.246486 59.041172 
L 252.571466 59.22369 
L 253.221425 59.155911 
L 253.871384 58.589508 
L 254.196364 58.547639 
L 256.146241 59.129445 
L 256.47122 58.562131 
L 256.7962 58.261165 
L 257.446159 58.570366 
L 257.771138 58.238986 
L 258.096118 58.164759 
L 258.746077 58.406571 
L 259.071057 58.396599 
L 259.396036 58.578404 
L 259.721016 58.545971 
L 260.045995 58.682587 
L 260.695954 58.724011 
L 261.020934 58.916439 
L 261.345913 58.842687 
L 262.320852 59.306669 
L 262.645831 59.328783 
L 263.62077 58.173067 
L 263.945749 58.138096 
L 264.595708 58.381899 
L 264.920688 57.722688 
L 265.570647 57.986718 
L 265.895627 57.588572 
L 266.220606 57.742186 
L 266.870565 57.742745 
L 267.845504 58.131398 
L 268.170483 58.020891 
L 268.820442 58.149125 
L 269.145422 57.895563 
L 270.44534 57.76694 
L 271.420278 57.925645 
L 271.745258 57.556643 
L 272.070238 57.61461 
L 272.395217 57.456721 
L 272.720197 57.568764 
L 273.370156 57.428637 
L 274.020115 57.62403 
L 274.345094 57.162057 
L 274.670074 56.999743 
L 274.995053 57.192118 
L 275.645012 57.083122 
L 276.294971 56.828826 
L 276.619951 56.793957 
L 278.569828 57.305424 
L 278.894808 57.077516 
L 279.219787 57.185068 
L 279.544767 57.112368 
L 280.844685 57.479748 
L 281.819623 56.752202 
L 282.144603 56.06172 
L 282.469582 56.010652 
L 283.119541 56.073927 
L 283.444521 55.920918 
L 283.7695 55.939716 
L 284.09448 55.709425 
L 284.419459 55.907994 
L 284.744439 55.463453 
L 285.069419 55.514319 
L 285.394398 55.706669 
L 286.044357 55.27474 
L 286.694316 55.511827 
L 287.019296 55.142752 
L 287.344275 55.288199 
L 287.669255 54.829294 
L 288.319214 54.935519 
L 288.644193 54.670272 
L 288.969173 54.834488 
L 289.294152 54.573994 
L 290.269091 55.144609 
L 290.91905 55.218025 
L 291.244029 55.156707 
L 291.569009 54.696656 
L 291.893989 54.881358 
L 292.218968 54.724092 
L 292.543948 54.421526 
L 293.193907 54.820717 
L 293.518886 54.797667 
L 294.168845 55.043396 
L 294.493825 54.962761 
L 294.818804 55.136503 
L 295.468763 55.184578 
L 296.118722 54.715884 
L 296.768681 54.752394 
L 297.41864 54.806893 
L 297.74362 54.846559 
L 298.0686 54.458537 
L 298.393579 54.446541 
L 299.043538 53.960947 
L 300.018477 54.110099 
L 300.343456 53.918565 
L 300.993415 54.199872 
L 301.318395 53.569431 
L 301.643374 53.568 
L 302.293333 53.80298 
L 303.593251 53.850984 
L 304.56819 54.134059 
L 305.218149 54.172662 
L 305.868108 54.382181 
L 306.193088 54.386775 
L 306.518067 54.517121 
L 306.843047 54.415576 
L 307.493006 54.728789 
L 307.817985 54.666012 
L 308.142965 54.470818 
L 309.117903 54.613007 
L 309.442883 54.694075 
L 309.767862 54.589428 
L 310.742801 54.971273 
L 311.39276 54.955757 
L 312.692678 55.09554 
L 313.017658 54.964111 
L 313.992596 55.222817 
L 314.967535 55.401557 
L 315.292514 55.165795 
L 315.617494 55.35121 
L 315.942473 55.148061 
L 316.592432 55.448242 
L 316.917412 55.18328 
L 317.892351 55.217957 
L 318.21733 55.378586 
L 318.54231 55.170729 
L 318.867289 55.336793 
L 319.192269 55.168904 
L 319.842228 55.262067 
L 320.167207 54.995725 
L 320.492187 54.457325 
L 323.092023 54.346476 
L 324.391941 54.746783 
L 325.0419 55.018502 
L 325.36688 54.492257 
L 326.341818 54.889246 
L 326.666798 54.931636 
L 326.991777 54.827071 
L 327.316757 54.854908 
L 327.641736 54.618349 
L 327.966716 54.581251 
L 328.616675 54.073125 
L 328.941654 54.049737 
L 329.916593 54.396794 
L 330.891532 54.688543 
L 331.216511 54.660474 
L 331.541491 54.266487 
L 332.19145 54.451501 
L 333.166388 54.177375 
L 333.816347 54.542788 
L 334.791286 54.612048 
L 335.116265 54.596754 
L 335.766224 54.678907 
L 336.091204 54.666199 
L 337.066143 54.953834 
L 337.391122 54.731593 
L 338.041081 54.962901 
L 338.69104 54.819051 
L 339.01602 54.944431 
L 339.340999 54.680459 
L 339.665979 54.650936 
L 339.990958 54.469393 
L 340.965897 54.777726 
L 341.290876 54.541405 
L 341.615856 54.615782 
L 341.940835 54.442357 
L 342.265815 54.561694 
L 342.590794 54.356982 
L 342.915774 54.420457 
L 343.240753 54.185624 
L 344.215692 54.501318 
L 344.865651 54.582003 
L 345.51561 54.595294 
L 345.84059 54.519603 
L 346.165569 54.209709 
L 346.815528 54.340335 
L 347.790467 54.219592 
L 348.115446 54.205014 
L 348.440426 54.359095 
L 348.765405 54.338146 
L 349.415364 54.524183 
L 349.740344 54.30994 
L 350.390303 54.438035 
L 351.365242 54.556673 
L 352.34018 54.060022 
L 352.990139 54.045506 
L 353.315119 54.185387 
L 353.965078 54.243816 
L 354.615037 54.46682 
L 354.940016 54.399178 
L 355.914955 53.971498 
L 356.889894 53.949142 
L 358.189812 54.379795 
L 358.514791 54.431341 
L 358.839771 54.225762 
L 359.48973 54.374192 
L 360.139689 54.326577 
L 360.464668 54.115229 
L 361.114627 54.235846 
L 362.739525 54.436268 
L 364.689402 54.95814 
L 365.339361 55.09156 
L 365.664341 54.854885 
L 366.964259 54.899437 
L 367.614218 55.038998 
L 368.589156 54.666828 
L 369.239115 54.889408 
L 369.889075 55.061012 
L 370.214054 54.859711 
L 371.188993 55.155382 
L 371.513972 55.30957 
L 371.838952 55.118904 
L 372.488911 55.280979 
L 372.81389 55.279447 
L 373.788829 55.686798 
L 374.438788 55.719137 
L 374.763767 55.852511 
L 375.088747 55.600472 
L 378.338542 56.066437 
L 378.663522 55.758076 
L 378.988501 55.686244 
L 379.63846 55.767968 
L 380.938378 55.866929 
L 381.588337 56.023956 
L 381.913317 56.036885 
L 382.238296 55.805194 
L 382.563276 55.83117 
L 382.888256 55.498911 
L 383.213235 55.59598 
L 383.538215 55.330371 
L 384.188174 55.21083 
L 384.838133 55.365943 
L 385.163112 55.217396 
L 385.813071 55.239414 
L 386.138051 55.374046 
L 386.78801 55.03777 
L 387.437969 55.124595 
L 387.762948 54.974812 
L 388.737887 55.193896 
L 389.062867 55.139758 
L 389.387846 55.244996 
L 389.712826 54.95801 
L 390.362785 54.92012 
L 391.012744 55.016431 
L 391.337723 55.071155 
L 391.662703 54.713385 
L 392.312662 54.721667 
L 392.637641 54.555657 
L 393.61258 54.821558 
L 393.937559 54.656258 
L 394.262539 54.636261 
L 394.912498 54.902165 
L 395.237477 54.617649 
L 395.887437 54.623934 
L 396.212416 54.463717 
L 396.862375 54.613279 
L 397.187355 54.480448 
L 397.512334 54.588912 
L 397.837314 54.018182 
L 398.487273 54.12656 
L 398.487273 54.12656 
" style="fill:none;stroke:#ff0000;stroke-linecap:square;stroke-width:2;"/>
   </g>
   <g id="patch_3">
    <path d="M 57.6 307.584 
L 57.6 41.472 
" style="fill:none;stroke:#000000;stroke-linecap:square;stroke-linejoin:miter;stroke-width:0.8;"/>
   </g>
   <g id="patch_4">
    <path d="M 414.72 307.584 
L 414.72 41.472 
" style="fill:none;stroke:#000000;stroke-linecap:square;stroke-linejoin:miter;stroke-width:0.8;"/>
   </g>
   <g id="patch_5">
    <path d="M 57.6 307.584 
L 414.72 307.584 
" style="fill:none;stroke:#000000;stroke-linecap:square;stroke-linejoin:miter;stroke-width:0.8;"/>
   </g>
   <g id="patch_6">
    <path d="M 57.6 41.472 
L 414.72 41.472 
" style="fill:none;stroke:#000000;stroke-linecap:square;stroke-linejoin:miter;stroke-width:0.8;"/>
   </g>
  </g>
 </g>
 <defs>
  <clipPath id="p4fa0a5a14b">
   <rect height="266.112" width="357.12" x="57.6" y="41.472"/>
  </clipPath>
 </defs>
</svg>
