<?xml version="1.0" encoding="utf-8" standalone="no"?>
<!DOCTYPE svg PUBLIC "-//W3C//DTD SVG 1.1//EN"
  "http://www.w3.org/Graphics/SVG/1.1/DTD/svg11.dtd">
<svg height="345.6pt" version="1.1" viewBox="0 0 460.8 345.6" width="460.8pt" xmlns="http://www.w3.org/2000/svg" xmlns:xlink="http://www.w3.org/1999/xlink">
 <metadata>
  <rdf:RDF xmlns:cc="http://creativecommons.org/ns#" xmlns:dc="http://purl.org/dc/elements/1.1/" xmlns:rdf="http://www.w3.org/1999/02/22-rdf-syntax-ns#">
   <cc:Work>
    <dc:type rdf:resource="http://purl.org/dc/dcmitype/StillImage"/>
    <dc:date>2023-05-14T14:42:12.598945</dc:date>
    <dc:format>image/svg+xml</dc:format>
    <dc:creator>
     <cc:Agent>
      <dc:title>Matplotlib v3.4.2, https://matplotlib.org/</dc:title>
     </cc:Agent>
    </dc:creator>
   </cc:Work>
  </rdf:RDF>
 </metadata>
 <defs>
  <style type="text/css">*{stroke-linecap:butt;stroke-linejoin:round;}</style>
 </defs>
 <g id="figure_1">
  <g id="patch_1">
   <path d="M 0 345.6 
L 460.8 345.6 
L 460.8 0 
L 0 0 
z
" style="fill:#ffffff;"/>
  </g>
  <g id="axes_1">
   <g id="patch_2">
    <path d="M 57.6 307.584 
L 414.72 307.584 
L 414.72 41.472 
L 57.6 41.472 
z
" style="fill:#ffffff;"/>
   </g>
   <g id="matplotlib.axis_1">
    <g id="xtick_1">
     <g id="line2d_1">
      <defs>
       <path d="M 0 0 
L 0 3.5 
" id="md7da3c1791" style="stroke:#000000;stroke-width:0.8;"/>
      </defs>
      <g>
       <use style="stroke:#000000;stroke-width:0.8;" x="73.832727" xlink:href="#md7da3c1791" y="307.584"/>
      </g>
     </g>
     <g id="text_1">
      <!-- 0 -->
      <g transform="translate(70.651477 322.182437)scale(0.1 -0.1)">
       <defs>
        <path d="M 2034 4250 
Q 1547 4250 1301 3770 
Q 1056 3291 1056 2328 
Q 1056 1369 1301 889 
Q 1547 409 2034 409 
Q 2525 409 2770 889 
Q 3016 1369 3016 2328 
Q 3016 3291 2770 3770 
Q 2525 4250 2034 4250 
z
M 2034 4750 
Q 2819 4750 3233 4129 
Q 3647 3509 3647 2328 
Q 3647 1150 3233 529 
Q 2819 -91 2034 -91 
Q 1250 -91 836 529 
Q 422 1150 422 2328 
Q 422 3509 836 4129 
Q 1250 4750 2034 4750 
z
" id="DejaVuSans-30" transform="scale(0.015625)"/>
       </defs>
       <use xlink:href="#DejaVuSans-30"/>
      </g>
     </g>
    </g>
    <g id="xtick_2">
     <g id="line2d_2">
      <g>
       <use style="stroke:#000000;stroke-width:0.8;" x="138.828632" xlink:href="#md7da3c1791" y="307.584"/>
      </g>
     </g>
     <g id="text_2">
      <!-- 200 -->
      <g transform="translate(129.284882 322.182437)scale(0.1 -0.1)">
       <defs>
        <path d="M 1228 531 
L 3431 531 
L 3431 0 
L 469 0 
L 469 531 
Q 828 903 1448 1529 
Q 2069 2156 2228 2338 
Q 2531 2678 2651 2914 
Q 2772 3150 2772 3378 
Q 2772 3750 2511 3984 
Q 2250 4219 1831 4219 
Q 1534 4219 1204 4116 
Q 875 4013 500 3803 
L 500 4441 
Q 881 4594 1212 4672 
Q 1544 4750 1819 4750 
Q 2544 4750 2975 4387 
Q 3406 4025 3406 3419 
Q 3406 3131 3298 2873 
Q 3191 2616 2906 2266 
Q 2828 2175 2409 1742 
Q 1991 1309 1228 531 
z
" id="DejaVuSans-32" transform="scale(0.015625)"/>
       </defs>
       <use xlink:href="#DejaVuSans-32"/>
       <use x="63.623047" xlink:href="#DejaVuSans-30"/>
       <use x="127.246094" xlink:href="#DejaVuSans-30"/>
      </g>
     </g>
    </g>
    <g id="xtick_3">
     <g id="line2d_3">
      <g>
       <use style="stroke:#000000;stroke-width:0.8;" x="203.824537" xlink:href="#md7da3c1791" y="307.584"/>
      </g>
     </g>
     <g id="text_3">
      <!-- 400 -->
      <g transform="translate(194.280787 322.182437)scale(0.1 -0.1)">
       <defs>
        <path d="M 2419 4116 
L 825 1625 
L 2419 1625 
L 2419 4116 
z
M 2253 4666 
L 3047 4666 
L 3047 1625 
L 3713 1625 
L 3713 1100 
L 3047 1100 
L 3047 0 
L 2419 0 
L 2419 1100 
L 313 1100 
L 313 1709 
L 2253 4666 
z
" id="DejaVuSans-34" transform="scale(0.015625)"/>
       </defs>
       <use xlink:href="#DejaVuSans-34"/>
       <use x="63.623047" xlink:href="#DejaVuSans-30"/>
       <use x="127.246094" xlink:href="#DejaVuSans-30"/>
      </g>
     </g>
    </g>
    <g id="xtick_4">
     <g id="line2d_4">
      <g>
       <use style="stroke:#000000;stroke-width:0.8;" x="268.820442" xlink:href="#md7da3c1791" y="307.584"/>
      </g>
     </g>
     <g id="text_4">
      <!-- 600 -->
      <g transform="translate(259.276692 322.182437)scale(0.1 -0.1)">
       <defs>
        <path d="M 2113 2584 
Q 1688 2584 1439 2293 
Q 1191 2003 1191 1497 
Q 1191 994 1439 701 
Q 1688 409 2113 409 
Q 2538 409 2786 701 
Q 3034 994 3034 1497 
Q 3034 2003 2786 2293 
Q 2538 2584 2113 2584 
z
M 3366 4563 
L 3366 3988 
Q 3128 4100 2886 4159 
Q 2644 4219 2406 4219 
Q 1781 4219 1451 3797 
Q 1122 3375 1075 2522 
Q 1259 2794 1537 2939 
Q 1816 3084 2150 3084 
Q 2853 3084 3261 2657 
Q 3669 2231 3669 1497 
Q 3669 778 3244 343 
Q 2819 -91 2113 -91 
Q 1303 -91 875 529 
Q 447 1150 447 2328 
Q 447 3434 972 4092 
Q 1497 4750 2381 4750 
Q 2619 4750 2861 4703 
Q 3103 4656 3366 4563 
z
" id="DejaVuSans-36" transform="scale(0.015625)"/>
       </defs>
       <use xlink:href="#DejaVuSans-36"/>
       <use x="63.623047" xlink:href="#DejaVuSans-30"/>
       <use x="127.246094" xlink:href="#DejaVuSans-30"/>
      </g>
     </g>
    </g>
    <g id="xtick_5">
     <g id="line2d_5">
      <g>
       <use style="stroke:#000000;stroke-width:0.8;" x="333.816347" xlink:href="#md7da3c1791" y="307.584"/>
      </g>
     </g>
     <g id="text_5">
      <!-- 800 -->
      <g transform="translate(324.272597 322.182437)scale(0.1 -0.1)">
       <defs>
        <path d="M 2034 2216 
Q 1584 2216 1326 1975 
Q 1069 1734 1069 1313 
Q 1069 891 1326 650 
Q 1584 409 2034 409 
Q 2484 409 2743 651 
Q 3003 894 3003 1313 
Q 3003 1734 2745 1975 
Q 2488 2216 2034 2216 
z
M 1403 2484 
Q 997 2584 770 2862 
Q 544 3141 544 3541 
Q 544 4100 942 4425 
Q 1341 4750 2034 4750 
Q 2731 4750 3128 4425 
Q 3525 4100 3525 3541 
Q 3525 3141 3298 2862 
Q 3072 2584 2669 2484 
Q 3125 2378 3379 2068 
Q 3634 1759 3634 1313 
Q 3634 634 3220 271 
Q 2806 -91 2034 -91 
Q 1263 -91 848 271 
Q 434 634 434 1313 
Q 434 1759 690 2068 
Q 947 2378 1403 2484 
z
M 1172 3481 
Q 1172 3119 1398 2916 
Q 1625 2713 2034 2713 
Q 2441 2713 2670 2916 
Q 2900 3119 2900 3481 
Q 2900 3844 2670 4047 
Q 2441 4250 2034 4250 
Q 1625 4250 1398 4047 
Q 1172 3844 1172 3481 
z
" id="DejaVuSans-38" transform="scale(0.015625)"/>
       </defs>
       <use xlink:href="#DejaVuSans-38"/>
       <use x="63.623047" xlink:href="#DejaVuSans-30"/>
       <use x="127.246094" xlink:href="#DejaVuSans-30"/>
      </g>
     </g>
    </g>
    <g id="xtick_6">
     <g id="line2d_6">
      <g>
       <use style="stroke:#000000;stroke-width:0.8;" x="398.812252" xlink:href="#md7da3c1791" y="307.584"/>
      </g>
     </g>
     <g id="text_6">
      <!-- 1000 -->
      <g transform="translate(386.087252 322.182437)scale(0.1 -0.1)">
       <defs>
        <path d="M 794 531 
L 1825 531 
L 1825 4091 
L 703 3866 
L 703 4441 
L 1819 4666 
L 2450 4666 
L 2450 531 
L 3481 531 
L 3481 0 
L 794 0 
L 794 531 
z
" id="DejaVuSans-31" transform="scale(0.015625)"/>
       </defs>
       <use xlink:href="#DejaVuSans-31"/>
       <use x="63.623047" xlink:href="#DejaVuSans-30"/>
       <use x="127.246094" xlink:href="#DejaVuSans-30"/>
       <use x="190.869141" xlink:href="#DejaVuSans-30"/>
      </g>
     </g>
    </g>
   </g>
   <g id="matplotlib.axis_2">
    <g id="ytick_1">
     <g id="line2d_7">
      <defs>
       <path d="M 0 0 
L -3.5 0 
" id="mbb2923a769" style="stroke:#000000;stroke-width:0.8;"/>
      </defs>
      <g>
       <use style="stroke:#000000;stroke-width:0.8;" x="57.6" xlink:href="#mbb2923a769" y="292.594416"/>
      </g>
     </g>
     <g id="text_7">
      <!-- 0.0 -->
      <g transform="translate(34.696875 296.393634)scale(0.1 -0.1)">
       <defs>
        <path d="M 684 794 
L 1344 794 
L 1344 0 
L 684 0 
L 684 794 
z
" id="DejaVuSans-2e" transform="scale(0.015625)"/>
       </defs>
       <use xlink:href="#DejaVuSans-30"/>
       <use x="63.623047" xlink:href="#DejaVuSans-2e"/>
       <use x="95.410156" xlink:href="#DejaVuSans-30"/>
      </g>
     </g>
    </g>
    <g id="ytick_2">
     <g id="line2d_8">
      <g>
       <use style="stroke:#000000;stroke-width:0.8;" x="57.6" xlink:href="#mbb2923a769" y="258.713682"/>
      </g>
     </g>
     <g id="text_8">
      <!-- 2.5 -->
      <g transform="translate(34.696875 262.512901)scale(0.1 -0.1)">
       <defs>
        <path d="M 691 4666 
L 3169 4666 
L 3169 4134 
L 1269 4134 
L 1269 2991 
Q 1406 3038 1543 3061 
Q 1681 3084 1819 3084 
Q 2600 3084 3056 2656 
Q 3513 2228 3513 1497 
Q 3513 744 3044 326 
Q 2575 -91 1722 -91 
Q 1428 -91 1123 -41 
Q 819 9 494 109 
L 494 744 
Q 775 591 1075 516 
Q 1375 441 1709 441 
Q 2250 441 2565 725 
Q 2881 1009 2881 1497 
Q 2881 1984 2565 2268 
Q 2250 2553 1709 2553 
Q 1456 2553 1204 2497 
Q 953 2441 691 2322 
L 691 4666 
z
" id="DejaVuSans-35" transform="scale(0.015625)"/>
       </defs>
       <use xlink:href="#DejaVuSans-32"/>
       <use x="63.623047" xlink:href="#DejaVuSans-2e"/>
       <use x="95.410156" xlink:href="#DejaVuSans-35"/>
      </g>
     </g>
    </g>
    <g id="ytick_3">
     <g id="line2d_9">
      <g>
       <use style="stroke:#000000;stroke-width:0.8;" x="57.6" xlink:href="#mbb2923a769" y="224.832949"/>
      </g>
     </g>
     <g id="text_9">
      <!-- 5.0 -->
      <g transform="translate(34.696875 228.632167)scale(0.1 -0.1)">
       <use xlink:href="#DejaVuSans-35"/>
       <use x="63.623047" xlink:href="#DejaVuSans-2e"/>
       <use x="95.410156" xlink:href="#DejaVuSans-30"/>
      </g>
     </g>
    </g>
    <g id="ytick_4">
     <g id="line2d_10">
      <g>
       <use style="stroke:#000000;stroke-width:0.8;" x="57.6" xlink:href="#mbb2923a769" y="190.952215"/>
      </g>
     </g>
     <g id="text_10">
      <!-- 7.5 -->
      <g transform="translate(34.696875 194.751434)scale(0.1 -0.1)">
       <defs>
        <path d="M 525 4666 
L 3525 4666 
L 3525 4397 
L 1831 0 
L 1172 0 
L 2766 4134 
L 525 4134 
L 525 4666 
z
" id="DejaVuSans-37" transform="scale(0.015625)"/>
       </defs>
       <use xlink:href="#DejaVuSans-37"/>
       <use x="63.623047" xlink:href="#DejaVuSans-2e"/>
       <use x="95.410156" xlink:href="#DejaVuSans-35"/>
      </g>
     </g>
    </g>
    <g id="ytick_5">
     <g id="line2d_11">
      <g>
       <use style="stroke:#000000;stroke-width:0.8;" x="57.6" xlink:href="#mbb2923a769" y="157.071482"/>
      </g>
     </g>
     <g id="text_11">
      <!-- 10.0 -->
      <g transform="translate(28.334375 160.8707)scale(0.1 -0.1)">
       <use xlink:href="#DejaVuSans-31"/>
       <use x="63.623047" xlink:href="#DejaVuSans-30"/>
       <use x="127.246094" xlink:href="#DejaVuSans-2e"/>
       <use x="159.033203" xlink:href="#DejaVuSans-30"/>
      </g>
     </g>
    </g>
    <g id="ytick_6">
     <g id="line2d_12">
      <g>
       <use style="stroke:#000000;stroke-width:0.8;" x="57.6" xlink:href="#mbb2923a769" y="123.190748"/>
      </g>
     </g>
     <g id="text_12">
      <!-- 12.5 -->
      <g transform="translate(28.334375 126.989967)scale(0.1 -0.1)">
       <use xlink:href="#DejaVuSans-31"/>
       <use x="63.623047" xlink:href="#DejaVuSans-32"/>
       <use x="127.246094" xlink:href="#DejaVuSans-2e"/>
       <use x="159.033203" xlink:href="#DejaVuSans-35"/>
      </g>
     </g>
    </g>
    <g id="ytick_7">
     <g id="line2d_13">
      <g>
       <use style="stroke:#000000;stroke-width:0.8;" x="57.6" xlink:href="#mbb2923a769" y="89.310015"/>
      </g>
     </g>
     <g id="text_13">
      <!-- 15.0 -->
      <g transform="translate(28.334375 93.109233)scale(0.1 -0.1)">
       <use xlink:href="#DejaVuSans-31"/>
       <use x="63.623047" xlink:href="#DejaVuSans-35"/>
       <use x="127.246094" xlink:href="#DejaVuSans-2e"/>
       <use x="159.033203" xlink:href="#DejaVuSans-30"/>
      </g>
     </g>
    </g>
    <g id="ytick_8">
     <g id="line2d_14">
      <g>
       <use style="stroke:#000000;stroke-width:0.8;" x="57.6" xlink:href="#mbb2923a769" y="55.429281"/>
      </g>
     </g>
     <g id="text_14">
      <!-- 17.5 -->
      <g transform="translate(28.334375 59.2285)scale(0.1 -0.1)">
       <use xlink:href="#DejaVuSans-31"/>
       <use x="63.623047" xlink:href="#DejaVuSans-37"/>
       <use x="127.246094" xlink:href="#DejaVuSans-2e"/>
       <use x="159.033203" xlink:href="#DejaVuSans-35"/>
      </g>
     </g>
    </g>
   </g>
   <g id="line2d_15">
    <path clip-path="url(#p1b37e76946)" d="M 73.832727 249.105605 
L 74.157707 229.235 
L 74.482686 160.332952 
L 74.807666 195.534737 
L 75.132645 161.568815 
L 75.457625 183.872218 
L 75.782604 196.341016 
L 76.107584 195.498083 
L 76.432563 205.569064 
L 76.757543 204.346596 
L 77.082523 179.824099 
L 77.407502 185.985374 
L 77.732482 168.167697 
L 78.057461 175.247063 
L 78.382441 170.575469 
L 78.70742 150.717924 
L 79.0324 157.182266 
L 79.357379 146.148264 
L 79.682359 144.726971 
L 80.007338 116.560304 
L 80.657297 103.428676 
L 80.982277 107.902879 
L 81.632236 120.998779 
L 81.957215 120.246466 
L 82.282195 121.551503 
L 82.607174 127.51453 
L 82.932154 128.500739 
L 83.257133 130.688235 
L 83.582113 126.681854 
L 83.907093 126.811016 
L 84.232072 125.479063 
L 84.557052 122.410559 
L 84.882031 118.157994 
L 85.207011 116.350602 
L 85.85697 121.500334 
L 86.181949 122.637119 
L 86.506929 124.653344 
L 86.831908 114.853918 
L 87.156888 117.838711 
L 87.806847 117.253687 
L 88.131826 119.404025 
L 88.456806 120.160003 
L 88.781785 120.261513 
L 89.106765 122.000432 
L 89.431744 117.178262 
L 89.756724 116.359158 
L 90.731663 106.287607 
L 91.056642 106.653864 
L 91.381622 107.393478 
L 91.706601 105.22815 
L 92.031581 104.484893 
L 92.35656 106.039863 
L 92.68154 105.33693 
L 93.006519 107.748579 
L 93.331499 107.366961 
L 93.656478 108.919624 
L 93.981458 109.428026 
L 94.306437 108.175759 
L 94.631417 107.911085 
L 94.956396 103.149153 
L 95.281376 104.036158 
L 95.606355 105.986213 
L 95.931335 104.763156 
L 96.581294 103.846724 
L 96.906274 104.204276 
L 97.231253 104.134324 
L 97.556233 104.523939 
L 97.881212 105.327753 
L 98.206192 103.130157 
L 98.531171 103.997554 
L 98.856151 101.438442 
L 99.18113 101.57343 
L 99.50611 103.090652 
L 99.831089 102.269862 
L 100.156069 102.463916 
L 100.481048 102.298838 
L 100.806028 103.050621 
L 101.131007 104.420222 
L 101.455987 105.069852 
L 101.780966 102.668181 
L 102.105946 103.102452 
L 102.430925 104.535218 
L 102.755905 102.605576 
L 103.080885 101.77989 
L 103.405864 102.57044 
L 103.730844 100.518584 
L 104.055823 99.691064 
L 104.380803 99.600811 
L 104.705782 97.991786 
L 105.030762 98.84598 
L 105.355741 99.336484 
L 105.680721 96.072412 
L 106.0057 95.676386 
L 106.33068 95.794294 
L 106.655659 94.465335 
L 107.630598 89.145709 
L 107.955577 89.589935 
L 108.280557 90.386528 
L 108.605536 90.448265 
L 108.930516 88.643875 
L 109.255495 85.077054 
L 109.580475 84.091323 
L 109.905455 84.345466 
L 110.230434 84.974972 
L 110.880393 85.440713 
L 111.205373 84.872672 
L 111.530352 85.36855 
L 111.855332 85.401952 
L 112.505291 86.341891 
L 112.83027 84.372777 
L 113.15525 83.867082 
L 113.805209 85.511196 
L 114.455168 82.880894 
L 114.780147 82.496204 
L 115.105127 82.656918 
L 115.430106 82.256493 
L 115.755086 79.126962 
L 116.080066 80.399737 
L 116.405045 80.602909 
L 116.730025 77.326612 
L 117.055004 76.409439 
L 117.704963 77.292772 
L 118.029943 78.062552 
L 118.354922 77.315477 
L 118.679902 75.033483 
L 119.65484 75.425963 
L 119.97982 73.744964 
L 120.304799 73.424317 
L 120.629779 72.685279 
L 121.279738 71.941296 
L 121.604717 72.024429 
L 121.929697 72.434295 
L 122.254676 71.914359 
L 122.579656 72.621318 
L 123.229615 73.063622 
L 123.554595 71.949663 
L 123.879574 72.689772 
L 124.204554 72.886072 
L 124.854513 73.653481 
L 125.179492 73.371136 
L 125.829451 74.372247 
L 126.154431 74.570788 
L 126.47941 74.997353 
L 126.80439 74.622817 
L 127.129369 73.836546 
L 127.454349 74.374934 
L 127.779328 73.071266 
L 128.104308 73.01043 
L 128.429287 72.300766 
L 128.754267 69.885929 
L 129.079247 69.811451 
L 129.729206 70.414197 
L 130.054185 70.75887 
L 130.379165 69.228623 
L 130.704144 68.499981 
L 132.004062 69.690252 
L 132.329042 68.288678 
L 132.654021 68.217136 
L 132.979001 67.974459 
L 133.30398 68.700957 
L 133.62896 68.617009 
L 133.953939 68.801123 
L 135.253857 70.31012 
L 135.578837 69.69268 
L 135.903817 70.308784 
L 136.228796 70.128674 
L 136.878755 70.614303 
L 137.203735 70.279458 
L 137.528714 70.350816 
L 137.853694 69.967815 
L 138.178673 70.252618 
L 138.828632 70.359102 
L 139.478591 69.030428 
L 139.803571 68.853035 
L 140.45353 69.656087 
L 140.778509 68.998128 
L 141.103489 69.255398 
L 141.428468 67.383872 
L 142.078428 67.78799 
L 142.403407 68.448197 
L 142.728387 68.273962 
L 143.053366 68.898862 
L 143.378346 69.264443 
L 143.703325 68.887631 
L 144.353284 66.940018 
L 144.678264 67.246059 
L 145.003243 67.307149 
L 145.653202 68.093673 
L 146.303161 67.925714 
L 146.628141 66.804635 
L 146.95312 67.212173 
L 147.2781 67.153231 
L 147.603079 67.45935 
L 147.928059 67.444486 
L 148.253038 66.902114 
L 148.578018 66.119098 
L 149.227977 66.708765 
L 149.552957 66.862198 
L 149.877936 66.643668 
L 150.202916 64.032037 
L 150.527895 64.457656 
L 151.177854 64.685451 
L 151.827813 65.408849 
L 152.152793 65.383167 
L 152.477772 64.156412 
L 152.802752 63.524477 
L 153.127731 63.725325 
L 153.452711 63.419209 
L 153.77769 62.89657 
L 154.10267 62.973545 
L 154.427649 62.33548 
L 154.752629 62.285268 
L 155.077609 62.425932 
L 155.727568 63.287855 
L 156.052547 62.348413 
L 156.702506 62.589366 
L 157.027486 62.801314 
L 157.352465 62.75321 
L 157.677445 62.850638 
L 158.002424 62.346059 
L 158.327404 61.449991 
L 158.977363 62.321337 
L 159.302342 62.583707 
L 159.627322 63.072507 
L 159.952301 63.229371 
L 160.277281 63.652106 
L 160.60226 63.650845 
L 160.92724 63.809408 
L 161.252219 63.474419 
L 161.902179 62.320172 
L 162.227158 62.579782 
L 162.552138 62.076098 
L 162.877117 61.821949 
L 163.202097 62.127626 
L 163.527076 61.53032 
L 163.852056 61.747477 
L 164.177035 60.816238 
L 165.151974 61.789787 
L 165.476953 61.261379 
L 165.801933 61.724698 
L 166.126912 61.875137 
L 166.451892 62.327771 
L 166.776871 61.319974 
L 167.101851 61.52334 
L 167.42683 60.533827 
L 167.75181 60.214692 
L 168.07679 60.12839 
L 168.726749 60.191541 
L 169.051728 60.495695 
L 169.376708 59.866684 
L 169.701687 59.650748 
L 170.026667 59.111295 
L 170.351646 59.241422 
L 170.676626 59.045357 
L 171.326585 59.867879 
L 171.651564 59.931412 
L 171.976544 59.588965 
L 172.301523 59.519734 
L 172.626503 59.676267 
L 173.601441 59.691895 
L 173.926421 59.501643 
L 174.2514 59.813546 
L 174.57638 59.351686 
L 174.90136 59.734981 
L 175.226339 59.407486 
L 175.876298 59.290656 
L 176.526257 59.68713 
L 176.851237 59.252303 
L 177.176216 59.131873 
L 177.501196 58.674194 
L 177.826175 58.66308 
L 178.476134 59.252862 
L 178.801114 59.585614 
L 179.126093 59.649274 
L 179.776052 59.887311 
L 180.426011 60.147412 
L 180.750991 60.178343 
L 181.075971 60.539961 
L 181.72593 60.154745 
L 182.050909 60.475563 
L 182.375889 60.557833 
L 182.700868 60.895772 
L 183.350827 61.069631 
L 183.675807 60.661201 
L 184.325766 60.666318 
L 184.650745 59.83866 
L 184.975725 60.054689 
L 185.300704 59.948401 
L 185.950663 60.22068 
L 186.275643 59.568964 
L 186.925602 59.714241 
L 187.900541 59.845516 
L 188.22552 59.332436 
L 189.525438 60.428272 
L 190.175397 60.633664 
L 191.150336 61.563837 
L 191.475315 61.615268 
L 191.800295 61.183305 
L 192.125274 61.249686 
L 193.425192 59.369784 
L 193.750172 59.283843 
L 194.075152 59.495314 
L 194.400131 59.429737 
L 194.725111 59.548024 
L 195.05009 59.338864 
L 195.37507 59.545275 
L 196.025029 59.418493 
L 196.350008 59.109711 
L 196.674988 59.114474 
L 197.324947 59.516326 
L 197.649926 58.964221 
L 197.974906 58.967322 
L 198.299885 59.170398 
L 198.624865 58.635184 
L 198.949844 58.785429 
L 199.274824 58.367369 
L 199.599803 58.443835 
L 200.249762 59.006931 
L 200.899722 59.405714 
L 201.224701 59.302817 
L 201.549681 59.42443 
L 202.19964 60.027711 
L 203.499558 58.934464 
L 204.149517 59.116982 
L 204.474496 58.687984 
L 204.799476 58.984706 
L 205.124455 58.812005 
L 205.449435 58.348274 
L 205.774414 58.616735 
L 206.424373 58.581139 
L 206.749353 57.634156 
L 207.074333 57.84277 
L 207.399312 57.711815 
L 207.724292 57.702643 
L 208.049271 57.029721 
L 208.374251 57.104913 
L 209.02421 57.554517 
L 209.349189 57.36854 
L 209.674169 57.580992 
L 209.999148 57.380472 
L 210.649107 57.850735 
L 210.974087 57.509281 
L 211.299066 57.552043 
L 211.624046 57.804405 
L 212.598984 57.799646 
L 212.923964 57.50753 
L 213.248943 57.000176 
L 213.573923 56.859526 
L 213.898903 56.984438 
L 214.223882 56.374995 
L 214.548862 56.045141 
L 214.873841 56.151036 
L 215.198821 55.999145 
L 215.5238 56.248522 
L 215.84878 56.073037 
L 216.173759 56.265103 
L 216.498739 56.23727 
L 217.148698 56.70832 
L 217.473677 56.689108 
L 217.798657 56.869872 
L 218.123636 56.519492 
L 218.448616 56.349215 
L 218.773595 55.943372 
L 220.073514 56.909591 
L 220.398493 56.575511 
L 221.048452 56.836291 
L 221.373432 56.293518 
L 221.698411 56.553622 
L 222.34837 55.82729 
L 222.67335 55.863075 
L 222.998329 56.093806 
L 223.323309 55.985613 
L 224.623227 56.81892 
L 224.948206 57.024801 
L 225.273186 56.442598 
L 225.598165 56.559461 
L 225.923145 56.256853 
L 226.898084 56.68968 
L 227.548043 56.963275 
L 227.873022 57.107889 
L 228.198002 56.824149 
L 228.522981 56.89754 
L 228.847961 56.568419 
L 229.49792 57.045559 
L 229.822899 57.073932 
L 230.472858 57.436796 
L 230.797838 57.362827 
L 231.447797 57.590644 
L 233.072695 58.566878 
L 233.397674 58.203648 
L 233.722654 58.192297 
L 234.697592 58.758907 
L 235.347551 58.750347 
L 236.32249 58.996414 
L 236.972449 58.439622 
L 238.597346 59.195103 
L 238.922326 58.74247 
L 239.247305 58.585055 
L 239.897265 58.913145 
L 240.222244 58.805086 
L 240.547224 58.954623 
L 240.872203 58.789261 
L 241.197183 58.780646 
L 241.847142 59.210856 
L 242.497101 59.407084 
L 242.82208 58.963437 
L 243.472039 59.278264 
L 243.797019 59.298661 
L 244.121998 59.016334 
L 244.446978 58.988484 
L 244.771957 58.548233 
L 245.746896 58.828844 
L 246.071876 59.031969 
L 246.721835 59.247485 
L 247.371794 59.676381 
L 248.021753 60.125483 
L 248.346732 59.735104 
L 248.671712 59.801947 
L 248.996691 59.991518 
L 249.97163 60.088709 
L 250.296609 59.598883 
L 250.621589 59.355377 
L 251.271548 59.738919 
L 251.596527 59.759907 
L 252.896446 60.30872 
L 253.221425 59.857412 
L 253.546405 59.140373 
L 254.196364 58.952497 
L 254.521343 59.171103 
L 254.846323 58.901653 
L 255.171302 58.913125 
L 255.496282 58.508302 
L 255.821261 58.578146 
L 256.47122 58.944012 
L 256.7962 58.7622 
L 257.121179 58.136368 
L 257.446159 58.329788 
L 257.771138 58.056804 
L 258.096118 58.197987 
L 258.421097 58.096527 
L 259.071057 58.41431 
L 259.396036 58.038263 
L 259.721016 57.835705 
L 260.045995 57.919395 
L 260.370975 57.765232 
L 260.695954 57.745847 
L 261.020934 57.931277 
L 261.345913 57.708111 
L 261.995872 58.012199 
L 262.645831 58.272258 
L 262.970811 58.069023 
L 263.29579 58.31971 
L 263.62077 58.136609 
L 263.945749 58.272677 
L 264.270729 58.005243 
L 264.595708 57.477414 
L 265.245667 57.7169 
L 265.570647 56.898974 
L 265.895627 56.925181 
L 266.220606 57.123264 
L 266.545586 57.151794 
L 266.870565 57.374276 
L 267.845504 57.275377 
L 268.495463 57.398153 
L 268.820442 57.23864 
L 269.145422 56.919599 
L 269.470401 56.880946 
L 270.12036 57.186786 
L 270.44534 57.060887 
L 270.770319 57.139205 
L 271.095299 56.858105 
L 271.420278 56.886121 
L 271.745258 56.612573 
L 272.720197 56.774156 
L 273.370156 57.031405 
L 274.345094 57.323534 
L 274.670074 56.630308 
L 275.320033 56.63917 
L 275.645012 56.792866 
L 275.969992 56.578928 
L 276.94493 57.150102 
L 277.919869 57.144207 
L 278.569828 57.400763 
L 279.544767 57.355718 
L 279.869746 57.434496 
L 280.194726 57.356256 
L 281.169664 57.601207 
L 281.494644 57.816133 
L 282.144603 57.990473 
L 282.469582 57.831928 
L 283.119541 58.038248 
L 283.444521 57.744003 
L 285.394398 58.3644 
L 285.719378 57.800127 
L 286.694316 58.13811 
L 287.019296 57.823428 
L 287.669255 58.09876 
L 287.994234 57.992358 
L 288.319214 58.155441 
L 288.644193 57.926646 
L 289.619132 58.382432 
L 290.269091 57.892604 
L 291.569009 58.299881 
L 292.218968 58.282866 
L 293.518886 58.771896 
L 293.843866 58.802812 
L 294.168845 58.432228 
L 294.493825 58.625538 
L 295.143784 58.107631 
L 295.793743 58.380645 
L 296.443702 58.34029 
L 296.768681 58.422945 
L 297.74362 58.266445 
L 298.0686 57.700112 
L 298.393579 57.443323 
L 298.718559 57.591045 
L 299.043538 57.403796 
L 299.693497 57.444415 
L 300.018477 57.262503 
L 300.343456 57.410427 
L 300.993415 57.451478 
L 302.293333 57.755743 
L 303.268272 57.691864 
L 303.593251 57.485022 
L 303.918231 57.59318 
L 304.24321 57.407877 
L 305.543129 57.5982 
L 306.518067 57.87604 
L 307.168026 57.812772 
L 307.493006 57.645085 
L 308.142965 57.772406 
L 308.467944 57.714465 
L 309.117903 58.007566 
L 309.442883 57.991853 
L 310.092842 57.664525 
L 310.417821 57.756758 
L 311.39276 57.772501 
L 311.71774 57.925046 
L 312.042719 57.709314 
L 312.692678 57.96098 
L 313.342637 57.068138 
L 313.667617 57.23156 
L 314.317576 56.819174 
L 314.642555 56.909793 
L 314.967535 56.552121 
L 315.942473 56.430033 
L 316.592432 56.645323 
L 317.242391 56.405606 
L 318.54231 56.990802 
L 318.867289 56.734714 
L 319.192269 56.672806 
L 319.842228 56.980035 
L 320.492187 57.152388 
L 320.817166 56.910063 
L 321.142146 56.977836 
L 321.467125 56.758986 
L 321.792105 56.810557 
L 322.117084 56.318906 
L 323.092023 56.63991 
L 323.417002 56.494743 
L 324.066962 56.603452 
L 324.391941 56.365542 
L 326.016839 56.726403 
L 326.666798 56.378247 
L 327.316757 56.487081 
L 327.641736 56.072689 
L 328.291695 56.173883 
L 328.616675 55.64501 
L 328.941654 55.618723 
L 329.591613 55.741403 
L 330.241572 55.892691 
L 330.566552 55.725113 
L 330.891532 55.791148 
L 331.216511 55.554282 
L 331.541491 55.673205 
L 331.86647 55.607552 
L 332.19145 55.787685 
L 332.516429 55.766048 
L 333.166388 55.972689 
L 333.491368 55.677913 
L 334.791286 56.024391 
L 335.441245 55.41602 
L 335.766224 55.535456 
L 336.091204 55.264022 
L 336.416183 55.337483 
L 336.741163 55.028142 
L 337.066143 55.042098 
L 337.391122 54.589163 
L 337.716102 54.73988 
L 338.041081 54.613084 
L 338.366061 54.733542 
L 338.69104 54.646687 
L 339.01602 54.770626 
L 339.665979 54.781284 
L 339.990958 54.842674 
L 340.315938 54.710536 
L 340.640917 54.770844 
L 340.965897 54.611066 
L 342.265815 54.847674 
L 342.915774 54.635777 
L 343.240753 54.702046 
L 343.565733 54.62978 
L 344.540672 54.018516 
L 345.84059 54.455402 
L 346.165569 54.408349 
L 346.490549 54.528026 
L 346.815528 54.233281 
L 348.440426 54.615398 
L 349.090385 54.125697 
L 349.415364 53.980908 
L 350.065324 53.568 
L 350.390303 53.696415 
L 350.715283 53.673354 
L 351.690221 53.959927 
L 352.66516 54.315651 
L 352.990139 54.004403 
L 353.965078 54.43673 
L 354.940016 54.546605 
L 355.264996 54.714499 
L 356.564914 54.948456 
L 356.889894 55.042598 
L 357.864832 54.526456 
L 359.48973 55.081669 
L 360.139689 55.061673 
L 360.464668 55.068807 
L 361.764586 55.467835 
L 362.089566 55.548581 
L 362.739525 55.405444 
L 363.064505 55.321815 
L 364.689402 55.815064 
L 365.014382 55.615158 
L 365.664341 55.836953 
L 365.98932 55.806253 
L 367.289238 56.276434 
L 367.614218 56.094778 
L 368.589156 56.293225 
L 368.914136 56.249204 
L 369.239115 56.409275 
L 369.889075 56.437217 
L 370.214054 56.160109 
L 371.513972 56.434517 
L 372.163931 56.551013 
L 372.488911 56.242127 
L 373.788829 56.312725 
L 374.438788 56.402636 
L 374.763767 56.23996 
L 375.088747 56.393642 
L 375.413726 56.139166 
L 376.063686 56.279883 
L 376.388665 56.145838 
L 377.038624 55.655315 
L 377.363604 55.551196 
L 378.338542 55.734375 
L 379.313481 56.019767 
L 379.63846 56.16468 
L 380.613399 56.12962 
L 380.938378 56.219827 
L 381.588337 55.867617 
L 382.888256 56.206653 
L 383.213235 56.033271 
L 383.863194 55.562007 
L 384.838133 55.925187 
L 385.163112 55.952933 
L 385.813071 55.817947 
L 386.46303 56.031582 
L 386.78801 55.798994 
L 387.437969 55.922641 
L 387.762948 55.570749 
L 389.387846 55.821364 
L 389.712826 55.581797 
L 390.362785 55.688149 
L 390.687764 55.352317 
L 391.012744 55.376187 
L 391.337723 55.119884 
L 391.662703 55.122178 
L 391.987682 54.872419 
L 392.637641 55.065532 
L 392.962621 54.95806 
L 394.587518 55.077578 
L 395.237477 55.325896 
L 395.887437 55.32093 
L 396.537396 55.572977 
L 396.862375 55.502461 
L 397.837314 55.720948 
L 398.487273 55.796135 
L 398.487273 55.796135 
" style="fill:none;stroke:#ff0000;stroke-linecap:square;stroke-width:2;"/>
   </g>
   <g id="line2d_16">
    <path clip-path="url(#p1b37e76946)" d="M 73.832727 295.488 
L 74.157707 291.705114 
L 74.482686 269.821489 
L 74.807666 274.830794 
L 75.132645 277.430406 
L 75.457625 270.292011 
L 76.107584 203.302222 
L 76.432563 193.341937 
L 76.757543 201.309747 
L 78.057461 216.779822 
L 78.382441 209.765482 
L 78.70742 210.165771 
L 79.357379 209.511109 
L 79.682359 212.785362 
L 80.007338 214.470005 
L 80.332318 210.323124 
L 80.657297 210.695168 
L 80.982277 206.255999 
L 81.307256 205.945834 
L 81.957215 207.800219 
L 82.282195 199.898135 
L 82.607174 197.22117 
L 82.932154 196.399774 
L 83.257133 196.355233 
L 83.582113 190.480562 
L 83.907093 189.109161 
L 84.232072 185.236557 
L 84.557052 186.319044 
L 84.882031 176.792722 
L 85.207011 171.572117 
L 85.53199 170.830366 
L 85.85697 171.241258 
L 86.181949 171.158032 
L 86.506929 172.329054 
L 86.831908 171.420584 
L 87.156888 171.496948 
L 87.481867 170.00585 
L 87.806847 171.075164 
L 88.131826 173.05725 
L 88.781785 175.055115 
L 89.106765 172.139401 
L 89.431744 170.629696 
L 90.081704 166.814322 
L 90.406683 166.625341 
L 90.731663 161.922483 
L 91.056642 162.246093 
L 91.381622 161.126093 
L 91.706601 162.34543 
L 92.35656 158.252004 
L 93.006519 152.922014 
L 93.331499 152.68427 
L 94.306437 151.358511 
L 94.631417 151.938242 
L 94.956396 152.173433 
L 95.281376 151.278517 
L 95.606355 151.904113 
L 96.256314 151.404825 
L 96.581294 147.182555 
L 97.231253 145.527345 
L 97.556233 145.809755 
L 97.881212 144.591632 
L 98.206192 140.25462 
L 98.531171 139.541191 
L 98.856151 140.479732 
L 99.18113 137.811559 
L 99.50611 137.408917 
L 99.831089 133.938926 
L 100.481048 135.007411 
L 100.806028 132.995229 
L 101.455987 133.669576 
L 101.780966 132.017357 
L 102.105946 129.609338 
L 102.430925 126.076495 
L 102.755905 124.211894 
L 103.080885 124.485425 
L 103.405864 121.620246 
L 103.730844 122.186277 
L 104.055823 122.329694 
L 104.380803 119.866059 
L 104.705782 118.830214 
L 105.030762 115.891383 
L 105.355741 116.966747 
L 106.0057 117.033312 
L 106.33068 117.626987 
L 106.980639 119.472147 
L 107.305618 119.765736 
L 107.630598 119.207982 
L 107.955577 119.458641 
L 108.605536 116.691811 
L 108.930516 117.121473 
L 109.255495 116.879398 
L 109.905455 113.183879 
L 110.230434 113.84726 
L 110.555414 111.472372 
L 110.880393 111.146054 
L 111.530352 107.09969 
L 111.855332 107.158589 
L 112.180311 106.373196 
L 112.505291 104.173062 
L 112.83027 103.098206 
L 113.15525 103.25467 
L 113.480229 100.022851 
L 113.805209 100.468348 
L 114.130188 101.53661 
L 114.455168 101.366937 
L 114.780147 100.648474 
L 115.105127 101.164615 
L 115.430106 101.239058 
L 115.755086 99.620515 
L 116.080066 99.249104 
L 116.405045 99.445147 
L 116.730025 99.951211 
L 117.379984 100.021648 
L 117.704963 99.273813 
L 118.029943 98.931797 
L 118.354922 98.158272 
L 119.004881 98.656706 
L 119.329861 98.784292 
L 119.65484 98.250983 
L 119.97982 96.10349 
L 120.304799 94.856744 
L 120.629779 95.126443 
L 120.954758 92.903032 
L 122.254676 94.906387 
L 122.579656 94.879297 
L 122.904636 94.716701 
L 123.229615 95.1949 
L 124.204554 95.705703 
L 124.854513 95.673863 
L 125.504472 96.42907 
L 125.829451 93.899664 
L 126.154431 93.256858 
L 126.47941 93.320736 
L 126.80439 93.927897 
L 127.129369 93.558924 
L 127.454349 92.47654 
L 127.779328 93.105136 
L 128.104308 93.141447 
L 128.429287 93.80607 
L 129.079247 91.188735 
L 129.404226 90.651813 
L 129.729206 90.86166 
L 130.054185 91.375735 
L 130.379165 89.968137 
L 130.704144 87.338641 
L 131.029124 85.670782 
L 131.354103 83.123735 
L 132.004062 83.523158 
L 132.329042 83.941479 
L 132.654021 83.584477 
L 132.979001 83.737428 
L 133.30398 82.590369 
L 133.62896 82.552802 
L 134.278919 83.593001 
L 134.603898 83.540401 
L 134.928878 83.356899 
L 135.253857 82.604757 
L 135.903817 82.694058 
L 136.228796 82.023699 
L 136.878755 81.606451 
L 138.178673 83.402652 
L 138.503653 83.651607 
L 139.153612 84.507662 
L 139.803571 84.732459 
L 140.12855 84.027549 
L 140.778509 83.725706 
L 141.103489 81.653624 
L 141.428468 81.965149 
L 141.753448 81.875032 
L 142.078428 82.110092 
L 142.403407 82.198294 
L 142.728387 82.495615 
L 143.053366 82.536537 
L 143.703325 82.16149 
L 144.353284 82.597242 
L 144.678264 82.398491 
L 145.003243 81.882339 
L 145.328223 82.361349 
L 145.978182 82.460562 
L 146.303161 82.391291 
L 146.628141 82.798885 
L 146.95312 81.6043 
L 147.2781 82.036494 
L 147.603079 81.814299 
L 147.928059 81.973846 
L 148.253038 81.985591 
L 148.578018 81.145661 
L 148.902998 81.419064 
L 149.552957 80.664338 
L 149.877936 80.69083 
L 150.202916 81.11304 
L 150.527895 81.325673 
L 150.852875 81.305928 
L 151.502834 81.81727 
L 151.827813 81.342258 
L 152.152793 81.685169 
L 152.477772 81.482841 
L 152.802752 81.542691 
L 153.452711 82.11003 
L 154.10267 82.031112 
L 154.427649 82.038597 
L 154.752629 82.381712 
L 155.077609 82.477625 
L 155.402588 82.362956 
L 155.727568 82.568792 
L 156.377527 81.86545 
L 156.702506 80.752148 
L 157.027486 80.843582 
L 157.352465 81.074838 
L 157.677445 80.56171 
L 158.002424 80.76432 
L 158.327404 80.448426 
L 158.652383 80.350437 
L 159.302342 80.553504 
L 159.952301 80.563564 
L 160.277281 79.42382 
L 160.60226 79.307599 
L 160.92724 79.371634 
L 161.577199 79.896434 
L 161.902179 79.435118 
L 162.227158 79.327252 
L 162.552138 78.994948 
L 163.202097 79.091837 
L 163.527076 78.451447 
L 163.852056 78.750025 
L 164.177035 77.992177 
L 164.826994 78.377149 
L 165.151974 78.129028 
L 165.476953 78.536023 
L 165.801933 78.756564 
L 166.451892 78.886365 
L 166.776871 78.671094 
L 167.101851 78.816737 
L 167.42683 78.782705 
L 167.75181 77.759746 
L 168.07679 78.122394 
L 168.401769 78.091793 
L 169.051728 78.543636 
L 169.701687 78.702434 
L 170.026667 78.615382 
L 170.351646 78.820547 
L 170.676626 78.35099 
L 171.001605 78.716008 
L 171.326585 77.923616 
L 171.651564 78.036289 
L 171.976544 78.339073 
L 172.301523 78.221065 
L 172.626503 77.847644 
L 172.951482 76.225513 
L 173.276462 76.133917 
L 173.601441 76.505498 
L 174.2514 76.443869 
L 174.57638 75.923586 
L 175.226339 76.116358 
L 176.201278 76.292862 
L 176.526257 76.572166 
L 176.851237 76.427547 
L 177.176216 75.64422 
L 178.151155 76.129561 
L 178.476134 75.93727 
L 178.801114 76.14812 
L 179.126093 75.670156 
L 179.776052 75.322598 
L 180.101032 74.737603 
L 180.426011 74.787177 
L 180.750991 75.009797 
L 181.075971 74.826836 
L 181.40095 75.004998 
L 181.72593 74.330307 
L 182.050909 74.43282 
L 182.375889 74.418584 
L 183.025848 74.818604 
L 183.350827 74.496799 
L 183.675807 74.500798 
L 184.000786 74.70875 
L 184.325766 74.051654 
L 184.975725 73.944051 
L 185.300704 74.003103 
L 185.625684 73.372194 
L 185.950663 73.493816 
L 186.275643 73.871861 
L 186.600622 73.853099 
L 186.925602 72.461893 
L 187.250581 72.18149 
L 187.575561 71.638261 
L 187.900541 71.968971 
L 188.5505 71.899778 
L 189.200459 72.489377 
L 189.850418 71.551606 
L 190.175397 71.605266 
L 190.500377 71.275299 
L 190.825356 70.520807 
L 191.475315 70.928901 
L 192.125274 70.857278 
L 192.775233 71.430557 
L 193.100213 71.114139 
L 193.425192 71.336592 
L 193.750172 71.317659 
L 194.075152 71.602725 
L 194.400131 71.592183 
L 194.725111 71.83985 
L 195.05009 71.893607 
L 195.700049 72.464724 
L 196.025029 72.546539 
L 196.999967 70.992636 
L 197.324947 71.121496 
L 197.649926 71.056442 
L 197.974906 70.610787 
L 198.299885 70.849408 
L 198.949844 70.456607 
L 199.274824 69.625962 
L 199.599803 69.681684 
L 200.574742 70.367276 
L 200.899722 70.332187 
L 201.224701 70.58803 
L 201.549681 70.394771 
L 201.87466 69.530022 
L 202.19964 69.529699 
L 202.524619 69.785298 
L 202.849599 69.62874 
L 203.174578 69.620624 
L 203.499558 69.855763 
L 203.824537 69.34326 
L 204.474496 69.532868 
L 204.799476 69.11001 
L 205.449435 69.178256 
L 206.099394 69.36137 
L 206.424373 68.98265 
L 206.749353 69.299132 
L 207.074333 69.330025 
L 207.399312 69.520775 
L 207.724292 69.393398 
L 208.049271 69.02358 
L 208.374251 69.309046 
L 208.69923 69.416592 
L 209.02421 69.315448 
L 209.349189 69.355875 
L 209.674169 69.241777 
L 210.974087 69.451836 
L 211.624046 69.885768 
L 211.949025 69.539176 
L 212.923964 70.094621 
L 213.248943 69.597517 
L 213.898903 69.995488 
L 214.223882 69.523667 
L 214.548862 69.734884 
L 214.873841 69.281139 
L 215.198821 69.270293 
L 215.5238 68.540848 
L 216.173759 68.389142 
L 216.498739 68.377119 
L 217.148698 68.002844 
L 218.123636 68.521857 
L 218.448616 67.919204 
L 218.773595 68.178268 
L 219.098575 67.885215 
L 221.048452 68.869146 
L 221.373432 68.825188 
L 222.34837 69.387255 
L 222.67335 69.431129 
L 222.998329 69.3579 
L 223.323309 69.54795 
L 224.298247 69.791559 
L 224.623227 69.454653 
L 224.948206 69.626956 
L 225.273186 69.503045 
L 226.573104 70.128569 
L 227.223063 70.047769 
L 227.548043 70.209768 
L 227.873022 69.876879 
L 228.198002 68.821564 
L 228.522981 68.992799 
L 228.847961 68.934028 
L 229.49792 69.167492 
L 229.822899 69.250547 
L 230.147879 68.820127 
L 230.797838 68.959797 
L 231.447797 69.129372 
L 231.772776 68.579553 
L 232.097756 68.747526 
L 232.422735 68.392337 
L 232.747715 67.594539 
L 234.372613 66.651027 
L 234.697592 66.139038 
L 235.022572 66.272441 
L 235.347551 65.989994 
L 235.99751 66.091945 
L 236.32249 65.943782 
L 236.647469 65.963332 
L 236.972449 66.149769 
L 237.297428 65.545893 
L 238.272367 65.804346 
L 238.597346 65.772489 
L 238.922326 65.95159 
L 239.247305 65.569722 
L 239.572285 65.704585 
L 239.897265 65.628006 
L 240.222244 65.434705 
L 241.847142 65.852681 
L 242.172121 65.748665 
L 242.82208 65.29949 
L 243.14706 65.511461 
L 243.797019 65.323581 
L 244.446978 65.588557 
L 244.771957 65.561098 
L 246.071876 66.079316 
L 246.396855 65.614712 
L 247.371794 65.930745 
L 247.696773 65.873227 
L 248.346732 65.067902 
L 248.671712 64.783293 
L 249.321671 65.005543 
L 249.97163 64.303544 
L 251.271548 64.715987 
L 251.596527 64.686736 
L 251.921507 64.772862 
L 252.246486 64.672156 
L 252.571466 64.850327 
L 253.221425 64.784162 
L 253.871384 64.231249 
L 254.196364 64.190376 
L 256.146241 64.758327 
L 256.47122 64.204523 
L 256.7962 63.910725 
L 257.446159 64.212563 
L 257.771138 63.889075 
L 258.096118 63.816614 
L 258.746077 64.052668 
L 259.071057 64.042934 
L 259.396036 64.220409 
L 259.721016 64.188748 
L 260.045995 64.322111 
L 260.695954 64.362548 
L 261.020934 64.550394 
L 261.345913 64.478398 
L 262.320852 64.93133 
L 262.645831 64.952917 
L 263.62077 63.824725 
L 263.945749 63.790587 
L 264.595708 64.028584 
L 264.920688 63.385072 
L 265.570647 63.642814 
L 265.895627 63.25415 
L 266.220606 63.404105 
L 266.870565 63.404651 
L 267.845504 63.784048 
L 268.170483 63.676173 
L 268.820442 63.801353 
L 269.145422 63.55383 
L 270.44534 63.42827 
L 271.420278 63.583196 
L 271.745258 63.222981 
L 272.070238 63.279567 
L 272.395217 63.125438 
L 272.720197 63.234813 
L 273.370156 63.098024 
L 274.020115 63.288764 
L 274.345094 62.837793 
L 274.670074 62.679344 
L 274.995053 62.867137 
L 275.645012 62.760737 
L 276.294971 62.512497 
L 276.619951 62.478458 
L 278.569828 62.977745 
L 278.894808 62.755265 
L 279.219787 62.860255 
L 279.544767 62.789287 
L 280.844685 63.147917 
L 281.819623 62.437697 
L 282.144603 61.76366 
L 282.469582 61.713808 
L 283.119541 61.775576 
L 283.444521 61.626211 
L 283.7695 61.644562 
L 284.09448 61.419755 
L 284.419459 61.613595 
L 284.744439 61.179641 
L 285.069419 61.229295 
L 285.394398 61.417064 
L 286.044357 60.995421 
L 286.694316 61.226863 
L 287.019296 60.866577 
L 287.344275 61.00856 
L 287.669255 60.560584 
L 288.319214 60.664279 
L 288.644193 60.405349 
L 288.969173 60.565655 
L 289.294152 60.311364 
L 290.269091 60.868389 
L 290.91905 60.940058 
L 291.244029 60.8802 
L 291.569009 60.431105 
L 291.893989 60.611408 
L 292.218968 60.457888 
L 292.543948 60.162527 
L 293.193907 60.552212 
L 293.518886 60.52971 
L 294.168845 60.769587 
L 294.493825 60.690872 
L 294.818804 60.860476 
L 295.468763 60.907406 
L 296.118722 60.449875 
L 296.768681 60.485515 
L 297.41864 60.538717 
L 297.74362 60.577438 
L 298.0686 60.198656 
L 298.393579 60.186946 
L 299.043538 59.712917 
L 300.018477 59.858516 
L 300.343456 59.671544 
L 300.993415 59.946152 
L 301.318395 59.330725 
L 301.643374 59.329328 
L 302.293333 59.558712 
L 303.593251 59.605573 
L 304.56819 59.881906 
L 305.218149 59.919589 
L 305.868108 60.124119 
L 306.193088 60.128604 
L 306.518067 60.255846 
L 306.843047 60.156719 
L 307.493006 60.462473 
L 307.817985 60.401191 
L 308.142965 60.210645 
L 309.117903 60.349448 
L 309.442883 60.428585 
L 309.767862 60.32643 
L 310.742801 60.699182 
L 311.39276 60.684035 
L 312.692678 60.82049 
L 313.017658 60.69219 
L 313.992596 60.944735 
L 314.967535 61.119219 
L 315.292514 60.889071 
L 315.617494 61.07007 
L 315.942473 60.871759 
L 316.592432 61.164792 
L 316.917412 60.90614 
L 317.892351 60.939991 
L 318.21733 61.096795 
L 318.54231 60.893888 
L 318.867289 61.055997 
L 319.192269 60.892106 
L 319.842228 60.983051 
L 320.167207 60.723052 
L 320.492187 60.197473 
L 323.092023 60.089265 
L 324.391941 60.480038 
L 325.0419 60.745286 
L 325.36688 60.231573 
L 326.341818 60.619108 
L 326.666798 60.660489 
L 326.991777 60.558414 
L 327.316757 60.585588 
L 327.641736 60.354663 
L 327.966716 60.318448 
L 328.616675 59.822423 
L 328.941654 59.799592 
L 330.241572 60.24276 
L 331.216511 60.395784 
L 331.541491 60.01118 
L 332.19145 60.191788 
L 333.166388 59.924191 
L 333.816347 60.280902 
L 334.791286 60.348512 
L 335.766224 60.413778 
L 336.091204 60.401374 
L 337.066143 60.682159 
L 337.391122 60.46521 
L 338.041081 60.691009 
L 338.69104 60.550585 
L 339.01602 60.672979 
L 339.340999 60.415293 
L 339.665979 60.386474 
L 339.990958 60.209254 
L 340.965897 60.510244 
L 341.290876 60.279552 
L 341.615856 60.352157 
L 341.940835 60.182862 
L 342.265815 60.299357 
L 342.590794 60.09952 
L 342.915774 60.161483 
L 343.240753 59.932243 
L 344.215692 60.240419 
L 344.865651 60.319182 
L 345.51561 60.332156 
L 345.84059 60.258268 
L 346.165569 59.955754 
L 346.815528 60.08327 
L 347.790467 59.965402 
L 348.115446 59.951171 
L 348.440426 60.101582 
L 348.765405 60.081132 
L 349.415364 60.262739 
L 349.740344 60.053598 
L 350.390303 60.178643 
L 351.365242 60.294455 
L 352.34018 59.809632 
L 352.990139 59.795462 
L 353.315119 59.932012 
L 353.965078 59.989049 
L 354.615037 60.206743 
L 355.264996 59.961939 
L 355.589975 59.759991 
L 356.889894 59.701393 
L 358.189812 60.12179 
L 358.514791 60.172108 
L 358.839771 59.971425 
L 359.48973 60.11632 
L 360.139689 60.069839 
L 360.464668 59.863525 
L 361.114627 59.981269 
L 362.739525 60.176918 
L 364.689402 60.686361 
L 365.339361 60.816604 
L 365.664341 60.585566 
L 366.964259 60.629056 
L 367.614218 60.765294 
L 368.589156 60.401987 
L 369.239115 60.619267 
L 369.889075 60.786784 
L 370.214054 60.590276 
L 371.188993 60.878906 
L 371.513972 61.029422 
L 371.838952 60.843297 
L 372.488911 61.001512 
L 372.81389 61.000017 
L 373.788829 61.397666 
L 374.438788 61.429235 
L 374.763767 61.559433 
L 375.088747 61.313397 
L 378.338542 61.768264 
L 378.663522 61.467247 
L 378.988501 61.397125 
L 379.63846 61.476904 
L 380.938378 61.573507 
L 381.588337 61.726795 
L 381.913317 61.739417 
L 382.238296 61.513243 
L 382.563276 61.5386 
L 382.888256 61.214254 
L 383.213235 61.309012 
L 383.538215 61.049728 
L 384.188174 60.933034 
L 384.838133 61.084453 
L 385.163112 60.939443 
L 385.813071 60.960937 
L 386.138051 61.092363 
L 386.78801 60.764096 
L 387.437969 60.848853 
L 387.762948 60.702636 
L 388.737887 60.916503 
L 389.062867 60.863654 
L 389.387846 60.966386 
L 389.712826 60.686235 
L 390.362785 60.649247 
L 391.012744 60.743264 
L 391.337723 60.796686 
L 391.662703 60.447435 
L 392.312662 60.455521 
L 392.637641 60.293463 
L 393.61258 60.553032 
L 393.937559 60.391669 
L 394.262539 60.372148 
L 394.912498 60.631719 
L 395.237477 60.353979 
L 395.887437 60.360114 
L 396.212416 60.203713 
L 396.862375 60.349714 
L 397.187355 60.220045 
L 397.512334 60.325927 
L 397.837314 59.768789 
L 398.487273 59.874586 
L 398.487273 59.874586 
" style="fill:none;stroke:#008000;stroke-linecap:square;stroke-width:2;"/>
   </g>
   <g id="patch_3">
    <path d="M 57.6 307.584 
L 57.6 41.472 
" style="fill:none;stroke:#000000;stroke-linecap:square;stroke-linejoin:miter;stroke-width:0.8;"/>
   </g>
   <g id="patch_4">
    <path d="M 414.72 307.584 
L 414.72 41.472 
" style="fill:none;stroke:#000000;stroke-linecap:square;stroke-linejoin:miter;stroke-width:0.8;"/>
   </g>
   <g id="patch_5">
    <path d="M 57.6 307.584 
L 414.72 307.584 
" style="fill:none;stroke:#000000;stroke-linecap:square;stroke-linejoin:miter;stroke-width:0.8;"/>
   </g>
   <g id="patch_6">
    <path d="M 57.6 41.472 
L 414.72 41.472 
" style="fill:none;stroke:#000000;stroke-linecap:square;stroke-linejoin:miter;stroke-width:0.8;"/>
   </g>
   <g id="legend_1">
    <g id="patch_7">
     <path d="M 324.4325 302.584 
L 407.72 302.584 
Q 409.72 302.584 409.72 300.584 
L 409.72 272.22775 
Q 409.72 270.22775 407.72 270.22775 
L 324.4325 270.22775 
Q 322.4325 270.22775 322.4325 272.22775 
L 322.4325 300.584 
Q 322.4325 302.584 324.4325 302.584 
z
" style="fill:#ffffff;opacity:0.8;stroke:#cccccc;stroke-linejoin:miter;"/>
    </g>
    <g id="line2d_17">
     <path d="M 326.4325 278.326187 
L 346.4325 278.326187 
" style="fill:none;stroke:#ff0000;stroke-linecap:square;stroke-width:2;"/>
    </g>
    <g id="line2d_18"/>
    <g id="text_15">
     <!-- SARSA -->
     <g transform="translate(354.4325 281.826187)scale(0.1 -0.1)">
      <defs>
       <path d="M 3425 4513 
L 3425 3897 
Q 3066 4069 2747 4153 
Q 2428 4238 2131 4238 
Q 1616 4238 1336 4038 
Q 1056 3838 1056 3469 
Q 1056 3159 1242 3001 
Q 1428 2844 1947 2747 
L 2328 2669 
Q 3034 2534 3370 2195 
Q 3706 1856 3706 1288 
Q 3706 609 3251 259 
Q 2797 -91 1919 -91 
Q 1588 -91 1214 -16 
Q 841 59 441 206 
L 441 856 
Q 825 641 1194 531 
Q 1563 422 1919 422 
Q 2459 422 2753 634 
Q 3047 847 3047 1241 
Q 3047 1584 2836 1778 
Q 2625 1972 2144 2069 
L 1759 2144 
Q 1053 2284 737 2584 
Q 422 2884 422 3419 
Q 422 4038 858 4394 
Q 1294 4750 2059 4750 
Q 2388 4750 2728 4690 
Q 3069 4631 3425 4513 
z
" id="DejaVuSans-53" transform="scale(0.015625)"/>
       <path d="M 2188 4044 
L 1331 1722 
L 3047 1722 
L 2188 4044 
z
M 1831 4666 
L 2547 4666 
L 4325 0 
L 3669 0 
L 3244 1197 
L 1141 1197 
L 716 0 
L 50 0 
L 1831 4666 
z
" id="DejaVuSans-41" transform="scale(0.015625)"/>
       <path d="M 2841 2188 
Q 3044 2119 3236 1894 
Q 3428 1669 3622 1275 
L 4263 0 
L 3584 0 
L 2988 1197 
Q 2756 1666 2539 1819 
Q 2322 1972 1947 1972 
L 1259 1972 
L 1259 0 
L 628 0 
L 628 4666 
L 2053 4666 
Q 2853 4666 3247 4331 
Q 3641 3997 3641 3322 
Q 3641 2881 3436 2590 
Q 3231 2300 2841 2188 
z
M 1259 4147 
L 1259 2491 
L 2053 2491 
Q 2509 2491 2742 2702 
Q 2975 2913 2975 3322 
Q 2975 3731 2742 3939 
Q 2509 4147 2053 4147 
L 1259 4147 
z
" id="DejaVuSans-52" transform="scale(0.015625)"/>
      </defs>
      <use xlink:href="#DejaVuSans-53"/>
      <use x="65.351562" xlink:href="#DejaVuSans-41"/>
      <use x="133.759766" xlink:href="#DejaVuSans-52"/>
      <use x="203.242188" xlink:href="#DejaVuSans-53"/>
      <use x="268.59375" xlink:href="#DejaVuSans-41"/>
     </g>
    </g>
    <g id="line2d_19">
     <path d="M 326.4325 293.004312 
L 346.4325 293.004312 
" style="fill:none;stroke:#008000;stroke-linecap:square;stroke-width:2;"/>
    </g>
    <g id="line2d_20"/>
    <g id="text_16">
     <!-- QLearning -->
     <g transform="translate(354.4325 296.504312)scale(0.1 -0.1)">
      <defs>
       <path d="M 2522 4238 
Q 1834 4238 1429 3725 
Q 1025 3213 1025 2328 
Q 1025 1447 1429 934 
Q 1834 422 2522 422 
Q 3209 422 3611 934 
Q 4013 1447 4013 2328 
Q 4013 3213 3611 3725 
Q 3209 4238 2522 4238 
z
M 3406 84 
L 4238 -825 
L 3475 -825 
L 2784 -78 
Q 2681 -84 2626 -87 
Q 2572 -91 2522 -91 
Q 1538 -91 948 567 
Q 359 1225 359 2328 
Q 359 3434 948 4092 
Q 1538 4750 2522 4750 
Q 3503 4750 4090 4092 
Q 4678 3434 4678 2328 
Q 4678 1516 4351 937 
Q 4025 359 3406 84 
z
" id="DejaVuSans-51" transform="scale(0.015625)"/>
       <path d="M 628 4666 
L 1259 4666 
L 1259 531 
L 3531 531 
L 3531 0 
L 628 0 
L 628 4666 
z
" id="DejaVuSans-4c" transform="scale(0.015625)"/>
       <path d="M 3597 1894 
L 3597 1613 
L 953 1613 
Q 991 1019 1311 708 
Q 1631 397 2203 397 
Q 2534 397 2845 478 
Q 3156 559 3463 722 
L 3463 178 
Q 3153 47 2828 -22 
Q 2503 -91 2169 -91 
Q 1331 -91 842 396 
Q 353 884 353 1716 
Q 353 2575 817 3079 
Q 1281 3584 2069 3584 
Q 2775 3584 3186 3129 
Q 3597 2675 3597 1894 
z
M 3022 2063 
Q 3016 2534 2758 2815 
Q 2500 3097 2075 3097 
Q 1594 3097 1305 2825 
Q 1016 2553 972 2059 
L 3022 2063 
z
" id="DejaVuSans-65" transform="scale(0.015625)"/>
       <path d="M 2194 1759 
Q 1497 1759 1228 1600 
Q 959 1441 959 1056 
Q 959 750 1161 570 
Q 1363 391 1709 391 
Q 2188 391 2477 730 
Q 2766 1069 2766 1631 
L 2766 1759 
L 2194 1759 
z
M 3341 1997 
L 3341 0 
L 2766 0 
L 2766 531 
Q 2569 213 2275 61 
Q 1981 -91 1556 -91 
Q 1019 -91 701 211 
Q 384 513 384 1019 
Q 384 1609 779 1909 
Q 1175 2209 1959 2209 
L 2766 2209 
L 2766 2266 
Q 2766 2663 2505 2880 
Q 2244 3097 1772 3097 
Q 1472 3097 1187 3025 
Q 903 2953 641 2809 
L 641 3341 
Q 956 3463 1253 3523 
Q 1550 3584 1831 3584 
Q 2591 3584 2966 3190 
Q 3341 2797 3341 1997 
z
" id="DejaVuSans-61" transform="scale(0.015625)"/>
       <path d="M 2631 2963 
Q 2534 3019 2420 3045 
Q 2306 3072 2169 3072 
Q 1681 3072 1420 2755 
Q 1159 2438 1159 1844 
L 1159 0 
L 581 0 
L 581 3500 
L 1159 3500 
L 1159 2956 
Q 1341 3275 1631 3429 
Q 1922 3584 2338 3584 
Q 2397 3584 2469 3576 
Q 2541 3569 2628 3553 
L 2631 2963 
z
" id="DejaVuSans-72" transform="scale(0.015625)"/>
       <path d="M 3513 2113 
L 3513 0 
L 2938 0 
L 2938 2094 
Q 2938 2591 2744 2837 
Q 2550 3084 2163 3084 
Q 1697 3084 1428 2787 
Q 1159 2491 1159 1978 
L 1159 0 
L 581 0 
L 581 3500 
L 1159 3500 
L 1159 2956 
Q 1366 3272 1645 3428 
Q 1925 3584 2291 3584 
Q 2894 3584 3203 3211 
Q 3513 2838 3513 2113 
z
" id="DejaVuSans-6e" transform="scale(0.015625)"/>
       <path d="M 603 3500 
L 1178 3500 
L 1178 0 
L 603 0 
L 603 3500 
z
M 603 4863 
L 1178 4863 
L 1178 4134 
L 603 4134 
L 603 4863 
z
" id="DejaVuSans-69" transform="scale(0.015625)"/>
       <path d="M 2906 1791 
Q 2906 2416 2648 2759 
Q 2391 3103 1925 3103 
Q 1463 3103 1205 2759 
Q 947 2416 947 1791 
Q 947 1169 1205 825 
Q 1463 481 1925 481 
Q 2391 481 2648 825 
Q 2906 1169 2906 1791 
z
M 3481 434 
Q 3481 -459 3084 -895 
Q 2688 -1331 1869 -1331 
Q 1566 -1331 1297 -1286 
Q 1028 -1241 775 -1147 
L 775 -588 
Q 1028 -725 1275 -790 
Q 1522 -856 1778 -856 
Q 2344 -856 2625 -561 
Q 2906 -266 2906 331 
L 2906 616 
Q 2728 306 2450 153 
Q 2172 0 1784 0 
Q 1141 0 747 490 
Q 353 981 353 1791 
Q 353 2603 747 3093 
Q 1141 3584 1784 3584 
Q 2172 3584 2450 3431 
Q 2728 3278 2906 2969 
L 2906 3500 
L 3481 3500 
L 3481 434 
z
" id="DejaVuSans-67" transform="scale(0.015625)"/>
      </defs>
      <use xlink:href="#DejaVuSans-51"/>
      <use x="78.710938" xlink:href="#DejaVuSans-4c"/>
      <use x="132.673828" xlink:href="#DejaVuSans-65"/>
      <use x="194.197266" xlink:href="#DejaVuSans-61"/>
      <use x="255.476562" xlink:href="#DejaVuSans-72"/>
      <use x="294.839844" xlink:href="#DejaVuSans-6e"/>
      <use x="358.21875" xlink:href="#DejaVuSans-69"/>
      <use x="386.001953" xlink:href="#DejaVuSans-6e"/>
      <use x="449.380859" xlink:href="#DejaVuSans-67"/>
     </g>
    </g>
   </g>
  </g>
 </g>
 <defs>
  <clipPath id="p1b37e76946">
   <rect height="266.112" width="357.12" x="57.6" y="41.472"/>
  </clipPath>
 </defs>
</svg>
